G04 #@! TF.GenerationSoftware,KiCad,Pcbnew,(5.1.5)-3*
G04 #@! TF.CreationDate,2020-04-02T09:01:34+03:00*
G04 #@! TF.ProjectId,VentilaVitesco,56656e74-696c-4615-9669-746573636f2e,rev?*
G04 #@! TF.SameCoordinates,PX354a940PY93c3260*
G04 #@! TF.FileFunction,Legend,Top*
G04 #@! TF.FilePolarity,Positive*
%FSLAX46Y46*%
G04 Gerber Fmt 4.6, Leading zero omitted, Abs format (unit mm)*
G04 Created by KiCad (PCBNEW (5.1.5)-3) date 2020-04-02 09:01:34*
%MOMM*%
%LPD*%
G04 APERTURE LIST*
%ADD10C,0.150000*%
%ADD11C,0.120000*%
G04 APERTURE END LIST*
D10*
X157454695Y27670143D02*
X158978504Y27670143D01*
X158216600Y26908239D02*
X158216600Y28432048D01*
X146749047Y21605762D02*
X146844285Y21701000D01*
X147034761Y21796239D01*
X147510952Y21796239D01*
X147701428Y21701000D01*
X147796666Y21605762D01*
X147891904Y21415286D01*
X147891904Y21224810D01*
X147796666Y20939096D01*
X146653809Y19796239D01*
X147891904Y19796239D01*
X149606190Y21129572D02*
X149606190Y19796239D01*
X149130000Y21891477D02*
X148653809Y20462905D01*
X149891904Y20462905D01*
X150368095Y21796239D02*
X151034761Y19796239D01*
X151701428Y21796239D01*
X152368095Y19796239D02*
X152368095Y21796239D01*
X152844285Y21796239D01*
X153130000Y21701000D01*
X153320476Y21510524D01*
X153415714Y21320048D01*
X153510952Y20939096D01*
X153510952Y20653381D01*
X153415714Y20272429D01*
X153320476Y20081953D01*
X153130000Y19891477D01*
X152844285Y19796239D01*
X152368095Y19796239D01*
X155510952Y19986715D02*
X155415714Y19891477D01*
X155130000Y19796239D01*
X154939523Y19796239D01*
X154653809Y19891477D01*
X154463333Y20081953D01*
X154368095Y20272429D01*
X154272857Y20653381D01*
X154272857Y20939096D01*
X154368095Y21320048D01*
X154463333Y21510524D01*
X154653809Y21701000D01*
X154939523Y21796239D01*
X155130000Y21796239D01*
X155415714Y21701000D01*
X155510952Y21605762D01*
X150232123Y42052858D02*
X149565457Y42052858D01*
X149565457Y41005239D02*
X149565457Y43005239D01*
X150517838Y43005239D01*
X151279742Y43005239D02*
X151279742Y41386191D01*
X151374980Y41195715D01*
X151470219Y41100477D01*
X151660695Y41005239D01*
X152041647Y41005239D01*
X152232123Y41100477D01*
X152327361Y41195715D01*
X152422600Y41386191D01*
X152422600Y43005239D01*
X153279742Y41100477D02*
X153565457Y41005239D01*
X154041647Y41005239D01*
X154232123Y41100477D01*
X154327361Y41195715D01*
X154422600Y41386191D01*
X154422600Y41576667D01*
X154327361Y41767143D01*
X154232123Y41862381D01*
X154041647Y41957620D01*
X153660695Y42052858D01*
X153470219Y42148096D01*
X153374980Y42243334D01*
X153279742Y42433810D01*
X153279742Y42624286D01*
X153374980Y42814762D01*
X153470219Y42910000D01*
X153660695Y43005239D01*
X154136885Y43005239D01*
X154422600Y42910000D01*
X155279742Y42052858D02*
X155946409Y42052858D01*
X156232123Y41005239D02*
X155279742Y41005239D01*
X155279742Y43005239D01*
X156232123Y43005239D01*
X159470219Y43005239D02*
X159089266Y43005239D01*
X158898790Y42910000D01*
X158803552Y42814762D01*
X158613076Y42529048D01*
X158517838Y42148096D01*
X158517838Y41386191D01*
X158613076Y41195715D01*
X158708314Y41100477D01*
X158898790Y41005239D01*
X159279742Y41005239D01*
X159470219Y41100477D01*
X159565457Y41195715D01*
X159660695Y41386191D01*
X159660695Y41862381D01*
X159565457Y42052858D01*
X159470219Y42148096D01*
X159279742Y42243334D01*
X158898790Y42243334D01*
X158708314Y42148096D01*
X158613076Y42052858D01*
X158517838Y41862381D01*
X160422600Y41576667D02*
X161374980Y41576667D01*
X160232123Y41005239D02*
X160898790Y43005239D01*
X161565457Y41005239D01*
X154962361Y94037781D02*
X156962361Y94704448D01*
X154962361Y95371115D01*
X156390933Y95942543D02*
X156390933Y96894924D01*
X156962361Y95752067D02*
X154962361Y96418734D01*
X156962361Y97085400D01*
X156962361Y98704448D02*
X156962361Y97752067D01*
X154962361Y97752067D01*
X154962361Y99085400D02*
X156962361Y99752067D01*
X154962361Y100418734D01*
X155914742Y101085400D02*
X155914742Y101752067D01*
X156962361Y102037781D02*
X156962361Y101085400D01*
X154962361Y101085400D01*
X154962361Y102037781D01*
X156962361Y103942543D02*
X156962361Y102799686D01*
X156962361Y103371115D02*
X154962361Y103371115D01*
X155248076Y103180639D01*
X155438552Y102990162D01*
X155533790Y102799686D01*
X154911561Y105442381D02*
X156911561Y106109048D01*
X154911561Y106775715D01*
X156340133Y107347143D02*
X156340133Y108299524D01*
X156911561Y107156667D02*
X154911561Y107823334D01*
X156911561Y108490000D01*
X156911561Y110109048D02*
X156911561Y109156667D01*
X154911561Y109156667D01*
X154911561Y110490000D02*
X156911561Y111156667D01*
X154911561Y111823334D01*
X155863942Y112490000D02*
X155863942Y113156667D01*
X156911561Y113442381D02*
X156911561Y112490000D01*
X154911561Y112490000D01*
X154911561Y113442381D01*
X155102038Y114204286D02*
X155006800Y114299524D01*
X154911561Y114490000D01*
X154911561Y114966191D01*
X155006800Y115156667D01*
X155102038Y115251905D01*
X155292514Y115347143D01*
X155482990Y115347143D01*
X155768704Y115251905D01*
X156911561Y114109048D01*
X156911561Y115347143D01*
X7204257Y107301515D02*
X7204257Y106634848D01*
X6156638Y106349134D02*
X6156638Y107301515D01*
X8156638Y107301515D01*
X8156638Y106349134D01*
X6251876Y105587229D02*
X6156638Y105301515D01*
X6156638Y104825324D01*
X6251876Y104634848D01*
X6347114Y104539610D01*
X6537590Y104444372D01*
X6728066Y104444372D01*
X6918542Y104539610D01*
X7013780Y104634848D01*
X7109019Y104825324D01*
X7204257Y105206277D01*
X7299495Y105396753D01*
X7394733Y105491991D01*
X7585209Y105587229D01*
X7775685Y105587229D01*
X7966161Y105491991D01*
X8061400Y105396753D01*
X8156638Y105206277D01*
X8156638Y104730086D01*
X8061400Y104444372D01*
X6156638Y103587229D02*
X8156638Y103587229D01*
X8156638Y102825324D01*
X8061400Y102634848D01*
X7966161Y102539610D01*
X7775685Y102444372D01*
X7489971Y102444372D01*
X7299495Y102539610D01*
X7204257Y102634848D01*
X7109019Y102825324D01*
X7109019Y103587229D01*
X6918542Y101587229D02*
X6918542Y100063420D01*
X6156638Y98063420D02*
X6156638Y99206277D01*
X6156638Y98634848D02*
X8156638Y98634848D01*
X7870923Y98825324D01*
X7680447Y99015800D01*
X7585209Y99206277D01*
X7966161Y97301515D02*
X8061400Y97206277D01*
X8156638Y97015800D01*
X8156638Y96539610D01*
X8061400Y96349134D01*
X7966161Y96253896D01*
X7775685Y96158658D01*
X7585209Y96158658D01*
X7299495Y96253896D01*
X6156638Y97396753D01*
X6156638Y96158658D01*
X5006638Y103682467D02*
X3006638Y103206277D01*
X4435209Y102825324D01*
X3006638Y102444372D01*
X5006638Y101968181D01*
X3006638Y101206277D02*
X5006638Y101206277D01*
X4054257Y99587229D02*
X4054257Y100253896D01*
X3006638Y100253896D02*
X5006638Y100253896D01*
X5006638Y99301515D01*
X3006638Y98539610D02*
X5006638Y98539610D01*
X11445857Y91213581D02*
X11445857Y90546915D01*
X10398238Y90261200D02*
X10398238Y91213581D01*
X12398238Y91213581D01*
X12398238Y90261200D01*
X10398238Y89404058D02*
X12398238Y89404058D01*
X10398238Y88261200D01*
X12398238Y88261200D01*
X10398238Y87308820D02*
X12398238Y87308820D01*
X12398238Y86832629D01*
X12303000Y86546915D01*
X12112523Y86356439D01*
X11922047Y86261200D01*
X11541095Y86165962D01*
X11255380Y86165962D01*
X10874428Y86261200D01*
X10683952Y86356439D01*
X10493476Y86546915D01*
X10398238Y86832629D01*
X10398238Y87308820D01*
X10207761Y85785010D02*
X10207761Y84261200D01*
X10493476Y83880248D02*
X10398238Y83594534D01*
X10398238Y83118343D01*
X10493476Y82927867D01*
X10588714Y82832629D01*
X10779190Y82737391D01*
X10969666Y82737391D01*
X11160142Y82832629D01*
X11255380Y82927867D01*
X11350619Y83118343D01*
X11445857Y83499296D01*
X11541095Y83689772D01*
X11636333Y83785010D01*
X11826809Y83880248D01*
X12017285Y83880248D01*
X12207761Y83785010D01*
X12303000Y83689772D01*
X12398238Y83499296D01*
X12398238Y83023105D01*
X12303000Y82737391D01*
X12398238Y82165962D02*
X12398238Y81023105D01*
X10398238Y81594534D02*
X12398238Y81594534D01*
X12398238Y79975486D02*
X12398238Y79594534D01*
X12303000Y79404058D01*
X12112523Y79213581D01*
X11731571Y79118343D01*
X11064904Y79118343D01*
X10683952Y79213581D01*
X10493476Y79404058D01*
X10398238Y79594534D01*
X10398238Y79975486D01*
X10493476Y80165962D01*
X10683952Y80356439D01*
X11064904Y80451677D01*
X11731571Y80451677D01*
X12112523Y80356439D01*
X12303000Y80165962D01*
X12398238Y79975486D01*
X10398238Y78261200D02*
X12398238Y78261200D01*
X12398238Y77499296D01*
X12303000Y77308820D01*
X12207761Y77213581D01*
X12017285Y77118343D01*
X11731571Y77118343D01*
X11541095Y77213581D01*
X11445857Y77308820D01*
X11350619Y77499296D01*
X11350619Y78261200D01*
X10398238Y75213581D02*
X10398238Y76356439D01*
X10398238Y75785010D02*
X12398238Y75785010D01*
X12112523Y75975486D01*
X11922047Y76165962D01*
X11826809Y76356439D01*
X8956657Y80520181D02*
X8956657Y79853515D01*
X7909038Y79567800D02*
X7909038Y80520181D01*
X9909038Y80520181D01*
X9909038Y79567800D01*
X7909038Y78710658D02*
X9909038Y78710658D01*
X7909038Y77567800D01*
X9909038Y77567800D01*
X7909038Y76615420D02*
X9909038Y76615420D01*
X9909038Y76139229D01*
X9813800Y75853515D01*
X9623323Y75663039D01*
X9432847Y75567800D01*
X9051895Y75472562D01*
X8766180Y75472562D01*
X8385228Y75567800D01*
X8194752Y75663039D01*
X8004276Y75853515D01*
X7909038Y76139229D01*
X7909038Y76615420D01*
X7718561Y75091610D02*
X7718561Y73567800D01*
X8004276Y73186848D02*
X7909038Y72901134D01*
X7909038Y72424943D01*
X8004276Y72234467D01*
X8099514Y72139229D01*
X8289990Y72043991D01*
X8480466Y72043991D01*
X8670942Y72139229D01*
X8766180Y72234467D01*
X8861419Y72424943D01*
X8956657Y72805896D01*
X9051895Y72996372D01*
X9147133Y73091610D01*
X9337609Y73186848D01*
X9528085Y73186848D01*
X9718561Y73091610D01*
X9813800Y72996372D01*
X9909038Y72805896D01*
X9909038Y72329705D01*
X9813800Y72043991D01*
X9909038Y71472562D02*
X9909038Y70329705D01*
X7909038Y70901134D02*
X9909038Y70901134D01*
X9909038Y69282086D02*
X9909038Y68901134D01*
X9813800Y68710658D01*
X9623323Y68520181D01*
X9242371Y68424943D01*
X8575704Y68424943D01*
X8194752Y68520181D01*
X8004276Y68710658D01*
X7909038Y68901134D01*
X7909038Y69282086D01*
X8004276Y69472562D01*
X8194752Y69663039D01*
X8575704Y69758277D01*
X9242371Y69758277D01*
X9623323Y69663039D01*
X9813800Y69472562D01*
X9909038Y69282086D01*
X7909038Y67567800D02*
X9909038Y67567800D01*
X9909038Y66805896D01*
X9813800Y66615420D01*
X9718561Y66520181D01*
X9528085Y66424943D01*
X9242371Y66424943D01*
X9051895Y66520181D01*
X8956657Y66615420D01*
X8861419Y66805896D01*
X8861419Y67567800D01*
X9718561Y65663039D02*
X9813800Y65567800D01*
X9909038Y65377324D01*
X9909038Y64901134D01*
X9813800Y64710658D01*
X9718561Y64615420D01*
X9528085Y64520181D01*
X9337609Y64520181D01*
X9051895Y64615420D01*
X7909038Y65758277D01*
X7909038Y64520181D01*
X9261457Y57622153D02*
X9261457Y58288820D01*
X8213838Y58288820D02*
X10213838Y58288820D01*
X10213838Y57336439D01*
X8213838Y55622153D02*
X8213838Y56574534D01*
X10213838Y56574534D01*
X10213838Y54574534D02*
X10213838Y54193581D01*
X10118600Y54003105D01*
X9928123Y53812629D01*
X9547171Y53717391D01*
X8880504Y53717391D01*
X8499552Y53812629D01*
X8309076Y54003105D01*
X8213838Y54193581D01*
X8213838Y54574534D01*
X8309076Y54765010D01*
X8499552Y54955486D01*
X8880504Y55050724D01*
X9547171Y55050724D01*
X9928123Y54955486D01*
X10118600Y54765010D01*
X10213838Y54574534D01*
X10213838Y53050724D02*
X8213838Y52574534D01*
X9642409Y52193581D01*
X8213838Y51812629D01*
X10213838Y51336439D01*
X8023361Y51050724D02*
X8023361Y49526915D01*
X8309076Y49145962D02*
X8213838Y48860248D01*
X8213838Y48384058D01*
X8309076Y48193581D01*
X8404314Y48098343D01*
X8594790Y48003105D01*
X8785266Y48003105D01*
X8975742Y48098343D01*
X9070980Y48193581D01*
X9166219Y48384058D01*
X9261457Y48765010D01*
X9356695Y48955486D01*
X9451933Y49050724D01*
X9642409Y49145962D01*
X9832885Y49145962D01*
X10023361Y49050724D01*
X10118600Y48955486D01*
X10213838Y48765010D01*
X10213838Y48288820D01*
X10118600Y48003105D01*
X8213838Y47145962D02*
X10213838Y47145962D01*
X8213838Y46003105D01*
X10213838Y46003105D01*
X8309076Y45145962D02*
X8213838Y44860248D01*
X8213838Y44384058D01*
X8309076Y44193581D01*
X8404314Y44098343D01*
X8594790Y44003105D01*
X8785266Y44003105D01*
X8975742Y44098343D01*
X9070980Y44193581D01*
X9166219Y44384058D01*
X9261457Y44765010D01*
X9356695Y44955486D01*
X9451933Y45050724D01*
X9642409Y45145962D01*
X9832885Y45145962D01*
X10023361Y45050724D01*
X10118600Y44955486D01*
X10213838Y44765010D01*
X10213838Y44288820D01*
X10118600Y44003105D01*
X10023361Y43241200D02*
X10118600Y43145962D01*
X10213838Y42955486D01*
X10213838Y42479296D01*
X10118600Y42288820D01*
X10023361Y42193581D01*
X9832885Y42098343D01*
X9642409Y42098343D01*
X9356695Y42193581D01*
X8213838Y43336439D01*
X8213838Y42098343D01*
X9185257Y38267353D02*
X9185257Y38934020D01*
X8137638Y38934020D02*
X10137638Y38934020D01*
X10137638Y37981639D01*
X8137638Y36267353D02*
X8137638Y37219734D01*
X10137638Y37219734D01*
X10137638Y35219734D02*
X10137638Y34838781D01*
X10042400Y34648305D01*
X9851923Y34457829D01*
X9470971Y34362591D01*
X8804304Y34362591D01*
X8423352Y34457829D01*
X8232876Y34648305D01*
X8137638Y34838781D01*
X8137638Y35219734D01*
X8232876Y35410210D01*
X8423352Y35600686D01*
X8804304Y35695924D01*
X9470971Y35695924D01*
X9851923Y35600686D01*
X10042400Y35410210D01*
X10137638Y35219734D01*
X10137638Y33695924D02*
X8137638Y33219734D01*
X9566209Y32838781D01*
X8137638Y32457829D01*
X10137638Y31981639D01*
X7947161Y31695924D02*
X7947161Y30172115D01*
X8232876Y29791162D02*
X8137638Y29505448D01*
X8137638Y29029258D01*
X8232876Y28838781D01*
X8328114Y28743543D01*
X8518590Y28648305D01*
X8709066Y28648305D01*
X8899542Y28743543D01*
X8994780Y28838781D01*
X9090019Y29029258D01*
X9185257Y29410210D01*
X9280495Y29600686D01*
X9375733Y29695924D01*
X9566209Y29791162D01*
X9756685Y29791162D01*
X9947161Y29695924D01*
X10042400Y29600686D01*
X10137638Y29410210D01*
X10137638Y28934020D01*
X10042400Y28648305D01*
X8137638Y27791162D02*
X10137638Y27791162D01*
X8137638Y26648305D01*
X10137638Y26648305D01*
X8232876Y25791162D02*
X8137638Y25505448D01*
X8137638Y25029258D01*
X8232876Y24838781D01*
X8328114Y24743543D01*
X8518590Y24648305D01*
X8709066Y24648305D01*
X8899542Y24743543D01*
X8994780Y24838781D01*
X9090019Y25029258D01*
X9185257Y25410210D01*
X9280495Y25600686D01*
X9375733Y25695924D01*
X9566209Y25791162D01*
X9756685Y25791162D01*
X9947161Y25695924D01*
X10042400Y25600686D01*
X10137638Y25410210D01*
X10137638Y24934020D01*
X10042400Y24648305D01*
X8137638Y22743543D02*
X8137638Y23886400D01*
X8137638Y23314972D02*
X10137638Y23314972D01*
X9851923Y23505448D01*
X9661447Y23695924D01*
X9566209Y23886400D01*
X115815361Y11331677D02*
X116101076Y11236439D01*
X116577266Y11236439D01*
X116767742Y11331677D01*
X116862980Y11426915D01*
X116958219Y11617391D01*
X116958219Y11807867D01*
X116862980Y11998343D01*
X116767742Y12093581D01*
X116577266Y12188820D01*
X116196314Y12284058D01*
X116005838Y12379296D01*
X115910600Y12474534D01*
X115815361Y12665010D01*
X115815361Y12855486D01*
X115910600Y13045962D01*
X116005838Y13141200D01*
X116196314Y13236439D01*
X116672504Y13236439D01*
X116958219Y13141200D01*
X117529647Y13236439D02*
X118672504Y13236439D01*
X118101076Y11236439D02*
X118101076Y13236439D01*
X119339171Y12284058D02*
X120005838Y12284058D01*
X120291552Y11236439D02*
X119339171Y11236439D01*
X119339171Y13236439D01*
X120291552Y13236439D01*
X121148695Y11236439D02*
X121148695Y13236439D01*
X121910600Y13236439D01*
X122101076Y13141200D01*
X122196314Y13045962D01*
X122291552Y12855486D01*
X122291552Y12569772D01*
X122196314Y12379296D01*
X122101076Y12284058D01*
X121910600Y12188820D01*
X121148695Y12188820D01*
X123148695Y11236439D02*
X123148695Y13236439D01*
X123910600Y13236439D01*
X124101076Y13141200D01*
X124196314Y13045962D01*
X124291552Y12855486D01*
X124291552Y12569772D01*
X124196314Y12379296D01*
X124101076Y12284058D01*
X123910600Y12188820D01*
X123148695Y12188820D01*
X125148695Y12284058D02*
X125815361Y12284058D01*
X126101076Y11236439D02*
X125148695Y11236439D01*
X125148695Y13236439D01*
X126101076Y13236439D01*
X128101076Y11236439D02*
X127434409Y12188820D01*
X126958219Y11236439D02*
X126958219Y13236439D01*
X127720123Y13236439D01*
X127910600Y13141200D01*
X128005838Y13045962D01*
X128101076Y12855486D01*
X128101076Y12569772D01*
X128005838Y12379296D01*
X127910600Y12284058D01*
X127720123Y12188820D01*
X126958219Y12188820D01*
X130005838Y11236439D02*
X128862980Y11236439D01*
X129434409Y11236439D02*
X129434409Y13236439D01*
X129243933Y12950724D01*
X129053457Y12760248D01*
X128862980Y12665010D01*
X85309961Y11331677D02*
X85595676Y11236439D01*
X86071866Y11236439D01*
X86262342Y11331677D01*
X86357580Y11426915D01*
X86452819Y11617391D01*
X86452819Y11807867D01*
X86357580Y11998343D01*
X86262342Y12093581D01*
X86071866Y12188820D01*
X85690914Y12284058D01*
X85500438Y12379296D01*
X85405200Y12474534D01*
X85309961Y12665010D01*
X85309961Y12855486D01*
X85405200Y13045962D01*
X85500438Y13141200D01*
X85690914Y13236439D01*
X86167104Y13236439D01*
X86452819Y13141200D01*
X87024247Y13236439D02*
X88167104Y13236439D01*
X87595676Y11236439D02*
X87595676Y13236439D01*
X88833771Y12284058D02*
X89500438Y12284058D01*
X89786152Y11236439D02*
X88833771Y11236439D01*
X88833771Y13236439D01*
X89786152Y13236439D01*
X90643295Y11236439D02*
X90643295Y13236439D01*
X91405200Y13236439D01*
X91595676Y13141200D01*
X91690914Y13045962D01*
X91786152Y12855486D01*
X91786152Y12569772D01*
X91690914Y12379296D01*
X91595676Y12284058D01*
X91405200Y12188820D01*
X90643295Y12188820D01*
X92643295Y11236439D02*
X92643295Y13236439D01*
X93405200Y13236439D01*
X93595676Y13141200D01*
X93690914Y13045962D01*
X93786152Y12855486D01*
X93786152Y12569772D01*
X93690914Y12379296D01*
X93595676Y12284058D01*
X93405200Y12188820D01*
X92643295Y12188820D01*
X94643295Y12284058D02*
X95309961Y12284058D01*
X95595676Y11236439D02*
X94643295Y11236439D01*
X94643295Y13236439D01*
X95595676Y13236439D01*
X97595676Y11236439D02*
X96929009Y12188820D01*
X96452819Y11236439D02*
X96452819Y13236439D01*
X97214723Y13236439D01*
X97405200Y13141200D01*
X97500438Y13045962D01*
X97595676Y12855486D01*
X97595676Y12569772D01*
X97500438Y12379296D01*
X97405200Y12284058D01*
X97214723Y12188820D01*
X96452819Y12188820D01*
X98357580Y13045962D02*
X98452819Y13141200D01*
X98643295Y13236439D01*
X99119485Y13236439D01*
X99309961Y13141200D01*
X99405200Y13045962D01*
X99500438Y12855486D01*
X99500438Y12665010D01*
X99405200Y12379296D01*
X98262342Y11236439D01*
X99500438Y11236439D01*
X13473019Y7680439D02*
X13473019Y9680439D01*
X14234923Y9680439D01*
X14425400Y9585200D01*
X14520638Y9489962D01*
X14615876Y9299486D01*
X14615876Y9013772D01*
X14520638Y8823296D01*
X14425400Y8728058D01*
X14234923Y8632820D01*
X13473019Y8632820D01*
X16615876Y7680439D02*
X15949209Y8632820D01*
X15473019Y7680439D02*
X15473019Y9680439D01*
X16234923Y9680439D01*
X16425400Y9585200D01*
X16520638Y9489962D01*
X16615876Y9299486D01*
X16615876Y9013772D01*
X16520638Y8823296D01*
X16425400Y8728058D01*
X16234923Y8632820D01*
X15473019Y8632820D01*
X17473019Y8728058D02*
X18139685Y8728058D01*
X18425400Y7680439D02*
X17473019Y7680439D01*
X17473019Y9680439D01*
X18425400Y9680439D01*
X19187304Y7775677D02*
X19473019Y7680439D01*
X19949209Y7680439D01*
X20139685Y7775677D01*
X20234923Y7870915D01*
X20330161Y8061391D01*
X20330161Y8251867D01*
X20234923Y8442343D01*
X20139685Y8537581D01*
X19949209Y8632820D01*
X19568257Y8728058D01*
X19377780Y8823296D01*
X19282542Y8918534D01*
X19187304Y9109010D01*
X19187304Y9299486D01*
X19282542Y9489962D01*
X19377780Y9585200D01*
X19568257Y9680439D01*
X20044447Y9680439D01*
X20330161Y9585200D01*
X21092066Y7775677D02*
X21377780Y7680439D01*
X21853971Y7680439D01*
X22044447Y7775677D01*
X22139685Y7870915D01*
X22234923Y8061391D01*
X22234923Y8251867D01*
X22139685Y8442343D01*
X22044447Y8537581D01*
X21853971Y8632820D01*
X21473019Y8728058D01*
X21282542Y8823296D01*
X21187304Y8918534D01*
X21092066Y9109010D01*
X21092066Y9299486D01*
X21187304Y9489962D01*
X21282542Y9585200D01*
X21473019Y9680439D01*
X21949209Y9680439D01*
X22234923Y9585200D01*
X23092066Y9680439D02*
X23092066Y8061391D01*
X23187304Y7870915D01*
X23282542Y7775677D01*
X23473019Y7680439D01*
X23853971Y7680439D01*
X24044447Y7775677D01*
X24139685Y7870915D01*
X24234923Y8061391D01*
X24234923Y9680439D01*
X26330161Y7680439D02*
X25663495Y8632820D01*
X25187304Y7680439D02*
X25187304Y9680439D01*
X25949209Y9680439D01*
X26139685Y9585200D01*
X26234923Y9489962D01*
X26330161Y9299486D01*
X26330161Y9013772D01*
X26234923Y8823296D01*
X26139685Y8728058D01*
X25949209Y8632820D01*
X25187304Y8632820D01*
X27187304Y8728058D02*
X27853971Y8728058D01*
X28139685Y7680439D02*
X27187304Y7680439D01*
X27187304Y9680439D01*
X28139685Y9680439D01*
X28520638Y7489962D02*
X30044447Y7489962D01*
X30425400Y7775677D02*
X30711114Y7680439D01*
X31187304Y7680439D01*
X31377780Y7775677D01*
X31473019Y7870915D01*
X31568257Y8061391D01*
X31568257Y8251867D01*
X31473019Y8442343D01*
X31377780Y8537581D01*
X31187304Y8632820D01*
X30806352Y8728058D01*
X30615876Y8823296D01*
X30520638Y8918534D01*
X30425400Y9109010D01*
X30425400Y9299486D01*
X30520638Y9489962D01*
X30615876Y9585200D01*
X30806352Y9680439D01*
X31282542Y9680439D01*
X31568257Y9585200D01*
X32425400Y7680439D02*
X32425400Y9680439D01*
X33568257Y7680439D01*
X33568257Y9680439D01*
X34425399Y7775677D02*
X34711114Y7680439D01*
X35187304Y7680439D01*
X35377780Y7775677D01*
X35473019Y7870915D01*
X35568257Y8061391D01*
X35568257Y8251867D01*
X35473019Y8442343D01*
X35377780Y8537581D01*
X35187304Y8632820D01*
X34806352Y8728058D01*
X34615876Y8823296D01*
X34520638Y8918534D01*
X34425399Y9109010D01*
X34425399Y9299486D01*
X34520638Y9489962D01*
X34615876Y9585200D01*
X34806352Y9680439D01*
X35282542Y9680439D01*
X35568257Y9585200D01*
X37473019Y7680439D02*
X36330161Y7680439D01*
X36901590Y7680439D02*
X36901590Y9680439D01*
X36711114Y9394724D01*
X36520638Y9204248D01*
X36330161Y9109010D01*
X40981219Y7553439D02*
X40981219Y9553439D01*
X41743123Y9553439D01*
X41933600Y9458200D01*
X42028838Y9362962D01*
X42124076Y9172486D01*
X42124076Y8886772D01*
X42028838Y8696296D01*
X41933600Y8601058D01*
X41743123Y8505820D01*
X40981219Y8505820D01*
X44124076Y7553439D02*
X43457409Y8505820D01*
X42981219Y7553439D02*
X42981219Y9553439D01*
X43743123Y9553439D01*
X43933600Y9458200D01*
X44028838Y9362962D01*
X44124076Y9172486D01*
X44124076Y8886772D01*
X44028838Y8696296D01*
X43933600Y8601058D01*
X43743123Y8505820D01*
X42981219Y8505820D01*
X44981219Y8601058D02*
X45647885Y8601058D01*
X45933600Y7553439D02*
X44981219Y7553439D01*
X44981219Y9553439D01*
X45933600Y9553439D01*
X46695504Y7648677D02*
X46981219Y7553439D01*
X47457409Y7553439D01*
X47647885Y7648677D01*
X47743123Y7743915D01*
X47838361Y7934391D01*
X47838361Y8124867D01*
X47743123Y8315343D01*
X47647885Y8410581D01*
X47457409Y8505820D01*
X47076457Y8601058D01*
X46885980Y8696296D01*
X46790742Y8791534D01*
X46695504Y8982010D01*
X46695504Y9172486D01*
X46790742Y9362962D01*
X46885980Y9458200D01*
X47076457Y9553439D01*
X47552647Y9553439D01*
X47838361Y9458200D01*
X48600266Y7648677D02*
X48885980Y7553439D01*
X49362171Y7553439D01*
X49552647Y7648677D01*
X49647885Y7743915D01*
X49743123Y7934391D01*
X49743123Y8124867D01*
X49647885Y8315343D01*
X49552647Y8410581D01*
X49362171Y8505820D01*
X48981219Y8601058D01*
X48790742Y8696296D01*
X48695504Y8791534D01*
X48600266Y8982010D01*
X48600266Y9172486D01*
X48695504Y9362962D01*
X48790742Y9458200D01*
X48981219Y9553439D01*
X49457409Y9553439D01*
X49743123Y9458200D01*
X50600266Y9553439D02*
X50600266Y7934391D01*
X50695504Y7743915D01*
X50790742Y7648677D01*
X50981219Y7553439D01*
X51362171Y7553439D01*
X51552647Y7648677D01*
X51647885Y7743915D01*
X51743123Y7934391D01*
X51743123Y9553439D01*
X53838361Y7553439D02*
X53171695Y8505820D01*
X52695504Y7553439D02*
X52695504Y9553439D01*
X53457409Y9553439D01*
X53647885Y9458200D01*
X53743123Y9362962D01*
X53838361Y9172486D01*
X53838361Y8886772D01*
X53743123Y8696296D01*
X53647885Y8601058D01*
X53457409Y8505820D01*
X52695504Y8505820D01*
X54695504Y8601058D02*
X55362171Y8601058D01*
X55647885Y7553439D02*
X54695504Y7553439D01*
X54695504Y9553439D01*
X55647885Y9553439D01*
X56028838Y7362962D02*
X57552647Y7362962D01*
X57933600Y7648677D02*
X58219314Y7553439D01*
X58695504Y7553439D01*
X58885980Y7648677D01*
X58981219Y7743915D01*
X59076457Y7934391D01*
X59076457Y8124867D01*
X58981219Y8315343D01*
X58885980Y8410581D01*
X58695504Y8505820D01*
X58314552Y8601058D01*
X58124076Y8696296D01*
X58028838Y8791534D01*
X57933600Y8982010D01*
X57933600Y9172486D01*
X58028838Y9362962D01*
X58124076Y9458200D01*
X58314552Y9553439D01*
X58790742Y9553439D01*
X59076457Y9458200D01*
X59933600Y7553439D02*
X59933600Y9553439D01*
X61076457Y7553439D01*
X61076457Y9553439D01*
X61933599Y7648677D02*
X62219314Y7553439D01*
X62695504Y7553439D01*
X62885980Y7648677D01*
X62981219Y7743915D01*
X63076457Y7934391D01*
X63076457Y8124867D01*
X62981219Y8315343D01*
X62885980Y8410581D01*
X62695504Y8505820D01*
X62314552Y8601058D01*
X62124076Y8696296D01*
X62028838Y8791534D01*
X61933599Y8982010D01*
X61933599Y9172486D01*
X62028838Y9362962D01*
X62124076Y9458200D01*
X62314552Y9553439D01*
X62790742Y9553439D01*
X63076457Y9458200D01*
X63838361Y9362962D02*
X63933599Y9458200D01*
X64124076Y9553439D01*
X64600266Y9553439D01*
X64790742Y9458200D01*
X64885980Y9362962D01*
X64981219Y9172486D01*
X64981219Y8982010D01*
X64885980Y8696296D01*
X63743123Y7553439D01*
X64981219Y7553439D01*
X145952152Y122742439D02*
X145952152Y124742439D01*
X146714057Y124742439D01*
X146904533Y124647200D01*
X146999771Y124551962D01*
X147095009Y124361486D01*
X147095009Y124075772D01*
X146999771Y123885296D01*
X146904533Y123790058D01*
X146714057Y123694820D01*
X145952152Y123694820D01*
X148333104Y124742439D02*
X148714057Y124742439D01*
X148904533Y124647200D01*
X149095009Y124456724D01*
X149190247Y124075772D01*
X149190247Y123409105D01*
X149095009Y123028153D01*
X148904533Y122837677D01*
X148714057Y122742439D01*
X148333104Y122742439D01*
X148142628Y122837677D01*
X147952152Y123028153D01*
X147856914Y123409105D01*
X147856914Y124075772D01*
X147952152Y124456724D01*
X148142628Y124647200D01*
X148333104Y124742439D01*
X149856914Y124742439D02*
X150333104Y122742439D01*
X150714057Y124171010D01*
X151095009Y122742439D01*
X151571200Y124742439D01*
X152333104Y123790058D02*
X152999771Y123790058D01*
X153285485Y122742439D02*
X152333104Y122742439D01*
X152333104Y124742439D01*
X153285485Y124742439D01*
X155285485Y122742439D02*
X154618819Y123694820D01*
X154142628Y122742439D02*
X154142628Y124742439D01*
X154904533Y124742439D01*
X155095009Y124647200D01*
X155190247Y124551962D01*
X155285485Y124361486D01*
X155285485Y124075772D01*
X155190247Y123885296D01*
X155095009Y123790058D01*
X154904533Y123694820D01*
X154142628Y123694820D01*
X133832933Y124742439D02*
X134309123Y122742439D01*
X134690076Y124171010D01*
X135071028Y122742439D01*
X135547219Y124742439D01*
X136309123Y122742439D02*
X136309123Y124742439D01*
X137928171Y123790058D02*
X137261504Y123790058D01*
X137261504Y122742439D02*
X137261504Y124742439D01*
X138213885Y124742439D01*
X138975790Y122742439D02*
X138975790Y124742439D01*
X118167685Y123313867D02*
X119120066Y123313867D01*
X117977209Y122742439D02*
X118643876Y124742439D01*
X119310542Y122742439D01*
X120929590Y122742439D02*
X119977209Y122742439D01*
X119977209Y124742439D01*
X121501019Y123313867D02*
X122453400Y123313867D01*
X121310542Y122742439D02*
X121977209Y124742439D01*
X122643876Y122742439D01*
X124453400Y122742439D02*
X123786733Y123694820D01*
X123310542Y122742439D02*
X123310542Y124742439D01*
X124072447Y124742439D01*
X124262923Y124647200D01*
X124358161Y124551962D01*
X124453400Y124361486D01*
X124453400Y124075772D01*
X124358161Y123885296D01*
X124262923Y123790058D01*
X124072447Y123694820D01*
X123310542Y123694820D01*
X125310542Y122742439D02*
X125310542Y124742439D01*
X125977209Y123313867D01*
X126643876Y124742439D01*
X126643876Y122742439D01*
X135690171Y112499639D02*
X135690171Y110880591D01*
X135785409Y110690115D01*
X135880647Y110594877D01*
X136071123Y110499639D01*
X136452076Y110499639D01*
X136642552Y110594877D01*
X136737790Y110690115D01*
X136833028Y110880591D01*
X136833028Y112499639D01*
X137785409Y110499639D02*
X137785409Y112499639D01*
X138547314Y112499639D01*
X138737790Y112404400D01*
X138833028Y112309162D01*
X138928266Y112118686D01*
X138928266Y111832972D01*
X138833028Y111642496D01*
X138737790Y111547258D01*
X138547314Y111452020D01*
X137785409Y111452020D01*
X116205238Y79079839D02*
X115252857Y79079839D01*
X115252857Y81079839D01*
X116871904Y80127458D02*
X117538571Y80127458D01*
X117824285Y79079839D02*
X116871904Y79079839D01*
X116871904Y81079839D01*
X117824285Y81079839D01*
X119348095Y80127458D02*
X118681428Y80127458D01*
X118681428Y79079839D02*
X118681428Y81079839D01*
X119633809Y81079839D01*
X120110000Y81079839D02*
X121252857Y81079839D01*
X120681428Y79079839D02*
X120681428Y81079839D01*
X150901733Y79537039D02*
X150235066Y80489420D01*
X149758876Y79537039D02*
X149758876Y81537039D01*
X150520780Y81537039D01*
X150711257Y81441800D01*
X150806495Y81346562D01*
X150901733Y81156086D01*
X150901733Y80870372D01*
X150806495Y80679896D01*
X150711257Y80584658D01*
X150520780Y80489420D01*
X149758876Y80489420D01*
X151758876Y79537039D02*
X151758876Y81537039D01*
X153758876Y81441800D02*
X153568400Y81537039D01*
X153282685Y81537039D01*
X152996971Y81441800D01*
X152806495Y81251324D01*
X152711257Y81060848D01*
X152616019Y80679896D01*
X152616019Y80394181D01*
X152711257Y80013229D01*
X152806495Y79822753D01*
X152996971Y79632277D01*
X153282685Y79537039D01*
X153473161Y79537039D01*
X153758876Y79632277D01*
X153854114Y79727515D01*
X153854114Y80394181D01*
X153473161Y80394181D01*
X154711257Y79537039D02*
X154711257Y81537039D01*
X154711257Y80584658D02*
X155854114Y80584658D01*
X155854114Y79537039D02*
X155854114Y81537039D01*
X156520780Y81537039D02*
X157663638Y81537039D01*
X157092209Y79537039D02*
X157092209Y81537039D01*
X124660495Y69427839D02*
X124660495Y71427839D01*
X125136685Y71427839D01*
X125422400Y71332600D01*
X125612876Y71142124D01*
X125708114Y70951648D01*
X125803352Y70570696D01*
X125803352Y70284981D01*
X125708114Y69904029D01*
X125612876Y69713553D01*
X125422400Y69523077D01*
X125136685Y69427839D01*
X124660495Y69427839D01*
X127041447Y71427839D02*
X127422400Y71427839D01*
X127612876Y71332600D01*
X127803352Y71142124D01*
X127898590Y70761172D01*
X127898590Y70094505D01*
X127803352Y69713553D01*
X127612876Y69523077D01*
X127422400Y69427839D01*
X127041447Y69427839D01*
X126850971Y69523077D01*
X126660495Y69713553D01*
X126565257Y70094505D01*
X126565257Y70761172D01*
X126660495Y71142124D01*
X126850971Y71332600D01*
X127041447Y71427839D01*
X128565257Y71427839D02*
X129041447Y69427839D01*
X129422400Y70856410D01*
X129803352Y69427839D01*
X130279542Y71427839D01*
X131041447Y69427839D02*
X131041447Y71427839D01*
X132184304Y69427839D01*
X132184304Y71427839D01*
X33439790Y13230267D02*
X34392171Y13230267D01*
X33249314Y12658839D02*
X33915980Y14658839D01*
X34582647Y12658839D01*
X35154076Y12754077D02*
X35439790Y12658839D01*
X35915980Y12658839D01*
X36106457Y12754077D01*
X36201695Y12849315D01*
X36296933Y13039791D01*
X36296933Y13230267D01*
X36201695Y13420743D01*
X36106457Y13515981D01*
X35915980Y13611220D01*
X35535028Y13706458D01*
X35344552Y13801696D01*
X35249314Y13896934D01*
X35154076Y14087410D01*
X35154076Y14277886D01*
X35249314Y14468362D01*
X35344552Y14563600D01*
X35535028Y14658839D01*
X36011219Y14658839D01*
X36296933Y14563600D01*
X37154076Y12658839D02*
X37154076Y14658839D01*
X38011219Y12754077D02*
X38296933Y12658839D01*
X38773123Y12658839D01*
X38963600Y12754077D01*
X39058838Y12849315D01*
X39154076Y13039791D01*
X39154076Y13230267D01*
X39058838Y13420743D01*
X38963600Y13515981D01*
X38773123Y13611220D01*
X38392171Y13706458D01*
X38201695Y13801696D01*
X38106457Y13896934D01*
X38011219Y14087410D01*
X38011219Y14277886D01*
X38106457Y14468362D01*
X38201695Y14563600D01*
X38392171Y14658839D01*
X38868361Y14658839D01*
X39154076Y14563600D01*
X39725504Y14658839D02*
X40868361Y14658839D01*
X40296933Y12658839D02*
X40296933Y14658839D01*
X41535028Y13706458D02*
X42201695Y13706458D01*
X42487409Y12658839D02*
X41535028Y12658839D01*
X41535028Y14658839D01*
X42487409Y14658839D01*
X43344552Y12658839D02*
X43344552Y14658839D01*
X43820742Y14658839D01*
X44106457Y14563600D01*
X44296933Y14373124D01*
X44392171Y14182648D01*
X44487409Y13801696D01*
X44487409Y13515981D01*
X44392171Y13135029D01*
X44296933Y12944553D01*
X44106457Y12754077D01*
X43820742Y12658839D01*
X43344552Y12658839D01*
X35579466Y38325467D02*
X36531847Y38325467D01*
X35388990Y37754039D02*
X36055657Y39754039D01*
X36722323Y37754039D01*
X37388990Y39754039D02*
X37388990Y38134991D01*
X37484228Y37944515D01*
X37579466Y37849277D01*
X37769942Y37754039D01*
X38150895Y37754039D01*
X38341371Y37849277D01*
X38436609Y37944515D01*
X38531847Y38134991D01*
X38531847Y39754039D01*
X39198514Y39754039D02*
X40341371Y39754039D01*
X39769942Y37754039D02*
X39769942Y39754039D01*
X41388990Y39754039D02*
X41769942Y39754039D01*
X41960419Y39658800D01*
X42150895Y39468324D01*
X42246133Y39087372D01*
X42246133Y38420705D01*
X42150895Y38039753D01*
X41960419Y37849277D01*
X41769942Y37754039D01*
X41388990Y37754039D01*
X41198514Y37849277D01*
X41008038Y38039753D01*
X40912800Y38420705D01*
X40912800Y39087372D01*
X41008038Y39468324D01*
X41198514Y39658800D01*
X41388990Y39754039D01*
X62545104Y39754039D02*
X63211771Y37754039D01*
X63878438Y39754039D01*
X64545104Y38801658D02*
X65211771Y38801658D01*
X65497485Y37754039D02*
X64545104Y37754039D01*
X64545104Y39754039D01*
X65497485Y39754039D01*
X66354628Y37754039D02*
X66354628Y39754039D01*
X67497485Y37754039D01*
X67497485Y39754039D01*
X68164152Y39754039D02*
X69307009Y39754039D01*
X68735580Y37754039D02*
X68735580Y39754039D01*
X69497485Y37563562D02*
X71021295Y37563562D01*
X71878438Y39754039D02*
X72259390Y39754039D01*
X72449866Y39658800D01*
X72640342Y39468324D01*
X72735580Y39087372D01*
X72735580Y38420705D01*
X72640342Y38039753D01*
X72449866Y37849277D01*
X72259390Y37754039D01*
X71878438Y37754039D01*
X71687961Y37849277D01*
X71497485Y38039753D01*
X71402247Y38420705D01*
X71402247Y39087372D01*
X71497485Y39468324D01*
X71687961Y39658800D01*
X71878438Y39754039D01*
X73592723Y37754039D02*
X73592723Y39754039D01*
X74735580Y37754039D01*
X74735580Y39754039D01*
X91840514Y56721239D02*
X92983371Y56721239D01*
X92411942Y54721239D02*
X92411942Y56721239D01*
X93650038Y54721239D02*
X93650038Y56721239D01*
X94602419Y54721239D02*
X94602419Y56721239D01*
X95078609Y56721239D01*
X95364323Y56626000D01*
X95554800Y56435524D01*
X95650038Y56245048D01*
X95745276Y55864096D01*
X95745276Y55578381D01*
X95650038Y55197429D01*
X95554800Y55006953D01*
X95364323Y54816477D01*
X95078609Y54721239D01*
X94602419Y54721239D01*
X96507180Y55292667D02*
X97459561Y55292667D01*
X96316704Y54721239D02*
X96983371Y56721239D01*
X97650038Y54721239D01*
X99269085Y54721239D02*
X98316704Y54721239D01*
X98316704Y56721239D01*
X60712600Y55768858D02*
X60998314Y55673620D01*
X61093552Y55578381D01*
X61188790Y55387905D01*
X61188790Y55102191D01*
X61093552Y54911715D01*
X60998314Y54816477D01*
X60807838Y54721239D01*
X60045933Y54721239D01*
X60045933Y56721239D01*
X60712600Y56721239D01*
X60903076Y56626000D01*
X60998314Y56530762D01*
X61093552Y56340286D01*
X61093552Y56149810D01*
X60998314Y55959334D01*
X60903076Y55864096D01*
X60712600Y55768858D01*
X60045933Y55768858D01*
X62045933Y54721239D02*
X62045933Y56721239D01*
X62712600Y55292667D01*
X63379266Y56721239D01*
X63379266Y54721239D01*
X64331647Y54721239D02*
X64331647Y56721239D01*
X65093552Y56721239D01*
X65284028Y56626000D01*
X65379266Y56530762D01*
X65474504Y56340286D01*
X65474504Y56054572D01*
X65379266Y55864096D01*
X65284028Y55768858D01*
X65093552Y55673620D01*
X64331647Y55673620D01*
X31944085Y54721239D02*
X31944085Y56721239D01*
X32705990Y56721239D01*
X32896466Y56626000D01*
X32991704Y56530762D01*
X33086942Y56340286D01*
X33086942Y56054572D01*
X32991704Y55864096D01*
X32896466Y55768858D01*
X32705990Y55673620D01*
X31944085Y55673620D01*
X33944085Y55768858D02*
X34610752Y55768858D01*
X34896466Y54721239D02*
X33944085Y54721239D01*
X33944085Y56721239D01*
X34896466Y56721239D01*
X35658371Y55292667D02*
X36610752Y55292667D01*
X35467895Y54721239D02*
X36134561Y56721239D01*
X36801228Y54721239D01*
X37467895Y54721239D02*
X37467895Y56721239D01*
X38610752Y54721239D02*
X37753609Y55864096D01*
X38610752Y56721239D02*
X37467895Y55578381D01*
D11*
X23583000Y41602600D02*
X23583000Y51643600D01*
X35823000Y49993600D02*
X35823000Y51643600D01*
X35823000Y47494600D02*
X35823000Y48253600D01*
X35823000Y44994600D02*
X35823000Y45753600D01*
X35823000Y41602600D02*
X35823000Y43252600D01*
X27519000Y51643600D02*
X23583000Y51643600D01*
X35823000Y51643600D02*
X31886000Y51643600D01*
X27519000Y41602600D02*
X23583000Y41602600D01*
X35823000Y41602600D02*
X31886000Y41602600D01*
X98413200Y51640800D02*
X98413200Y41599800D01*
X86173200Y43249800D02*
X86173200Y41599800D01*
X86173200Y45748800D02*
X86173200Y44989800D01*
X86173200Y48248800D02*
X86173200Y47489800D01*
X86173200Y51640800D02*
X86173200Y49990800D01*
X94477200Y41599800D02*
X98413200Y41599800D01*
X86173200Y41599800D02*
X90110200Y41599800D01*
X94477200Y51640800D02*
X98413200Y51640800D01*
X86173200Y51640800D02*
X90110200Y51640800D01*
X65317000Y51640800D02*
X65317000Y41599800D01*
X53077000Y43249800D02*
X53077000Y41599800D01*
X53077000Y45748800D02*
X53077000Y44989800D01*
X53077000Y48248800D02*
X53077000Y47489800D01*
X53077000Y51640800D02*
X53077000Y49990800D01*
X61381000Y41599800D02*
X65317000Y41599800D01*
X53077000Y41599800D02*
X57014000Y41599800D01*
X61381000Y51640800D02*
X65317000Y51640800D01*
X53077000Y51640800D02*
X57014000Y51640800D01*
X127522000Y103886000D02*
G75*
G03X127522000Y103886000I-6100000J0D01*
G01*
X41979000Y18339262D02*
G75*
G02X36429000Y16793970I-2990000J-462D01*
G01*
X41979000Y18338338D02*
G75*
G03X36429000Y19883630I-2990000J462D01*
G01*
X41489000Y18338800D02*
G75*
G03X41489000Y18338800I-2500000J0D01*
G01*
X36429000Y19883800D02*
X36429000Y16793800D01*
X36454400Y35504800D02*
X36454400Y32414800D01*
X41514400Y33959800D02*
G75*
G03X41514400Y33959800I-2500000J0D01*
G01*
X42004400Y33959338D02*
G75*
G03X36454400Y35504630I-2990000J462D01*
G01*
X42004400Y33960262D02*
G75*
G02X36454400Y32414970I-2990000J-462D01*
G01*
X66047200Y33959338D02*
G75*
G02X71597200Y35504630I2990000J462D01*
G01*
X66047200Y33960262D02*
G75*
G03X71597200Y32414970I2990000J-462D01*
G01*
X71537200Y33959800D02*
G75*
G03X71537200Y33959800I-2500000J0D01*
G01*
X71597200Y32414800D02*
X71597200Y35504800D01*
X153182000Y116819000D02*
X153182000Y119909000D01*
X153122000Y118364000D02*
G75*
G03X153122000Y118364000I-2500000J0D01*
G01*
X147632000Y118364462D02*
G75*
G03X153182000Y116819170I2990000J-462D01*
G01*
X147632000Y118363538D02*
G75*
G02X153182000Y119908830I2990000J462D01*
G01*
X139573500Y118364462D02*
G75*
G02X134023500Y116819170I-2990000J-462D01*
G01*
X139573500Y118363538D02*
G75*
G03X134023500Y119908830I-2990000J462D01*
G01*
X139083500Y118364000D02*
G75*
G03X139083500Y118364000I-2500000J0D01*
G01*
X134023500Y119909000D02*
X134023500Y116819000D01*
X119995000Y119909000D02*
X119995000Y116819000D01*
X125055000Y118364000D02*
G75*
G03X125055000Y118364000I-2500000J0D01*
G01*
X125545000Y118363538D02*
G75*
G03X119995000Y119908830I-2990000J462D01*
G01*
X125545000Y118364462D02*
G75*
G02X119995000Y116819170I-2990000J-462D01*
G01*
X140501000Y103108000D02*
X140501000Y107608000D01*
X136501000Y101858000D02*
X138001000Y101858000D01*
X134001000Y107608000D02*
X134001000Y103108000D01*
X138001000Y108858000D02*
X136501000Y108858000D01*
X136501000Y66933000D02*
X138001000Y66933000D01*
X140501000Y68183000D02*
X140501000Y72683000D01*
X138001000Y73933000D02*
X136501000Y73933000D01*
X134001000Y72683000D02*
X134001000Y68183000D01*
X122086000Y85328000D02*
X122086000Y89828000D01*
X118086000Y84078000D02*
X119586000Y84078000D01*
X115586000Y89828000D02*
X115586000Y85328000D01*
X119586000Y91078000D02*
X118086000Y91078000D01*
X153337000Y84055000D02*
X154837000Y84055000D01*
X157337000Y85305000D02*
X157337000Y89805000D01*
X154837000Y91055000D02*
X153337000Y91055000D01*
X150837000Y89805000D02*
X150837000Y85305000D01*
D10*
X9698171Y117471629D02*
X9364838Y117471629D01*
X9364838Y116947820D02*
X9364838Y117947820D01*
X9841028Y117947820D01*
X10221980Y116947820D02*
X10221980Y117947820D01*
X10698171Y116947820D02*
X10698171Y117947820D01*
X10936266Y117947820D01*
X11079123Y117900200D01*
X11174361Y117804962D01*
X11221980Y117709724D01*
X11269600Y117519248D01*
X11269600Y117376391D01*
X11221980Y117185915D01*
X11174361Y117090677D01*
X11079123Y116995439D01*
X10936266Y116947820D01*
X10698171Y116947820D01*
X12126742Y117614486D02*
X12126742Y116947820D01*
X11888647Y117995439D02*
X11650552Y117281153D01*
X12269600Y117281153D01*
X41256104Y5145020D02*
X41256104Y4335496D01*
X41303723Y4240258D01*
X41351342Y4192639D01*
X41446580Y4145020D01*
X41637057Y4145020D01*
X41732295Y4192639D01*
X41779914Y4240258D01*
X41827533Y4335496D01*
X41827533Y5145020D01*
X42827533Y4145020D02*
X42256104Y4145020D01*
X42541819Y4145020D02*
X42541819Y5145020D01*
X42446580Y5002162D01*
X42351342Y4906924D01*
X42256104Y4859305D01*
X43779914Y4145020D02*
X43208485Y4145020D01*
X43494200Y4145020D02*
X43494200Y5145020D01*
X43398961Y5002162D01*
X43303723Y4906924D01*
X43208485Y4859305D01*
X9626695Y4992620D02*
X9626695Y4183096D01*
X9674314Y4087858D01*
X9721933Y4040239D01*
X9817171Y3992620D01*
X10007647Y3992620D01*
X10102885Y4040239D01*
X10150504Y4087858D01*
X10198123Y4183096D01*
X10198123Y4992620D01*
X10721933Y3992620D02*
X10912409Y3992620D01*
X11007647Y4040239D01*
X11055266Y4087858D01*
X11150504Y4230715D01*
X11198123Y4421191D01*
X11198123Y4802143D01*
X11150504Y4897381D01*
X11102885Y4945000D01*
X11007647Y4992620D01*
X10817171Y4992620D01*
X10721933Y4945000D01*
X10674314Y4897381D01*
X10626695Y4802143D01*
X10626695Y4564048D01*
X10674314Y4468810D01*
X10721933Y4421191D01*
X10817171Y4373572D01*
X11007647Y4373572D01*
X11102885Y4421191D01*
X11150504Y4468810D01*
X11198123Y4564048D01*
X20655114Y59872620D02*
X20655114Y60872620D01*
X20893209Y60872620D01*
X21036066Y60825000D01*
X21131304Y60729762D01*
X21178923Y60634524D01*
X21226542Y60444048D01*
X21226542Y60301191D01*
X21178923Y60110715D01*
X21131304Y60015477D01*
X21036066Y59920239D01*
X20893209Y59872620D01*
X20655114Y59872620D01*
X21607495Y59920239D02*
X21750352Y59872620D01*
X21988447Y59872620D01*
X22083685Y59920239D01*
X22131304Y59967858D01*
X22178923Y60063096D01*
X22178923Y60158334D01*
X22131304Y60253572D01*
X22083685Y60301191D01*
X21988447Y60348810D01*
X21797971Y60396429D01*
X21702733Y60444048D01*
X21655114Y60491667D01*
X21607495Y60586905D01*
X21607495Y60682143D01*
X21655114Y60777381D01*
X21702733Y60825000D01*
X21797971Y60872620D01*
X22036066Y60872620D01*
X22178923Y60825000D01*
X23131304Y59872620D02*
X22559876Y59872620D01*
X22845590Y59872620D02*
X22845590Y60872620D01*
X22750352Y60729762D01*
X22655114Y60634524D01*
X22559876Y60586905D01*
X25134961Y55173620D02*
X24801628Y55649810D01*
X24563533Y55173620D02*
X24563533Y56173620D01*
X24944485Y56173620D01*
X25039723Y56126000D01*
X25087342Y56078381D01*
X25134961Y55983143D01*
X25134961Y55840286D01*
X25087342Y55745048D01*
X25039723Y55697429D01*
X24944485Y55649810D01*
X24563533Y55649810D01*
X25420676Y56173620D02*
X25754009Y55173620D01*
X26087342Y56173620D01*
X26325438Y56173620D02*
X26944485Y56173620D01*
X26611152Y55792667D01*
X26754009Y55792667D01*
X26849247Y55745048D01*
X26896866Y55697429D01*
X26944485Y55602191D01*
X26944485Y55364096D01*
X26896866Y55268858D01*
X26849247Y55221239D01*
X26754009Y55173620D01*
X26468295Y55173620D01*
X26373057Y55221239D01*
X26325438Y55268858D01*
X86018761Y55173620D02*
X85685428Y55649810D01*
X85447333Y55173620D02*
X85447333Y56173620D01*
X85828285Y56173620D01*
X85923523Y56126000D01*
X85971142Y56078381D01*
X86018761Y55983143D01*
X86018761Y55840286D01*
X85971142Y55745048D01*
X85923523Y55697429D01*
X85828285Y55649810D01*
X85447333Y55649810D01*
X86304476Y56173620D02*
X86637809Y55173620D01*
X86971142Y56173620D01*
X87256857Y56078381D02*
X87304476Y56126000D01*
X87399714Y56173620D01*
X87637809Y56173620D01*
X87733047Y56126000D01*
X87780666Y56078381D01*
X87828285Y55983143D01*
X87828285Y55887905D01*
X87780666Y55745048D01*
X87209238Y55173620D01*
X87828285Y55173620D01*
X52160561Y55173620D02*
X51827228Y55649810D01*
X51589133Y55173620D02*
X51589133Y56173620D01*
X51970085Y56173620D01*
X52065323Y56126000D01*
X52112942Y56078381D01*
X52160561Y55983143D01*
X52160561Y55840286D01*
X52112942Y55745048D01*
X52065323Y55697429D01*
X51970085Y55649810D01*
X51589133Y55649810D01*
X52446276Y56173620D02*
X52779609Y55173620D01*
X53112942Y56173620D01*
X53970085Y55173620D02*
X53398657Y55173620D01*
X53684371Y55173620D02*
X53684371Y56173620D01*
X53589133Y56030762D01*
X53493895Y55935524D01*
X53398657Y55887905D01*
X58686866Y36323639D02*
X58829723Y36276020D01*
X59067819Y36276020D01*
X59163057Y36323639D01*
X59210676Y36371258D01*
X59258295Y36466496D01*
X59258295Y36561734D01*
X59210676Y36656972D01*
X59163057Y36704591D01*
X59067819Y36752210D01*
X58877342Y36799829D01*
X58782104Y36847448D01*
X58734485Y36895067D01*
X58686866Y36990305D01*
X58686866Y37085543D01*
X58734485Y37180781D01*
X58782104Y37228400D01*
X58877342Y37276020D01*
X59115438Y37276020D01*
X59258295Y37228400D01*
X59591628Y37276020D02*
X59829723Y36276020D01*
X60020200Y36990305D01*
X60210676Y36276020D01*
X60448771Y37276020D01*
X61258295Y37276020D02*
X61067819Y37276020D01*
X60972580Y37228400D01*
X60924961Y37180781D01*
X60829723Y37037924D01*
X60782104Y36847448D01*
X60782104Y36466496D01*
X60829723Y36371258D01*
X60877342Y36323639D01*
X60972580Y36276020D01*
X61163057Y36276020D01*
X61258295Y36323639D01*
X61305914Y36371258D01*
X61353533Y36466496D01*
X61353533Y36704591D01*
X61305914Y36799829D01*
X61258295Y36847448D01*
X61163057Y36895067D01*
X60972580Y36895067D01*
X60877342Y36847448D01*
X60829723Y36799829D01*
X60782104Y36704591D01*
X27952866Y36323639D02*
X28095723Y36276020D01*
X28333819Y36276020D01*
X28429057Y36323639D01*
X28476676Y36371258D01*
X28524295Y36466496D01*
X28524295Y36561734D01*
X28476676Y36656972D01*
X28429057Y36704591D01*
X28333819Y36752210D01*
X28143342Y36799829D01*
X28048104Y36847448D01*
X28000485Y36895067D01*
X27952866Y36990305D01*
X27952866Y37085543D01*
X28000485Y37180781D01*
X28048104Y37228400D01*
X28143342Y37276020D01*
X28381438Y37276020D01*
X28524295Y37228400D01*
X28857628Y37276020D02*
X29095723Y36276020D01*
X29286200Y36990305D01*
X29476676Y36276020D01*
X29714771Y37276020D01*
X30048104Y37180781D02*
X30095723Y37228400D01*
X30190961Y37276020D01*
X30429057Y37276020D01*
X30524295Y37228400D01*
X30571914Y37180781D01*
X30619533Y37085543D01*
X30619533Y36990305D01*
X30571914Y36847448D01*
X30000485Y36276020D01*
X30619533Y36276020D01*
X130276695Y91220420D02*
X130276695Y92220420D01*
X130276695Y91744229D02*
X130848123Y91744229D01*
X130848123Y91220420D02*
X130848123Y92220420D01*
X131467171Y91791848D02*
X131371933Y91839467D01*
X131324314Y91887086D01*
X131276695Y91982324D01*
X131276695Y92029943D01*
X131324314Y92125181D01*
X131371933Y92172800D01*
X131467171Y92220420D01*
X131657647Y92220420D01*
X131752885Y92172800D01*
X131800504Y92125181D01*
X131848123Y92029943D01*
X131848123Y91982324D01*
X131800504Y91887086D01*
X131752885Y91839467D01*
X131657647Y91791848D01*
X131467171Y91791848D01*
X131371933Y91744229D01*
X131324314Y91696610D01*
X131276695Y91601372D01*
X131276695Y91410896D01*
X131324314Y91315658D01*
X131371933Y91268039D01*
X131467171Y91220420D01*
X131657647Y91220420D01*
X131752885Y91268039D01*
X131800504Y91315658D01*
X131848123Y91410896D01*
X131848123Y91601372D01*
X131800504Y91696610D01*
X131752885Y91744229D01*
X131657647Y91791848D01*
X72186895Y51113820D02*
X72186895Y52113820D01*
X72186895Y51637629D02*
X72758323Y51637629D01*
X72758323Y51113820D02*
X72758323Y52113820D01*
X73139276Y52113820D02*
X73805942Y52113820D01*
X73377371Y51113820D01*
X115747895Y126954020D02*
X115747895Y127954020D01*
X115747895Y127477829D02*
X116319323Y127477829D01*
X116319323Y126954020D02*
X116319323Y127954020D01*
X117224085Y127954020D02*
X117033609Y127954020D01*
X116938371Y127906400D01*
X116890752Y127858781D01*
X116795514Y127715924D01*
X116747895Y127525448D01*
X116747895Y127144496D01*
X116795514Y127049258D01*
X116843133Y127001639D01*
X116938371Y126954020D01*
X117128847Y126954020D01*
X117224085Y127001639D01*
X117271704Y127049258D01*
X117319323Y127144496D01*
X117319323Y127382591D01*
X117271704Y127477829D01*
X117224085Y127525448D01*
X117128847Y127573067D01*
X116938371Y127573067D01*
X116843133Y127525448D01*
X116795514Y127477829D01*
X116747895Y127382591D01*
X72263095Y9127620D02*
X72263095Y10127620D01*
X72263095Y9651429D02*
X72834523Y9651429D01*
X72834523Y9127620D02*
X72834523Y10127620D01*
X73786904Y10127620D02*
X73310714Y10127620D01*
X73263095Y9651429D01*
X73310714Y9699048D01*
X73405952Y9746667D01*
X73644047Y9746667D01*
X73739285Y9699048D01*
X73786904Y9651429D01*
X73834523Y9556191D01*
X73834523Y9318096D01*
X73786904Y9222858D01*
X73739285Y9175239D01*
X73644047Y9127620D01*
X73405952Y9127620D01*
X73310714Y9175239D01*
X73263095Y9222858D01*
X8737695Y120705620D02*
X8737695Y121705620D01*
X8737695Y121229429D02*
X9309123Y121229429D01*
X9309123Y120705620D02*
X9309123Y121705620D01*
X10213885Y121372286D02*
X10213885Y120705620D01*
X9975790Y121753239D02*
X9737695Y121038953D01*
X10356742Y121038953D01*
X154152695Y126903220D02*
X154152695Y127903220D01*
X154152695Y127427029D02*
X154724123Y127427029D01*
X154724123Y126903220D02*
X154724123Y127903220D01*
X155105076Y127903220D02*
X155724123Y127903220D01*
X155390790Y127522267D01*
X155533647Y127522267D01*
X155628885Y127474648D01*
X155676504Y127427029D01*
X155724123Y127331791D01*
X155724123Y127093696D01*
X155676504Y126998458D01*
X155628885Y126950839D01*
X155533647Y126903220D01*
X155247933Y126903220D01*
X155152695Y126950839D01*
X155105076Y126998458D01*
X159258095Y9127620D02*
X159258095Y10127620D01*
X159258095Y9651429D02*
X159829523Y9651429D01*
X159829523Y9127620D02*
X159829523Y10127620D01*
X160258095Y10032381D02*
X160305714Y10080000D01*
X160400952Y10127620D01*
X160639047Y10127620D01*
X160734285Y10080000D01*
X160781904Y10032381D01*
X160829523Y9937143D01*
X160829523Y9841905D01*
X160781904Y9699048D01*
X160210476Y9127620D01*
X160829523Y9127620D01*
X4318095Y9127620D02*
X4318095Y10127620D01*
X4318095Y9651429D02*
X4889523Y9651429D01*
X4889523Y9127620D02*
X4889523Y10127620D01*
X5889523Y9127620D02*
X5318095Y9127620D01*
X5603809Y9127620D02*
X5603809Y10127620D01*
X5508571Y9984762D01*
X5413333Y9889524D01*
X5318095Y9841905D01*
X120541047Y96757429D02*
X120683904Y96709810D01*
X120731523Y96662191D01*
X120779142Y96566953D01*
X120779142Y96424096D01*
X120731523Y96328858D01*
X120683904Y96281239D01*
X120588666Y96233620D01*
X120207714Y96233620D01*
X120207714Y97233620D01*
X120541047Y97233620D01*
X120636285Y97186000D01*
X120683904Y97138381D01*
X120731523Y97043143D01*
X120731523Y96947905D01*
X120683904Y96852667D01*
X120636285Y96805048D01*
X120541047Y96757429D01*
X120207714Y96757429D01*
X121112476Y97233620D02*
X121779142Y97233620D01*
X121112476Y96233620D01*
X121779142Y96233620D01*
X122683904Y96233620D02*
X122112476Y96233620D01*
X122398190Y96233620D02*
X122398190Y97233620D01*
X122302952Y97090762D01*
X122207714Y96995524D01*
X122112476Y96947905D01*
X124851047Y101274572D02*
X125612952Y101274572D01*
X125232000Y100893620D02*
X125232000Y101655524D01*
X32866104Y17683220D02*
X32866104Y18683220D01*
X33104200Y18683220D01*
X33247057Y18635600D01*
X33342295Y18540362D01*
X33389914Y18445124D01*
X33437533Y18254648D01*
X33437533Y18111791D01*
X33389914Y17921315D01*
X33342295Y17826077D01*
X33247057Y17730839D01*
X33104200Y17683220D01*
X32866104Y17683220D01*
X34389914Y17683220D02*
X33818485Y17683220D01*
X34104200Y17683220D02*
X34104200Y18683220D01*
X34008961Y18540362D01*
X33913723Y18445124D01*
X33818485Y18397505D01*
X43432504Y34117020D02*
X43432504Y35117020D01*
X43670600Y35117020D01*
X43813457Y35069400D01*
X43908695Y34974162D01*
X43956314Y34878924D01*
X44003933Y34688448D01*
X44003933Y34545591D01*
X43956314Y34355115D01*
X43908695Y34259877D01*
X43813457Y34164639D01*
X43670600Y34117020D01*
X43432504Y34117020D01*
X44384885Y35021781D02*
X44432504Y35069400D01*
X44527742Y35117020D01*
X44765838Y35117020D01*
X44861076Y35069400D01*
X44908695Y35021781D01*
X44956314Y34926543D01*
X44956314Y34831305D01*
X44908695Y34688448D01*
X44337266Y34117020D01*
X44956314Y34117020D01*
X73150504Y33126420D02*
X73150504Y34126420D01*
X73388600Y34126420D01*
X73531457Y34078800D01*
X73626695Y33983562D01*
X73674314Y33888324D01*
X73721933Y33697848D01*
X73721933Y33554991D01*
X73674314Y33364515D01*
X73626695Y33269277D01*
X73531457Y33174039D01*
X73388600Y33126420D01*
X73150504Y33126420D01*
X74055266Y34126420D02*
X74674314Y34126420D01*
X74340980Y33745467D01*
X74483838Y33745467D01*
X74579076Y33697848D01*
X74626695Y33650229D01*
X74674314Y33554991D01*
X74674314Y33316896D01*
X74626695Y33221658D01*
X74579076Y33174039D01*
X74483838Y33126420D01*
X74198123Y33126420D01*
X74102885Y33174039D01*
X74055266Y33221658D01*
X149909304Y113542820D02*
X149909304Y114542820D01*
X150147400Y114542820D01*
X150290257Y114495200D01*
X150385495Y114399962D01*
X150433114Y114304724D01*
X150480733Y114114248D01*
X150480733Y113971391D01*
X150433114Y113780915D01*
X150385495Y113685677D01*
X150290257Y113590439D01*
X150147400Y113542820D01*
X149909304Y113542820D01*
X151385495Y114542820D02*
X150909304Y114542820D01*
X150861685Y114066629D01*
X150909304Y114114248D01*
X151004542Y114161867D01*
X151242638Y114161867D01*
X151337876Y114114248D01*
X151385495Y114066629D01*
X151433114Y113971391D01*
X151433114Y113733296D01*
X151385495Y113638058D01*
X151337876Y113590439D01*
X151242638Y113542820D01*
X151004542Y113542820D01*
X150909304Y113590439D01*
X150861685Y113638058D01*
X135837704Y113542820D02*
X135837704Y114542820D01*
X136075800Y114542820D01*
X136218657Y114495200D01*
X136313895Y114399962D01*
X136361514Y114304724D01*
X136409133Y114114248D01*
X136409133Y113971391D01*
X136361514Y113780915D01*
X136313895Y113685677D01*
X136218657Y113590439D01*
X136075800Y113542820D01*
X135837704Y113542820D01*
X136885323Y113542820D02*
X137075800Y113542820D01*
X137171038Y113590439D01*
X137218657Y113638058D01*
X137313895Y113780915D01*
X137361514Y113971391D01*
X137361514Y114352343D01*
X137313895Y114447581D01*
X137266276Y114495200D01*
X137171038Y114542820D01*
X136980561Y114542820D01*
X136885323Y114495200D01*
X136837704Y114447581D01*
X136790085Y114352343D01*
X136790085Y114114248D01*
X136837704Y114019010D01*
X136885323Y113971391D01*
X136980561Y113923772D01*
X137171038Y113923772D01*
X137266276Y113971391D01*
X137313895Y114019010D01*
X137361514Y114114248D01*
X121594714Y113542820D02*
X121594714Y114542820D01*
X121832809Y114542820D01*
X121975666Y114495200D01*
X122070904Y114399962D01*
X122118523Y114304724D01*
X122166142Y114114248D01*
X122166142Y113971391D01*
X122118523Y113780915D01*
X122070904Y113685677D01*
X121975666Y113590439D01*
X121832809Y113542820D01*
X121594714Y113542820D01*
X123118523Y113542820D02*
X122547095Y113542820D01*
X122832809Y113542820D02*
X122832809Y114542820D01*
X122737571Y114399962D01*
X122642333Y114304724D01*
X122547095Y114257105D01*
X124070904Y113542820D02*
X123499476Y113542820D01*
X123785190Y113542820D02*
X123785190Y114542820D01*
X123689952Y114399962D01*
X123594714Y114304724D01*
X123499476Y114257105D01*
X132332361Y103746467D02*
X132379980Y103889324D01*
X132379980Y104127420D01*
X132332361Y104222658D01*
X132284742Y104270277D01*
X132189504Y104317896D01*
X132094266Y104317896D01*
X131999028Y104270277D01*
X131951409Y104222658D01*
X131903790Y104127420D01*
X131856171Y103936943D01*
X131808552Y103841705D01*
X131760933Y103794086D01*
X131665695Y103746467D01*
X131570457Y103746467D01*
X131475219Y103794086D01*
X131427600Y103841705D01*
X131379980Y103936943D01*
X131379980Y104175039D01*
X131427600Y104317896D01*
X131379980Y104651229D02*
X132379980Y104889324D01*
X131665695Y105079800D01*
X132379980Y105270277D01*
X131379980Y105508372D01*
X132379980Y106413134D02*
X132379980Y105841705D01*
X132379980Y106127420D02*
X131379980Y106127420D01*
X131522838Y106032181D01*
X131618076Y105936943D01*
X131665695Y105841705D01*
X142720961Y69532667D02*
X142768580Y69675524D01*
X142768580Y69913620D01*
X142720961Y70008858D01*
X142673342Y70056477D01*
X142578104Y70104096D01*
X142482866Y70104096D01*
X142387628Y70056477D01*
X142340009Y70008858D01*
X142292390Y69913620D01*
X142244771Y69723143D01*
X142197152Y69627905D01*
X142149533Y69580286D01*
X142054295Y69532667D01*
X141959057Y69532667D01*
X141863819Y69580286D01*
X141816200Y69627905D01*
X141768580Y69723143D01*
X141768580Y69961239D01*
X141816200Y70104096D01*
X141768580Y70437429D02*
X142768580Y70675524D01*
X142054295Y70866000D01*
X142768580Y71056477D01*
X141768580Y71294572D01*
X141768580Y71580286D02*
X141768580Y72199334D01*
X142149533Y71866000D01*
X142149533Y72008858D01*
X142197152Y72104096D01*
X142244771Y72151715D01*
X142340009Y72199334D01*
X142578104Y72199334D01*
X142673342Y72151715D01*
X142720961Y72104096D01*
X142768580Y72008858D01*
X142768580Y71723143D01*
X142720961Y71627905D01*
X142673342Y71580286D01*
X111569666Y88495239D02*
X111712523Y88447620D01*
X111950619Y88447620D01*
X112045857Y88495239D01*
X112093476Y88542858D01*
X112141095Y88638096D01*
X112141095Y88733334D01*
X112093476Y88828572D01*
X112045857Y88876191D01*
X111950619Y88923810D01*
X111760142Y88971429D01*
X111664904Y89019048D01*
X111617285Y89066667D01*
X111569666Y89161905D01*
X111569666Y89257143D01*
X111617285Y89352381D01*
X111664904Y89400000D01*
X111760142Y89447620D01*
X111998238Y89447620D01*
X112141095Y89400000D01*
X112474428Y89447620D02*
X112712523Y88447620D01*
X112903000Y89161905D01*
X113093476Y88447620D01*
X113331571Y89447620D01*
X113617285Y89447620D02*
X114283952Y89447620D01*
X113855380Y88447620D01*
X158331066Y87860239D02*
X158473923Y87812620D01*
X158712019Y87812620D01*
X158807257Y87860239D01*
X158854876Y87907858D01*
X158902495Y88003096D01*
X158902495Y88098334D01*
X158854876Y88193572D01*
X158807257Y88241191D01*
X158712019Y88288810D01*
X158521542Y88336429D01*
X158426304Y88384048D01*
X158378685Y88431667D01*
X158331066Y88526905D01*
X158331066Y88622143D01*
X158378685Y88717381D01*
X158426304Y88765000D01*
X158521542Y88812620D01*
X158759638Y88812620D01*
X158902495Y88765000D01*
X159235828Y88812620D02*
X159473923Y87812620D01*
X159664400Y88526905D01*
X159854876Y87812620D01*
X160092971Y88812620D01*
X160616780Y88384048D02*
X160521542Y88431667D01*
X160473923Y88479286D01*
X160426304Y88574524D01*
X160426304Y88622143D01*
X160473923Y88717381D01*
X160521542Y88765000D01*
X160616780Y88812620D01*
X160807257Y88812620D01*
X160902495Y88765000D01*
X160950114Y88717381D01*
X160997733Y88622143D01*
X160997733Y88574524D01*
X160950114Y88479286D01*
X160902495Y88431667D01*
X160807257Y88384048D01*
X160616780Y88384048D01*
X160521542Y88336429D01*
X160473923Y88288810D01*
X160426304Y88193572D01*
X160426304Y88003096D01*
X160473923Y87907858D01*
X160521542Y87860239D01*
X160616780Y87812620D01*
X160807257Y87812620D01*
X160902495Y87860239D01*
X160950114Y87907858D01*
X160997733Y88003096D01*
X160997733Y88193572D01*
X160950114Y88288810D01*
X160902495Y88336429D01*
X160807257Y88384048D01*
M02*
