G04 #@! TF.GenerationSoftware,KiCad,Pcbnew,(5.1.5)-3*
G04 #@! TF.CreationDate,2020-04-02T09:01:34+03:00*
G04 #@! TF.ProjectId,VentilaVitesco,56656e74-696c-4615-9669-746573636f2e,rev?*
G04 #@! TF.SameCoordinates,PX354a940PY93c3260*
G04 #@! TF.FileFunction,Soldermask,Top*
G04 #@! TF.FilePolarity,Negative*
%FSLAX46Y46*%
G04 Gerber Fmt 4.6, Leading zero omitted, Abs format (unit mm)*
G04 Created by KiCad (PCBNEW (5.1.5)-3) date 2020-04-02 09:01:34*
%MOMM*%
%LPD*%
G04 APERTURE LIST*
%ADD10C,0.150000*%
G04 APERTURE END LIST*
D10*
G36*
X17995637Y6914084D02*
G01*
X18149033Y6867551D01*
X18202991Y6851183D01*
X18394079Y6749045D01*
X18394080Y6749044D01*
X18394084Y6749042D01*
X18561581Y6611581D01*
X18561583Y6611578D01*
X18699043Y6444084D01*
X18801183Y6252992D01*
X18817551Y6199034D01*
X18864084Y6045638D01*
X18880000Y5884036D01*
X18880000Y4275964D01*
X18864084Y4114362D01*
X18817551Y3960966D01*
X18801183Y3907008D01*
X18699043Y3715916D01*
X18561581Y3548419D01*
X18394084Y3410957D01*
X18202992Y3308817D01*
X18149034Y3292449D01*
X17995638Y3245916D01*
X17780000Y3224678D01*
X17564363Y3245916D01*
X17410967Y3292449D01*
X17357009Y3308817D01*
X17165917Y3410957D01*
X16998420Y3548419D01*
X16860958Y3715916D01*
X16758816Y3907012D01*
X16695916Y4114361D01*
X16680000Y4275962D01*
X16680000Y5884037D01*
X16695916Y6045635D01*
X16695916Y6045637D01*
X16758816Y6252987D01*
X16758817Y6252991D01*
X16860955Y6444079D01*
X16860956Y6444080D01*
X16860958Y6444084D01*
X16998419Y6611581D01*
X17051354Y6655023D01*
X17165916Y6749043D01*
X17357008Y6851183D01*
X17410966Y6867551D01*
X17564362Y6914084D01*
X17780000Y6935322D01*
X17995637Y6914084D01*
G37*
G36*
X20535637Y6914084D02*
G01*
X20689033Y6867551D01*
X20742991Y6851183D01*
X20934079Y6749045D01*
X20934080Y6749044D01*
X20934084Y6749042D01*
X21101581Y6611581D01*
X21101583Y6611578D01*
X21239043Y6444084D01*
X21341183Y6252992D01*
X21357551Y6199034D01*
X21404084Y6045638D01*
X21420000Y5884036D01*
X21420000Y4275964D01*
X21404084Y4114362D01*
X21357551Y3960966D01*
X21341183Y3907008D01*
X21239043Y3715916D01*
X21101581Y3548419D01*
X20934084Y3410957D01*
X20742992Y3308817D01*
X20689034Y3292449D01*
X20535638Y3245916D01*
X20320000Y3224678D01*
X20104363Y3245916D01*
X19950967Y3292449D01*
X19897009Y3308817D01*
X19705917Y3410957D01*
X19538420Y3548419D01*
X19400958Y3715916D01*
X19298816Y3907012D01*
X19235916Y4114361D01*
X19220000Y4275962D01*
X19220000Y5884037D01*
X19235916Y6045635D01*
X19235916Y6045637D01*
X19298816Y6252987D01*
X19298817Y6252991D01*
X19400955Y6444079D01*
X19400956Y6444080D01*
X19400958Y6444084D01*
X19538419Y6611581D01*
X19591354Y6655023D01*
X19705916Y6749043D01*
X19897008Y6851183D01*
X19950966Y6867551D01*
X20104362Y6914084D01*
X20320000Y6935322D01*
X20535637Y6914084D01*
G37*
G36*
X23075637Y6914084D02*
G01*
X23229033Y6867551D01*
X23282991Y6851183D01*
X23474079Y6749045D01*
X23474080Y6749044D01*
X23474084Y6749042D01*
X23641581Y6611581D01*
X23641583Y6611578D01*
X23779043Y6444084D01*
X23881183Y6252992D01*
X23897551Y6199034D01*
X23944084Y6045638D01*
X23960000Y5884036D01*
X23960000Y4275964D01*
X23944084Y4114362D01*
X23897551Y3960966D01*
X23881183Y3907008D01*
X23779043Y3715916D01*
X23641581Y3548419D01*
X23474084Y3410957D01*
X23282992Y3308817D01*
X23229034Y3292449D01*
X23075638Y3245916D01*
X22860000Y3224678D01*
X22644363Y3245916D01*
X22490967Y3292449D01*
X22437009Y3308817D01*
X22245917Y3410957D01*
X22078420Y3548419D01*
X21940958Y3715916D01*
X21838816Y3907012D01*
X21775916Y4114361D01*
X21760000Y4275962D01*
X21760000Y5884037D01*
X21775916Y6045635D01*
X21775916Y6045637D01*
X21838816Y6252987D01*
X21838817Y6252991D01*
X21940955Y6444079D01*
X21940956Y6444080D01*
X21940958Y6444084D01*
X22078419Y6611581D01*
X22131354Y6655023D01*
X22245916Y6749043D01*
X22437008Y6851183D01*
X22490966Y6867551D01*
X22644362Y6914084D01*
X22860000Y6935322D01*
X23075637Y6914084D01*
G37*
G36*
X25615637Y6914084D02*
G01*
X25769033Y6867551D01*
X25822991Y6851183D01*
X26014079Y6749045D01*
X26014080Y6749044D01*
X26014084Y6749042D01*
X26181581Y6611581D01*
X26181583Y6611578D01*
X26319043Y6444084D01*
X26421183Y6252992D01*
X26437551Y6199034D01*
X26484084Y6045638D01*
X26500000Y5884036D01*
X26500000Y4275964D01*
X26484084Y4114362D01*
X26437551Y3960966D01*
X26421183Y3907008D01*
X26319043Y3715916D01*
X26181581Y3548419D01*
X26014084Y3410957D01*
X25822992Y3308817D01*
X25769034Y3292449D01*
X25615638Y3245916D01*
X25400000Y3224678D01*
X25184363Y3245916D01*
X25030967Y3292449D01*
X24977009Y3308817D01*
X24785917Y3410957D01*
X24618420Y3548419D01*
X24480958Y3715916D01*
X24378816Y3907012D01*
X24315916Y4114361D01*
X24300000Y4275962D01*
X24300000Y5884037D01*
X24315916Y6045635D01*
X24315916Y6045637D01*
X24378816Y6252987D01*
X24378817Y6252991D01*
X24480955Y6444079D01*
X24480956Y6444080D01*
X24480958Y6444084D01*
X24618419Y6611581D01*
X24671354Y6655023D01*
X24785916Y6749043D01*
X24977008Y6851183D01*
X25030966Y6867551D01*
X25184362Y6914084D01*
X25400000Y6935322D01*
X25615637Y6914084D01*
G37*
G36*
X28155637Y6914084D02*
G01*
X28309033Y6867551D01*
X28362991Y6851183D01*
X28554079Y6749045D01*
X28554080Y6749044D01*
X28554084Y6749042D01*
X28721581Y6611581D01*
X28721583Y6611578D01*
X28859043Y6444084D01*
X28961183Y6252992D01*
X28977551Y6199034D01*
X29024084Y6045638D01*
X29040000Y5884036D01*
X29040000Y4275964D01*
X29024084Y4114362D01*
X28977551Y3960966D01*
X28961183Y3907008D01*
X28859043Y3715916D01*
X28721581Y3548419D01*
X28554084Y3410957D01*
X28362992Y3308817D01*
X28309034Y3292449D01*
X28155638Y3245916D01*
X27940000Y3224678D01*
X27724363Y3245916D01*
X27570967Y3292449D01*
X27517009Y3308817D01*
X27325917Y3410957D01*
X27158420Y3548419D01*
X27020958Y3715916D01*
X26918816Y3907012D01*
X26855916Y4114361D01*
X26840000Y4275962D01*
X26840000Y5884037D01*
X26855916Y6045635D01*
X26855916Y6045637D01*
X26918816Y6252987D01*
X26918817Y6252991D01*
X27020955Y6444079D01*
X27020956Y6444080D01*
X27020958Y6444084D01*
X27158419Y6611581D01*
X27211354Y6655023D01*
X27325916Y6749043D01*
X27517008Y6851183D01*
X27570966Y6867551D01*
X27724362Y6914084D01*
X27940000Y6935322D01*
X28155637Y6914084D01*
G37*
G36*
X49745637Y6914084D02*
G01*
X49899033Y6867551D01*
X49952991Y6851183D01*
X50144079Y6749045D01*
X50144080Y6749044D01*
X50144084Y6749042D01*
X50311581Y6611581D01*
X50311583Y6611578D01*
X50449043Y6444084D01*
X50551183Y6252992D01*
X50567551Y6199034D01*
X50614084Y6045638D01*
X50630000Y5884036D01*
X50630000Y4275964D01*
X50614084Y4114362D01*
X50567551Y3960966D01*
X50551183Y3907008D01*
X50449043Y3715916D01*
X50311581Y3548419D01*
X50144084Y3410957D01*
X49952992Y3308817D01*
X49899034Y3292449D01*
X49745638Y3245916D01*
X49530000Y3224678D01*
X49314363Y3245916D01*
X49160967Y3292449D01*
X49107009Y3308817D01*
X48915917Y3410957D01*
X48748420Y3548419D01*
X48610958Y3715916D01*
X48508816Y3907012D01*
X48445916Y4114361D01*
X48430000Y4275962D01*
X48430000Y5884037D01*
X48445916Y6045635D01*
X48445916Y6045637D01*
X48508816Y6252987D01*
X48508817Y6252991D01*
X48610955Y6444079D01*
X48610956Y6444080D01*
X48610958Y6444084D01*
X48748419Y6611581D01*
X48801354Y6655023D01*
X48915916Y6749043D01*
X49107008Y6851183D01*
X49160966Y6867551D01*
X49314362Y6914084D01*
X49530000Y6935322D01*
X49745637Y6914084D01*
G37*
G36*
X52285637Y6914084D02*
G01*
X52439033Y6867551D01*
X52492991Y6851183D01*
X52684079Y6749045D01*
X52684080Y6749044D01*
X52684084Y6749042D01*
X52851581Y6611581D01*
X52851583Y6611578D01*
X52989043Y6444084D01*
X53091183Y6252992D01*
X53107551Y6199034D01*
X53154084Y6045638D01*
X53170000Y5884036D01*
X53170000Y4275964D01*
X53154084Y4114362D01*
X53107551Y3960966D01*
X53091183Y3907008D01*
X52989043Y3715916D01*
X52851581Y3548419D01*
X52684084Y3410957D01*
X52492992Y3308817D01*
X52439034Y3292449D01*
X52285638Y3245916D01*
X52070000Y3224678D01*
X51854363Y3245916D01*
X51700967Y3292449D01*
X51647009Y3308817D01*
X51455917Y3410957D01*
X51288420Y3548419D01*
X51150958Y3715916D01*
X51048816Y3907012D01*
X50985916Y4114361D01*
X50970000Y4275962D01*
X50970000Y5884037D01*
X50985916Y6045635D01*
X50985916Y6045637D01*
X51048816Y6252987D01*
X51048817Y6252991D01*
X51150955Y6444079D01*
X51150956Y6444080D01*
X51150958Y6444084D01*
X51288419Y6611581D01*
X51341354Y6655023D01*
X51455916Y6749043D01*
X51647008Y6851183D01*
X51700966Y6867551D01*
X51854362Y6914084D01*
X52070000Y6935322D01*
X52285637Y6914084D01*
G37*
G36*
X54825637Y6914084D02*
G01*
X54979033Y6867551D01*
X55032991Y6851183D01*
X55224079Y6749045D01*
X55224080Y6749044D01*
X55224084Y6749042D01*
X55391581Y6611581D01*
X55391583Y6611578D01*
X55529043Y6444084D01*
X55631183Y6252992D01*
X55647551Y6199034D01*
X55694084Y6045638D01*
X55710000Y5884036D01*
X55710000Y4275964D01*
X55694084Y4114362D01*
X55647551Y3960966D01*
X55631183Y3907008D01*
X55529043Y3715916D01*
X55391581Y3548419D01*
X55224084Y3410957D01*
X55032992Y3308817D01*
X54979034Y3292449D01*
X54825638Y3245916D01*
X54610000Y3224678D01*
X54394363Y3245916D01*
X54240967Y3292449D01*
X54187009Y3308817D01*
X53995917Y3410957D01*
X53828420Y3548419D01*
X53690958Y3715916D01*
X53588816Y3907012D01*
X53525916Y4114361D01*
X53510000Y4275962D01*
X53510000Y5884037D01*
X53525916Y6045635D01*
X53525916Y6045637D01*
X53588816Y6252987D01*
X53588817Y6252991D01*
X53690955Y6444079D01*
X53690956Y6444080D01*
X53690958Y6444084D01*
X53828419Y6611581D01*
X53881354Y6655023D01*
X53995916Y6749043D01*
X54187008Y6851183D01*
X54240966Y6867551D01*
X54394362Y6914084D01*
X54610000Y6935322D01*
X54825637Y6914084D01*
G37*
G36*
X57365637Y6914084D02*
G01*
X57519033Y6867551D01*
X57572991Y6851183D01*
X57764079Y6749045D01*
X57764080Y6749044D01*
X57764084Y6749042D01*
X57931581Y6611581D01*
X57931583Y6611578D01*
X58069043Y6444084D01*
X58171183Y6252992D01*
X58187551Y6199034D01*
X58234084Y6045638D01*
X58250000Y5884036D01*
X58250000Y4275964D01*
X58234084Y4114362D01*
X58187551Y3960966D01*
X58171183Y3907008D01*
X58069043Y3715916D01*
X57931581Y3548419D01*
X57764084Y3410957D01*
X57572992Y3308817D01*
X57519034Y3292449D01*
X57365638Y3245916D01*
X57150000Y3224678D01*
X56934363Y3245916D01*
X56780967Y3292449D01*
X56727009Y3308817D01*
X56535917Y3410957D01*
X56368420Y3548419D01*
X56230958Y3715916D01*
X56128816Y3907012D01*
X56065916Y4114361D01*
X56050000Y4275962D01*
X56050000Y5884037D01*
X56065916Y6045635D01*
X56065916Y6045637D01*
X56128816Y6252987D01*
X56128817Y6252991D01*
X56230955Y6444079D01*
X56230956Y6444080D01*
X56230958Y6444084D01*
X56368419Y6611581D01*
X56421354Y6655023D01*
X56535916Y6749043D01*
X56727008Y6851183D01*
X56780966Y6867551D01*
X56934362Y6914084D01*
X57150000Y6935322D01*
X57365637Y6914084D01*
G37*
G36*
X59905637Y6914084D02*
G01*
X60059033Y6867551D01*
X60112991Y6851183D01*
X60304079Y6749045D01*
X60304080Y6749044D01*
X60304084Y6749042D01*
X60471581Y6611581D01*
X60471583Y6611578D01*
X60609043Y6444084D01*
X60711183Y6252992D01*
X60727551Y6199034D01*
X60774084Y6045638D01*
X60790000Y5884036D01*
X60790000Y4275964D01*
X60774084Y4114362D01*
X60727551Y3960966D01*
X60711183Y3907008D01*
X60609043Y3715916D01*
X60471581Y3548419D01*
X60304084Y3410957D01*
X60112992Y3308817D01*
X60059034Y3292449D01*
X59905638Y3245916D01*
X59690000Y3224678D01*
X59474363Y3245916D01*
X59320967Y3292449D01*
X59267009Y3308817D01*
X59075917Y3410957D01*
X58908420Y3548419D01*
X58770958Y3715916D01*
X58668816Y3907012D01*
X58605916Y4114361D01*
X58590000Y4275962D01*
X58590000Y5884037D01*
X58605916Y6045635D01*
X58605916Y6045637D01*
X58668816Y6252987D01*
X58668817Y6252991D01*
X58770955Y6444079D01*
X58770956Y6444080D01*
X58770958Y6444084D01*
X58908419Y6611581D01*
X58961354Y6655023D01*
X59075916Y6749043D01*
X59267008Y6851183D01*
X59320966Y6867551D01*
X59474362Y6914084D01*
X59690000Y6935322D01*
X59905637Y6914084D01*
G37*
G36*
X16340000Y3230000D02*
G01*
X14140000Y3230000D01*
X14140000Y6930000D01*
X16340000Y6930000D01*
X16340000Y3230000D01*
G37*
G36*
X48090000Y3230000D02*
G01*
X45890000Y3230000D01*
X45890000Y6930000D01*
X48090000Y6930000D01*
X48090000Y3230000D01*
G37*
G36*
X5619624Y6858906D02*
G01*
X5956302Y6719449D01*
X5956303Y6719448D01*
X6259306Y6516989D01*
X6516989Y6259306D01*
X6567850Y6183186D01*
X6719449Y5956302D01*
X6858906Y5619624D01*
X6930000Y5262210D01*
X6930000Y4897790D01*
X6858906Y4540376D01*
X6719449Y4203698D01*
X6719448Y4203697D01*
X6516989Y3900694D01*
X6259306Y3643011D01*
X6117738Y3548419D01*
X5956302Y3440551D01*
X5619624Y3301094D01*
X5262210Y3230000D01*
X4897790Y3230000D01*
X4540376Y3301094D01*
X4203698Y3440551D01*
X4042262Y3548419D01*
X3900694Y3643011D01*
X3643011Y3900694D01*
X3440552Y4203697D01*
X3440551Y4203698D01*
X3301094Y4540376D01*
X3230000Y4897790D01*
X3230000Y5262210D01*
X3301094Y5619624D01*
X3440551Y5956302D01*
X3592150Y6183186D01*
X3643011Y6259306D01*
X3900694Y6516989D01*
X4203697Y6719448D01*
X4203698Y6719449D01*
X4540376Y6858906D01*
X4897790Y6930000D01*
X5262210Y6930000D01*
X5619624Y6858906D01*
G37*
G36*
X73564624Y6858906D02*
G01*
X73901302Y6719449D01*
X73901303Y6719448D01*
X74204306Y6516989D01*
X74461989Y6259306D01*
X74512850Y6183186D01*
X74664449Y5956302D01*
X74803906Y5619624D01*
X74875000Y5262210D01*
X74875000Y4897790D01*
X74803906Y4540376D01*
X74664449Y4203698D01*
X74664448Y4203697D01*
X74461989Y3900694D01*
X74204306Y3643011D01*
X74062738Y3548419D01*
X73901302Y3440551D01*
X73564624Y3301094D01*
X73207210Y3230000D01*
X72842790Y3230000D01*
X72485376Y3301094D01*
X72148698Y3440551D01*
X71987262Y3548419D01*
X71845694Y3643011D01*
X71588011Y3900694D01*
X71385552Y4203697D01*
X71385551Y4203698D01*
X71246094Y4540376D01*
X71175000Y4897790D01*
X71175000Y5262210D01*
X71246094Y5619624D01*
X71385551Y5956302D01*
X71537150Y6183186D01*
X71588011Y6259306D01*
X71845694Y6516989D01*
X72148697Y6719448D01*
X72148698Y6719449D01*
X72485376Y6858906D01*
X72842790Y6930000D01*
X73207210Y6930000D01*
X73564624Y6858906D01*
G37*
G36*
X160559624Y6858906D02*
G01*
X160896302Y6719449D01*
X160896303Y6719448D01*
X161199306Y6516989D01*
X161456989Y6259306D01*
X161507850Y6183186D01*
X161659449Y5956302D01*
X161798906Y5619624D01*
X161870000Y5262210D01*
X161870000Y4897790D01*
X161798906Y4540376D01*
X161659449Y4203698D01*
X161659448Y4203697D01*
X161456989Y3900694D01*
X161199306Y3643011D01*
X161057738Y3548419D01*
X160896302Y3440551D01*
X160559624Y3301094D01*
X160202210Y3230000D01*
X159837790Y3230000D01*
X159480376Y3301094D01*
X159143698Y3440551D01*
X158982262Y3548419D01*
X158840694Y3643011D01*
X158583011Y3900694D01*
X158380552Y4203697D01*
X158380551Y4203698D01*
X158241094Y4540376D01*
X158170000Y4897790D01*
X158170000Y5262210D01*
X158241094Y5619624D01*
X158380551Y5956302D01*
X158532150Y6183186D01*
X158583011Y6259306D01*
X158840694Y6516989D01*
X159143697Y6719448D01*
X159143698Y6719449D01*
X159480376Y6858906D01*
X159837790Y6930000D01*
X160202210Y6930000D01*
X160559624Y6858906D01*
G37*
G36*
X121122271Y7146692D02*
G01*
X121305809Y7110184D01*
X121449034Y7050858D01*
X121651586Y6966959D01*
X121962779Y6759026D01*
X122227426Y6494379D01*
X122435359Y6183186D01*
X122492333Y6045638D01*
X122559270Y5884038D01*
X122578584Y5837408D01*
X122651600Y5470335D01*
X122651600Y5096065D01*
X122578584Y4728992D01*
X122435359Y4383214D01*
X122227426Y4072021D01*
X121962779Y3807374D01*
X121651586Y3599441D01*
X121528407Y3548419D01*
X121305809Y3456216D01*
X120938735Y3383200D01*
X120564465Y3383200D01*
X120197391Y3456216D01*
X119974793Y3548419D01*
X119851614Y3599441D01*
X119540421Y3807374D01*
X119275774Y4072021D01*
X119067841Y4383214D01*
X118924616Y4728992D01*
X118851600Y5096065D01*
X118851600Y5470335D01*
X118924616Y5837408D01*
X118943931Y5884038D01*
X119010867Y6045638D01*
X119067841Y6183186D01*
X119275774Y6494379D01*
X119540421Y6759026D01*
X119851614Y6966959D01*
X120054166Y7050858D01*
X120197391Y7110184D01*
X120380929Y7146692D01*
X120564465Y7183200D01*
X120938735Y7183200D01*
X121122271Y7146692D01*
G37*
G36*
X131282271Y7146692D02*
G01*
X131465809Y7110184D01*
X131609034Y7050858D01*
X131811586Y6966959D01*
X132122779Y6759026D01*
X132387426Y6494379D01*
X132595359Y6183186D01*
X132652333Y6045638D01*
X132719270Y5884038D01*
X132738584Y5837408D01*
X132811600Y5470335D01*
X132811600Y5096065D01*
X132738584Y4728992D01*
X132595359Y4383214D01*
X132387426Y4072021D01*
X132122779Y3807374D01*
X131811586Y3599441D01*
X131688407Y3548419D01*
X131465809Y3456216D01*
X131098735Y3383200D01*
X130724465Y3383200D01*
X130357391Y3456216D01*
X130134793Y3548419D01*
X130011614Y3599441D01*
X129700421Y3807374D01*
X129435774Y4072021D01*
X129227841Y4383214D01*
X129084616Y4728992D01*
X129011600Y5096065D01*
X129011600Y5470335D01*
X129084616Y5837408D01*
X129103931Y5884038D01*
X129170867Y6045638D01*
X129227841Y6183186D01*
X129435774Y6494379D01*
X129700421Y6759026D01*
X130011614Y6966959D01*
X130214166Y7050858D01*
X130357391Y7110184D01*
X130540929Y7146692D01*
X130724465Y7183200D01*
X131098735Y7183200D01*
X131282271Y7146692D01*
G37*
G36*
X126202271Y7146692D02*
G01*
X126385809Y7110184D01*
X126529034Y7050858D01*
X126731586Y6966959D01*
X127042779Y6759026D01*
X127307426Y6494379D01*
X127515359Y6183186D01*
X127572333Y6045638D01*
X127639270Y5884038D01*
X127658584Y5837408D01*
X127731600Y5470335D01*
X127731600Y5096065D01*
X127658584Y4728992D01*
X127515359Y4383214D01*
X127307426Y4072021D01*
X127042779Y3807374D01*
X126731586Y3599441D01*
X126608407Y3548419D01*
X126385809Y3456216D01*
X126018735Y3383200D01*
X125644465Y3383200D01*
X125277391Y3456216D01*
X125054793Y3548419D01*
X124931614Y3599441D01*
X124620421Y3807374D01*
X124355774Y4072021D01*
X124147841Y4383214D01*
X124004616Y4728992D01*
X123931600Y5096065D01*
X123931600Y5470335D01*
X124004616Y5837408D01*
X124023931Y5884038D01*
X124090867Y6045638D01*
X124147841Y6183186D01*
X124355774Y6494379D01*
X124620421Y6759026D01*
X124931614Y6966959D01*
X125134166Y7050858D01*
X125277391Y7110184D01*
X125460929Y7146692D01*
X125644465Y7183200D01*
X126018735Y7183200D01*
X126202271Y7146692D01*
G37*
G36*
X117571600Y3383200D02*
G01*
X113771600Y3383200D01*
X113771600Y7183200D01*
X117571600Y7183200D01*
X117571600Y3383200D01*
G37*
G36*
X101259471Y7146692D02*
G01*
X101443009Y7110184D01*
X101586234Y7050858D01*
X101788786Y6966959D01*
X102099979Y6759026D01*
X102364626Y6494379D01*
X102572559Y6183186D01*
X102629533Y6045638D01*
X102696470Y5884038D01*
X102715784Y5837408D01*
X102788800Y5470335D01*
X102788800Y5096065D01*
X102715784Y4728992D01*
X102572559Y4383214D01*
X102364626Y4072021D01*
X102099979Y3807374D01*
X101788786Y3599441D01*
X101665607Y3548419D01*
X101443009Y3456216D01*
X101075935Y3383200D01*
X100701665Y3383200D01*
X100334591Y3456216D01*
X100111993Y3548419D01*
X99988814Y3599441D01*
X99677621Y3807374D01*
X99412974Y4072021D01*
X99205041Y4383214D01*
X99061816Y4728992D01*
X98988800Y5096065D01*
X98988800Y5470335D01*
X99061816Y5837408D01*
X99081131Y5884038D01*
X99148067Y6045638D01*
X99205041Y6183186D01*
X99412974Y6494379D01*
X99677621Y6759026D01*
X99988814Y6966959D01*
X100191366Y7050858D01*
X100334591Y7110184D01*
X100518129Y7146692D01*
X100701665Y7183200D01*
X101075935Y7183200D01*
X101259471Y7146692D01*
G37*
G36*
X87548800Y3383200D02*
G01*
X83748800Y3383200D01*
X83748800Y7183200D01*
X87548800Y7183200D01*
X87548800Y3383200D01*
G37*
G36*
X91099471Y7146692D02*
G01*
X91283009Y7110184D01*
X91426234Y7050858D01*
X91628786Y6966959D01*
X91939979Y6759026D01*
X92204626Y6494379D01*
X92412559Y6183186D01*
X92469533Y6045638D01*
X92536470Y5884038D01*
X92555784Y5837408D01*
X92628800Y5470335D01*
X92628800Y5096065D01*
X92555784Y4728992D01*
X92412559Y4383214D01*
X92204626Y4072021D01*
X91939979Y3807374D01*
X91628786Y3599441D01*
X91505607Y3548419D01*
X91283009Y3456216D01*
X90915935Y3383200D01*
X90541665Y3383200D01*
X90174591Y3456216D01*
X89951993Y3548419D01*
X89828814Y3599441D01*
X89517621Y3807374D01*
X89252974Y4072021D01*
X89045041Y4383214D01*
X88901816Y4728992D01*
X88828800Y5096065D01*
X88828800Y5470335D01*
X88901816Y5837408D01*
X88921131Y5884038D01*
X88988067Y6045638D01*
X89045041Y6183186D01*
X89252974Y6494379D01*
X89517621Y6759026D01*
X89828814Y6966959D01*
X90031366Y7050858D01*
X90174591Y7110184D01*
X90358129Y7146692D01*
X90541665Y7183200D01*
X90915935Y7183200D01*
X91099471Y7146692D01*
G37*
G36*
X96179471Y7146692D02*
G01*
X96363009Y7110184D01*
X96506234Y7050858D01*
X96708786Y6966959D01*
X97019979Y6759026D01*
X97284626Y6494379D01*
X97492559Y6183186D01*
X97549533Y6045638D01*
X97616470Y5884038D01*
X97635784Y5837408D01*
X97708800Y5470335D01*
X97708800Y5096065D01*
X97635784Y4728992D01*
X97492559Y4383214D01*
X97284626Y4072021D01*
X97019979Y3807374D01*
X96708786Y3599441D01*
X96585607Y3548419D01*
X96363009Y3456216D01*
X95995935Y3383200D01*
X95621665Y3383200D01*
X95254591Y3456216D01*
X95031993Y3548419D01*
X94908814Y3599441D01*
X94597621Y3807374D01*
X94332974Y4072021D01*
X94125041Y4383214D01*
X93981816Y4728992D01*
X93908800Y5096065D01*
X93908800Y5470335D01*
X93981816Y5837408D01*
X94001131Y5884038D01*
X94068067Y6045638D01*
X94125041Y6183186D01*
X94332974Y6494379D01*
X94597621Y6759026D01*
X94908814Y6966959D01*
X95111366Y7050858D01*
X95254591Y7110184D01*
X95438129Y7146692D01*
X95621665Y7183200D01*
X95995935Y7183200D01*
X96179471Y7146692D01*
G37*
G36*
X159743546Y19672299D02*
G01*
X160125721Y19513997D01*
X160125723Y19513996D01*
X160469672Y19284177D01*
X160762177Y18991672D01*
X160991996Y18647723D01*
X160991997Y18647721D01*
X161150299Y18265546D01*
X161231000Y17859833D01*
X161231000Y17446167D01*
X161150299Y17040454D01*
X160991997Y16658279D01*
X160991996Y16658277D01*
X160762177Y16314328D01*
X160469672Y16021823D01*
X160125723Y15792004D01*
X160125722Y15792003D01*
X160125721Y15792003D01*
X159743546Y15633701D01*
X159337833Y15553000D01*
X158924167Y15553000D01*
X158518454Y15633701D01*
X158136279Y15792003D01*
X158136278Y15792003D01*
X158136277Y15792004D01*
X157792328Y16021823D01*
X157499823Y16314328D01*
X157270004Y16658277D01*
X157270003Y16658279D01*
X157111701Y17040454D01*
X157031000Y17446167D01*
X157031000Y17859833D01*
X157111701Y18265546D01*
X157270003Y18647721D01*
X157270004Y18647723D01*
X157499823Y18991672D01*
X157792328Y19284177D01*
X158136277Y19513996D01*
X158136279Y19513997D01*
X158518454Y19672299D01*
X158924167Y19753000D01*
X159337833Y19753000D01*
X159743546Y19672299D01*
G37*
G36*
X40486290Y19313181D02*
G01*
X40550689Y19300371D01*
X40732678Y19224989D01*
X40896463Y19115551D01*
X41035751Y18976263D01*
X41145189Y18812478D01*
X41220571Y18630489D01*
X41259000Y18437291D01*
X41259000Y18240309D01*
X41220571Y18047111D01*
X41145189Y17865122D01*
X41035751Y17701337D01*
X40896463Y17562049D01*
X40732678Y17452611D01*
X40550689Y17377229D01*
X40486290Y17364419D01*
X40357493Y17338800D01*
X40160507Y17338800D01*
X40031710Y17364419D01*
X39967311Y17377229D01*
X39785322Y17452611D01*
X39621537Y17562049D01*
X39482249Y17701337D01*
X39372811Y17865122D01*
X39297429Y18047111D01*
X39259000Y18240309D01*
X39259000Y18437291D01*
X39297429Y18630489D01*
X39372811Y18812478D01*
X39482249Y18976263D01*
X39621537Y19115551D01*
X39785322Y19224989D01*
X39967311Y19300371D01*
X40031710Y19313181D01*
X40160507Y19338800D01*
X40357493Y19338800D01*
X40486290Y19313181D01*
G37*
G36*
X38719000Y17338800D02*
G01*
X36719000Y17338800D01*
X36719000Y19338800D01*
X38719000Y19338800D01*
X38719000Y17338800D01*
G37*
G36*
X29876624Y23343506D02*
G01*
X30213302Y23204049D01*
X30213303Y23204048D01*
X30516306Y23001589D01*
X30773989Y22743906D01*
X30909268Y22541446D01*
X30976449Y22440902D01*
X31115906Y22104224D01*
X31187000Y21746810D01*
X31187000Y21382390D01*
X31115906Y21024976D01*
X30976449Y20688298D01*
X30976448Y20688297D01*
X30773989Y20385294D01*
X30516306Y20127611D01*
X30313846Y19992332D01*
X30213302Y19925151D01*
X29876624Y19785694D01*
X29519210Y19714600D01*
X29154790Y19714600D01*
X28797376Y19785694D01*
X28460698Y19925151D01*
X28360154Y19992332D01*
X28157694Y20127611D01*
X27900011Y20385294D01*
X27697552Y20688297D01*
X27697551Y20688298D01*
X27558094Y21024976D01*
X27487000Y21382390D01*
X27487000Y21746810D01*
X27558094Y22104224D01*
X27697551Y22440902D01*
X27764732Y22541446D01*
X27900011Y22743906D01*
X28157694Y23001589D01*
X28460697Y23204048D01*
X28460698Y23204049D01*
X28797376Y23343506D01*
X29154790Y23414600D01*
X29519210Y23414600D01*
X29876624Y23343506D01*
G37*
G36*
X60483624Y23343506D02*
G01*
X60820302Y23204049D01*
X60820303Y23204048D01*
X61123306Y23001589D01*
X61380989Y22743906D01*
X61516268Y22541446D01*
X61583449Y22440902D01*
X61722906Y22104224D01*
X61794000Y21746810D01*
X61794000Y21382390D01*
X61722906Y21024976D01*
X61583449Y20688298D01*
X61583448Y20688297D01*
X61380989Y20385294D01*
X61123306Y20127611D01*
X60920846Y19992332D01*
X60820302Y19925151D01*
X60483624Y19785694D01*
X60126210Y19714600D01*
X59761790Y19714600D01*
X59404376Y19785694D01*
X59067698Y19925151D01*
X58967154Y19992332D01*
X58764694Y20127611D01*
X58507011Y20385294D01*
X58304552Y20688297D01*
X58304551Y20688298D01*
X58165094Y21024976D01*
X58094000Y21382390D01*
X58094000Y21746810D01*
X58165094Y22104224D01*
X58304551Y22440902D01*
X58371732Y22541446D01*
X58507011Y22743906D01*
X58764694Y23001589D01*
X59067697Y23204048D01*
X59067698Y23204049D01*
X59404376Y23343506D01*
X59761790Y23414600D01*
X60126210Y23414600D01*
X60483624Y23343506D01*
G37*
G36*
X161231000Y20633000D02*
G01*
X157031000Y20633000D01*
X157031000Y24833000D01*
X161231000Y24833000D01*
X161231000Y20633000D01*
G37*
G36*
X29876624Y28042506D02*
G01*
X30213302Y27903049D01*
X30313846Y27835868D01*
X30516306Y27700589D01*
X30773989Y27442906D01*
X30802406Y27400376D01*
X30976449Y27139902D01*
X31115906Y26803224D01*
X31187000Y26445810D01*
X31187000Y26081390D01*
X31115906Y25723976D01*
X30976449Y25387298D01*
X30976448Y25387297D01*
X30773989Y25084294D01*
X30516306Y24826611D01*
X30431581Y24770000D01*
X30213302Y24624151D01*
X29876624Y24484694D01*
X29519210Y24413600D01*
X29154790Y24413600D01*
X28797376Y24484694D01*
X28460698Y24624151D01*
X28242419Y24770000D01*
X28157694Y24826611D01*
X27900011Y25084294D01*
X27697552Y25387297D01*
X27697551Y25387298D01*
X27558094Y25723976D01*
X27487000Y26081390D01*
X27487000Y26445810D01*
X27558094Y26803224D01*
X27697551Y27139902D01*
X27871594Y27400376D01*
X27900011Y27442906D01*
X28157694Y27700589D01*
X28360154Y27835868D01*
X28460698Y27903049D01*
X28797376Y28042506D01*
X29154790Y28113600D01*
X29519210Y28113600D01*
X29876624Y28042506D01*
G37*
G36*
X60483624Y28042506D02*
G01*
X60820302Y27903049D01*
X60920846Y27835868D01*
X61123306Y27700589D01*
X61380989Y27442906D01*
X61409406Y27400376D01*
X61583449Y27139902D01*
X61722906Y26803224D01*
X61794000Y26445810D01*
X61794000Y26081390D01*
X61722906Y25723976D01*
X61583449Y25387298D01*
X61583448Y25387297D01*
X61380989Y25084294D01*
X61123306Y24826611D01*
X61038581Y24770000D01*
X60820302Y24624151D01*
X60483624Y24484694D01*
X60126210Y24413600D01*
X59761790Y24413600D01*
X59404376Y24484694D01*
X59067698Y24624151D01*
X58849419Y24770000D01*
X58764694Y24826611D01*
X58507011Y25084294D01*
X58304552Y25387297D01*
X58304551Y25387298D01*
X58165094Y25723976D01*
X58094000Y26081390D01*
X58094000Y26445810D01*
X58165094Y26803224D01*
X58304551Y27139902D01*
X58478594Y27400376D01*
X58507011Y27442906D01*
X58764694Y27700589D01*
X58967154Y27835868D01*
X59067698Y27903049D01*
X59404376Y28042506D01*
X59761790Y28113600D01*
X60126210Y28113600D01*
X60483624Y28042506D01*
G37*
G36*
X5634209Y28496984D02*
G01*
X5777434Y28437658D01*
X5979986Y28353759D01*
X6291179Y28145826D01*
X6555826Y27881179D01*
X6763759Y27569986D01*
X6816397Y27442906D01*
X6906984Y27224209D01*
X6980000Y26857134D01*
X6980000Y26482866D01*
X6906984Y26115791D01*
X6847658Y25972566D01*
X6763759Y25770014D01*
X6555826Y25458821D01*
X6291179Y25194174D01*
X5979986Y24986241D01*
X5777434Y24902342D01*
X5634209Y24843016D01*
X5450671Y24806508D01*
X5267135Y24770000D01*
X4892865Y24770000D01*
X4709329Y24806508D01*
X4525791Y24843016D01*
X4382566Y24902342D01*
X4180014Y24986241D01*
X3868821Y25194174D01*
X3604174Y25458821D01*
X3396241Y25770014D01*
X3312342Y25972566D01*
X3253016Y26115791D01*
X3180000Y26482866D01*
X3180000Y26857134D01*
X3253016Y27224209D01*
X3343603Y27442906D01*
X3396241Y27569986D01*
X3604174Y27881179D01*
X3868821Y28145826D01*
X4180014Y28353759D01*
X4382566Y28437658D01*
X4525791Y28496984D01*
X4892865Y28570000D01*
X5267135Y28570000D01*
X5634209Y28496984D01*
G37*
G36*
X147739624Y29718906D02*
G01*
X148076302Y29579449D01*
X148076303Y29579448D01*
X148379306Y29376989D01*
X148636989Y29119306D01*
X148772268Y28916846D01*
X148839449Y28816302D01*
X148978906Y28479624D01*
X149050000Y28122210D01*
X149050000Y27757790D01*
X148978906Y27400376D01*
X148839449Y27063698D01*
X148839448Y27063697D01*
X148636989Y26760694D01*
X148379306Y26503011D01*
X148176846Y26367732D01*
X148076302Y26300551D01*
X147739624Y26161094D01*
X147382210Y26090000D01*
X147017790Y26090000D01*
X146660376Y26161094D01*
X146323698Y26300551D01*
X146223154Y26367732D01*
X146020694Y26503011D01*
X145763011Y26760694D01*
X145560552Y27063697D01*
X145560551Y27063698D01*
X145421094Y27400376D01*
X145350000Y27757790D01*
X145350000Y28122210D01*
X145421094Y28479624D01*
X145560551Y28816302D01*
X145627732Y28916846D01*
X145763011Y29119306D01*
X146020694Y29376989D01*
X146323697Y29579448D01*
X146323698Y29579449D01*
X146660376Y29718906D01*
X147017790Y29790000D01*
X147382210Y29790000D01*
X147739624Y29718906D01*
G37*
G36*
X141550000Y26090000D02*
G01*
X137850000Y26090000D01*
X137850000Y29790000D01*
X141550000Y29790000D01*
X141550000Y26090000D01*
G37*
G36*
X61794000Y29112600D02*
G01*
X58094000Y29112600D01*
X58094000Y32812600D01*
X61794000Y32812600D01*
X61794000Y29112600D01*
G37*
G36*
X31187000Y29112600D02*
G01*
X27487000Y29112600D01*
X27487000Y32812600D01*
X31187000Y32812600D01*
X31187000Y29112600D01*
G37*
G36*
X5634209Y33576984D02*
G01*
X5777434Y33517658D01*
X5979986Y33433759D01*
X6291179Y33225826D01*
X6555826Y32961179D01*
X6763759Y32649986D01*
X6906984Y32304208D01*
X6980000Y31937135D01*
X6980000Y31562865D01*
X6906984Y31195792D01*
X6763759Y30850014D01*
X6555826Y30538821D01*
X6291179Y30274174D01*
X5979986Y30066241D01*
X5777434Y29982342D01*
X5634209Y29923016D01*
X5450671Y29886508D01*
X5267135Y29850000D01*
X4892865Y29850000D01*
X4709329Y29886508D01*
X4525791Y29923016D01*
X4382566Y29982342D01*
X4180014Y30066241D01*
X3868821Y30274174D01*
X3604174Y30538821D01*
X3396241Y30850014D01*
X3253016Y31195792D01*
X3180000Y31562865D01*
X3180000Y31937135D01*
X3253016Y32304208D01*
X3396241Y32649986D01*
X3604174Y32961179D01*
X3868821Y33225826D01*
X4180014Y33433759D01*
X4382566Y33517658D01*
X4525791Y33576984D01*
X4892865Y33650000D01*
X5267135Y33650000D01*
X5634209Y33576984D01*
G37*
G36*
X159508391Y37044084D02*
G01*
X159981560Y36848091D01*
X159981562Y36848090D01*
X160407403Y36563552D01*
X160769552Y36201403D01*
X161054091Y35775560D01*
X161250084Y35302391D01*
X161350000Y34800079D01*
X161350000Y34287921D01*
X161250084Y33785609D01*
X161058191Y33322339D01*
X161054090Y33312438D01*
X160769552Y32886597D01*
X160407403Y32524448D01*
X159981562Y32239910D01*
X159981561Y32239909D01*
X159981560Y32239909D01*
X159508391Y32043916D01*
X159006079Y31944000D01*
X158493921Y31944000D01*
X157991609Y32043916D01*
X157518440Y32239909D01*
X157518439Y32239909D01*
X157518438Y32239910D01*
X157092597Y32524448D01*
X156730448Y32886597D01*
X156445910Y33312438D01*
X156441809Y33322339D01*
X156249916Y33785609D01*
X156150000Y34287921D01*
X156150000Y34800079D01*
X156249916Y35302391D01*
X156445909Y35775560D01*
X156730448Y36201403D01*
X157092597Y36563552D01*
X157518438Y36848090D01*
X157518440Y36848091D01*
X157991609Y37044084D01*
X158493921Y37144000D01*
X159006079Y37144000D01*
X159508391Y37044084D01*
G37*
G36*
X38744400Y32959800D02*
G01*
X36744400Y32959800D01*
X36744400Y34959800D01*
X38744400Y34959800D01*
X38744400Y32959800D01*
G37*
G36*
X40511690Y34934181D02*
G01*
X40576089Y34921371D01*
X40758078Y34845989D01*
X40921863Y34736551D01*
X41061151Y34597263D01*
X41170589Y34433478D01*
X41245971Y34251489D01*
X41284400Y34058291D01*
X41284400Y33861309D01*
X41245971Y33668111D01*
X41170589Y33486122D01*
X41061151Y33322337D01*
X40921863Y33183049D01*
X40758078Y33073611D01*
X40576089Y32998229D01*
X40511690Y32985419D01*
X40382893Y32959800D01*
X40185907Y32959800D01*
X40057110Y32985419D01*
X39992711Y32998229D01*
X39810722Y33073611D01*
X39646937Y33183049D01*
X39507649Y33322337D01*
X39398211Y33486122D01*
X39322829Y33668111D01*
X39284400Y33861309D01*
X39284400Y34058291D01*
X39322829Y34251489D01*
X39398211Y34433478D01*
X39507649Y34597263D01*
X39646937Y34736551D01*
X39810722Y34845989D01*
X39992711Y34921371D01*
X40057110Y34934181D01*
X40185907Y34959800D01*
X40382893Y34959800D01*
X40511690Y34934181D01*
G37*
G36*
X71307200Y32959800D02*
G01*
X69307200Y32959800D01*
X69307200Y34959800D01*
X71307200Y34959800D01*
X71307200Y32959800D01*
G37*
G36*
X67994490Y34934181D02*
G01*
X68058889Y34921371D01*
X68240878Y34845989D01*
X68404663Y34736551D01*
X68543951Y34597263D01*
X68653389Y34433478D01*
X68728771Y34251489D01*
X68767200Y34058291D01*
X68767200Y33861309D01*
X68728771Y33668111D01*
X68653389Y33486122D01*
X68543951Y33322337D01*
X68404663Y33183049D01*
X68240878Y33073611D01*
X68058889Y32998229D01*
X67994490Y32985419D01*
X67865693Y32959800D01*
X67668707Y32959800D01*
X67539910Y32985419D01*
X67475511Y32998229D01*
X67293522Y33073611D01*
X67129737Y33183049D01*
X66990449Y33322337D01*
X66881011Y33486122D01*
X66805629Y33668111D01*
X66767200Y33861309D01*
X66767200Y34058291D01*
X66805629Y34251489D01*
X66881011Y34433478D01*
X66990449Y34597263D01*
X67129737Y34736551D01*
X67293522Y34845989D01*
X67475511Y34921371D01*
X67539910Y34934181D01*
X67668707Y34959800D01*
X67865693Y34959800D01*
X67994490Y34934181D01*
G37*
G36*
X6980000Y34930000D02*
G01*
X3180000Y34930000D01*
X3180000Y38730000D01*
X6980000Y38730000D01*
X6980000Y34930000D01*
G37*
G36*
X59955391Y44719884D02*
G01*
X60419386Y44527691D01*
X60428562Y44523890D01*
X60854403Y44239352D01*
X61216552Y43877203D01*
X61493648Y43462500D01*
X61501091Y43451360D01*
X61697084Y42978191D01*
X61797000Y42475879D01*
X61797000Y41963721D01*
X61697084Y41461409D01*
X61652186Y41353016D01*
X61501090Y40988238D01*
X61216552Y40562397D01*
X60854403Y40200248D01*
X60428562Y39915710D01*
X60428561Y39915709D01*
X60428560Y39915709D01*
X59955391Y39719716D01*
X59453079Y39619800D01*
X58940921Y39619800D01*
X58438609Y39719716D01*
X57965440Y39915709D01*
X57965439Y39915709D01*
X57965438Y39915710D01*
X57539597Y40200248D01*
X57177448Y40562397D01*
X56892910Y40988238D01*
X56741814Y41353016D01*
X56696916Y41461409D01*
X56597000Y41963721D01*
X56597000Y42475879D01*
X56696916Y42978191D01*
X56892909Y43451360D01*
X56900353Y43462500D01*
X57177448Y43877203D01*
X57539597Y44239352D01*
X57965438Y44523890D01*
X57974614Y44527691D01*
X58438609Y44719884D01*
X58940921Y44819800D01*
X59453079Y44819800D01*
X59955391Y44719884D01*
G37*
G36*
X93051591Y44719884D02*
G01*
X93515586Y44527691D01*
X93524762Y44523890D01*
X93950603Y44239352D01*
X94312752Y43877203D01*
X94589848Y43462500D01*
X94597291Y43451360D01*
X94793284Y42978191D01*
X94893200Y42475879D01*
X94893200Y41963721D01*
X94793284Y41461409D01*
X94748386Y41353016D01*
X94597290Y40988238D01*
X94312752Y40562397D01*
X93950603Y40200248D01*
X93524762Y39915710D01*
X93524761Y39915709D01*
X93524760Y39915709D01*
X93051591Y39719716D01*
X92549279Y39619800D01*
X92037121Y39619800D01*
X91534809Y39719716D01*
X91061640Y39915709D01*
X91061639Y39915709D01*
X91061638Y39915710D01*
X90635797Y40200248D01*
X90273648Y40562397D01*
X89989110Y40988238D01*
X89838014Y41353016D01*
X89793116Y41461409D01*
X89693200Y41963721D01*
X89693200Y42475879D01*
X89793116Y42978191D01*
X89989109Y43451360D01*
X89996553Y43462500D01*
X90273648Y43877203D01*
X90635797Y44239352D01*
X91061638Y44523890D01*
X91070814Y44527691D01*
X91534809Y44719884D01*
X92037121Y44819800D01*
X92549279Y44819800D01*
X93051591Y44719884D01*
G37*
G36*
X30461391Y44723684D02*
G01*
X30934560Y44527691D01*
X30934562Y44527690D01*
X31360403Y44243152D01*
X31722552Y43881003D01*
X31999648Y43466300D01*
X32007091Y43455160D01*
X32203084Y42981991D01*
X32303000Y42479679D01*
X32303000Y41967521D01*
X32203084Y41465209D01*
X32156612Y41353016D01*
X32007090Y40992038D01*
X31722552Y40566197D01*
X31360403Y40204048D01*
X30934562Y39919510D01*
X30934561Y39919509D01*
X30934560Y39919509D01*
X30461391Y39723516D01*
X29959079Y39623600D01*
X29446921Y39623600D01*
X28944609Y39723516D01*
X28471440Y39919509D01*
X28471439Y39919509D01*
X28471438Y39919510D01*
X28045597Y40204048D01*
X27683448Y40566197D01*
X27398910Y40992038D01*
X27249388Y41353016D01*
X27202916Y41465209D01*
X27103000Y41967521D01*
X27103000Y42479679D01*
X27202916Y42981991D01*
X27398909Y43455160D01*
X27406353Y43466300D01*
X27683448Y43881003D01*
X28045597Y44243152D01*
X28471438Y44527690D01*
X28471440Y44527691D01*
X28944609Y44723684D01*
X29446921Y44823600D01*
X29959079Y44823600D01*
X30461391Y44723684D01*
G37*
G36*
X5355067Y45062509D02*
G01*
X5634209Y45006984D01*
X5701372Y44979164D01*
X5979986Y44863759D01*
X6291179Y44655826D01*
X6555826Y44391179D01*
X6763759Y44079986D01*
X6906984Y43734208D01*
X6980000Y43367135D01*
X6980000Y42992865D01*
X6906984Y42625792D01*
X6763759Y42280014D01*
X6555826Y41968821D01*
X6291179Y41704174D01*
X5979986Y41496241D01*
X5777434Y41412342D01*
X5634209Y41353016D01*
X5450671Y41316508D01*
X5267135Y41280000D01*
X4892865Y41280000D01*
X4709329Y41316508D01*
X4525791Y41353016D01*
X4382566Y41412342D01*
X4180014Y41496241D01*
X3868821Y41704174D01*
X3604174Y41968821D01*
X3396241Y42280014D01*
X3253016Y42625792D01*
X3180000Y42992865D01*
X3180000Y43367135D01*
X3253016Y43734208D01*
X3396241Y44079986D01*
X3604174Y44391179D01*
X3868821Y44655826D01*
X4180014Y44863759D01*
X4458628Y44979164D01*
X4525791Y45006984D01*
X4804933Y45062509D01*
X4892865Y45080000D01*
X5267135Y45080000D01*
X5355067Y45062509D01*
G37*
G36*
X86750690Y45209840D02*
G01*
X86842026Y45182133D01*
X86926203Y45137139D01*
X86999987Y45076587D01*
X87060539Y45002803D01*
X87105533Y44918626D01*
X87133240Y44827290D01*
X87143200Y44726160D01*
X87143200Y43513440D01*
X87133240Y43412310D01*
X87105533Y43320974D01*
X87060539Y43236797D01*
X86999987Y43163013D01*
X86926203Y43102461D01*
X86842026Y43057467D01*
X86750690Y43029760D01*
X86649560Y43019800D01*
X83936840Y43019800D01*
X83835710Y43029760D01*
X83744374Y43057467D01*
X83660197Y43102461D01*
X83586413Y43163013D01*
X83525861Y43236797D01*
X83480867Y43320974D01*
X83453160Y43412310D01*
X83443200Y43513440D01*
X83443200Y44726160D01*
X83453160Y44827290D01*
X83480867Y44918626D01*
X83525861Y45002803D01*
X83586413Y45076587D01*
X83660197Y45137139D01*
X83744374Y45182133D01*
X83835710Y45209840D01*
X83936840Y45219800D01*
X86649560Y45219800D01*
X86750690Y45209840D01*
G37*
G36*
X53654490Y45209840D02*
G01*
X53745826Y45182133D01*
X53830003Y45137139D01*
X53903787Y45076587D01*
X53964339Y45002803D01*
X54009333Y44918626D01*
X54037040Y44827290D01*
X54047000Y44726160D01*
X54047000Y43513440D01*
X54037040Y43412310D01*
X54009333Y43320974D01*
X53964339Y43236797D01*
X53903787Y43163013D01*
X53830003Y43102461D01*
X53745826Y43057467D01*
X53654490Y43029760D01*
X53553360Y43019800D01*
X50840640Y43019800D01*
X50739510Y43029760D01*
X50648174Y43057467D01*
X50563997Y43102461D01*
X50490213Y43163013D01*
X50429661Y43236797D01*
X50384667Y43320974D01*
X50356960Y43412310D01*
X50347000Y43513440D01*
X50347000Y44726160D01*
X50356960Y44827290D01*
X50384667Y44918626D01*
X50429661Y45002803D01*
X50490213Y45076587D01*
X50563997Y45137139D01*
X50648174Y45182133D01*
X50739510Y45209840D01*
X50840640Y45219800D01*
X53553360Y45219800D01*
X53654490Y45209840D01*
G37*
G36*
X38160490Y45213640D02*
G01*
X38251826Y45185933D01*
X38336003Y45140939D01*
X38409787Y45080387D01*
X38470339Y45006603D01*
X38515333Y44922426D01*
X38543040Y44831090D01*
X38553000Y44729960D01*
X38553000Y43517240D01*
X38543040Y43416110D01*
X38515333Y43324774D01*
X38470339Y43240597D01*
X38409787Y43166813D01*
X38336003Y43106261D01*
X38251826Y43061267D01*
X38160490Y43033560D01*
X38059360Y43023600D01*
X35346640Y43023600D01*
X35245510Y43033560D01*
X35154174Y43061267D01*
X35069997Y43106261D01*
X34996213Y43166813D01*
X34935661Y43240597D01*
X34890667Y43324774D01*
X34862960Y43416110D01*
X34853000Y43517240D01*
X34853000Y44729960D01*
X34862960Y44831090D01*
X34890667Y44922426D01*
X34935661Y45006603D01*
X34996213Y45080387D01*
X35069997Y45140939D01*
X35154174Y45185933D01*
X35245510Y45213640D01*
X35346640Y45223600D01*
X38059360Y45223600D01*
X38160490Y45213640D01*
G37*
G36*
X73488424Y48845106D02*
G01*
X73825102Y48705649D01*
X73825103Y48705648D01*
X74128106Y48503189D01*
X74385789Y48245506D01*
X74478829Y48106261D01*
X74588249Y47942502D01*
X74727706Y47605824D01*
X74798800Y47248410D01*
X74798800Y46883990D01*
X74727706Y46526576D01*
X74588249Y46189898D01*
X74588248Y46189897D01*
X74385789Y45886894D01*
X74128106Y45629211D01*
X73985863Y45534168D01*
X73825102Y45426751D01*
X73488424Y45287294D01*
X73131010Y45216200D01*
X72766590Y45216200D01*
X72409176Y45287294D01*
X72072498Y45426751D01*
X71911737Y45534168D01*
X71769494Y45629211D01*
X71511811Y45886894D01*
X71309352Y46189897D01*
X71309351Y46189898D01*
X71169894Y46526576D01*
X71098800Y46883990D01*
X71098800Y47248410D01*
X71169894Y47605824D01*
X71309351Y47942502D01*
X71418771Y48106261D01*
X71511811Y48245506D01*
X71769494Y48503189D01*
X72072497Y48705648D01*
X72072498Y48705649D01*
X72409176Y48845106D01*
X72766590Y48916200D01*
X73131010Y48916200D01*
X73488424Y48845106D01*
G37*
G36*
X86750690Y47709840D02*
G01*
X86842026Y47682133D01*
X86926203Y47637139D01*
X86999987Y47576587D01*
X87060539Y47502803D01*
X87105533Y47418626D01*
X87133240Y47327290D01*
X87143200Y47226160D01*
X87143200Y46013440D01*
X87133240Y45912310D01*
X87105533Y45820974D01*
X87060539Y45736797D01*
X86999987Y45663013D01*
X86926203Y45602461D01*
X86842026Y45557467D01*
X86750690Y45529760D01*
X86649560Y45519800D01*
X83936840Y45519800D01*
X83835710Y45529760D01*
X83744374Y45557467D01*
X83660197Y45602461D01*
X83586413Y45663013D01*
X83525861Y45736797D01*
X83480867Y45820974D01*
X83453160Y45912310D01*
X83443200Y46013440D01*
X83443200Y47226160D01*
X83453160Y47327290D01*
X83480867Y47418626D01*
X83525861Y47502803D01*
X83586413Y47576587D01*
X83660197Y47637139D01*
X83744374Y47682133D01*
X83835710Y47709840D01*
X83936840Y47719800D01*
X86649560Y47719800D01*
X86750690Y47709840D01*
G37*
G36*
X53654490Y47709840D02*
G01*
X53745826Y47682133D01*
X53830003Y47637139D01*
X53903787Y47576587D01*
X53964339Y47502803D01*
X54009333Y47418626D01*
X54037040Y47327290D01*
X54047000Y47226160D01*
X54047000Y46013440D01*
X54037040Y45912310D01*
X54009333Y45820974D01*
X53964339Y45736797D01*
X53903787Y45663013D01*
X53830003Y45602461D01*
X53745826Y45557467D01*
X53654490Y45529760D01*
X53553360Y45519800D01*
X50840640Y45519800D01*
X50739510Y45529760D01*
X50648174Y45557467D01*
X50563997Y45602461D01*
X50490213Y45663013D01*
X50429661Y45736797D01*
X50384667Y45820974D01*
X50356960Y45912310D01*
X50347000Y46013440D01*
X50347000Y47226160D01*
X50356960Y47327290D01*
X50384667Y47418626D01*
X50429661Y47502803D01*
X50490213Y47576587D01*
X50563997Y47637139D01*
X50648174Y47682133D01*
X50739510Y47709840D01*
X50840640Y47719800D01*
X53553360Y47719800D01*
X53654490Y47709840D01*
G37*
G36*
X38160490Y47713640D02*
G01*
X38251826Y47685933D01*
X38336003Y47640939D01*
X38409787Y47580387D01*
X38470339Y47506603D01*
X38515333Y47422426D01*
X38543040Y47331090D01*
X38553000Y47229960D01*
X38553000Y46017240D01*
X38543040Y45916110D01*
X38515333Y45824774D01*
X38470339Y45740597D01*
X38409787Y45666813D01*
X38336003Y45606261D01*
X38251826Y45561267D01*
X38160490Y45533560D01*
X38059360Y45523600D01*
X35346640Y45523600D01*
X35245510Y45533560D01*
X35154174Y45561267D01*
X35069997Y45606261D01*
X34996213Y45666813D01*
X34935661Y45740597D01*
X34890667Y45824774D01*
X34862960Y45916110D01*
X34853000Y46017240D01*
X34853000Y47229960D01*
X34862960Y47331090D01*
X34890667Y47422426D01*
X34935661Y47506603D01*
X34996213Y47580387D01*
X35069997Y47640939D01*
X35154174Y47685933D01*
X35245510Y47713640D01*
X35346640Y47723600D01*
X38059360Y47723600D01*
X38160490Y47713640D01*
G37*
G36*
X5362960Y50140939D02*
G01*
X5634209Y50086984D01*
X5777434Y50027658D01*
X5979986Y49943759D01*
X6291179Y49735826D01*
X6555826Y49471179D01*
X6763759Y49159986D01*
X6906984Y48814208D01*
X6980000Y48447135D01*
X6980000Y48072865D01*
X6954069Y47942503D01*
X6906984Y47705791D01*
X6897019Y47681734D01*
X6763759Y47360014D01*
X6555826Y47048821D01*
X6291179Y46784174D01*
X5979986Y46576241D01*
X5777434Y46492342D01*
X5634209Y46433016D01*
X5450671Y46396508D01*
X5267135Y46360000D01*
X4892865Y46360000D01*
X4709329Y46396508D01*
X4525791Y46433016D01*
X4382566Y46492342D01*
X4180014Y46576241D01*
X3868821Y46784174D01*
X3604174Y47048821D01*
X3396241Y47360014D01*
X3262981Y47681734D01*
X3253016Y47705791D01*
X3205931Y47942503D01*
X3180000Y48072865D01*
X3180000Y48447135D01*
X3253016Y48814208D01*
X3396241Y49159986D01*
X3604174Y49471179D01*
X3868821Y49735826D01*
X4180014Y49943759D01*
X4382566Y50027658D01*
X4525791Y50086984D01*
X4797040Y50140939D01*
X4892865Y50160000D01*
X5267135Y50160000D01*
X5362960Y50140939D01*
G37*
G36*
X159508391Y52030084D02*
G01*
X159981560Y51834091D01*
X159981562Y51834090D01*
X160407403Y51549552D01*
X160769552Y51187403D01*
X161052647Y50763722D01*
X161054091Y50761560D01*
X161250084Y50288391D01*
X161350000Y49786079D01*
X161350000Y49273921D01*
X161250084Y48771609D01*
X161101257Y48412310D01*
X161054090Y48298438D01*
X160769552Y47872597D01*
X160407403Y47510448D01*
X159981562Y47225910D01*
X159981561Y47225909D01*
X159981560Y47225909D01*
X159508391Y47029916D01*
X159006079Y46930000D01*
X158493921Y46930000D01*
X157991609Y47029916D01*
X157518440Y47225909D01*
X157518439Y47225909D01*
X157518438Y47225910D01*
X157092597Y47510448D01*
X156730448Y47872597D01*
X156445910Y48298438D01*
X156398743Y48412310D01*
X156249916Y48771609D01*
X156150000Y49273921D01*
X156150000Y49786079D01*
X156249916Y50288391D01*
X156445909Y50761560D01*
X156447354Y50763722D01*
X156730448Y51187403D01*
X157092597Y51549552D01*
X157518438Y51834090D01*
X157518440Y51834091D01*
X157991609Y52030084D01*
X158493921Y52130000D01*
X159006079Y52130000D01*
X159508391Y52030084D01*
G37*
G36*
X147739624Y51308906D02*
G01*
X148076302Y51169449D01*
X148076303Y51169448D01*
X148379306Y50966989D01*
X148636989Y50709306D01*
X148772268Y50506846D01*
X148839449Y50406302D01*
X148978906Y50069624D01*
X149050000Y49712210D01*
X149050000Y49347790D01*
X148978906Y48990376D01*
X148839449Y48653698D01*
X148839448Y48653697D01*
X148636989Y48350694D01*
X148379306Y48093011D01*
X148269737Y48019800D01*
X148076302Y47890551D01*
X147739624Y47751094D01*
X147382210Y47680000D01*
X147017790Y47680000D01*
X146660376Y47751094D01*
X146323698Y47890551D01*
X146130263Y48019800D01*
X146020694Y48093011D01*
X145763011Y48350694D01*
X145560552Y48653697D01*
X145560551Y48653698D01*
X145421094Y48990376D01*
X145350000Y49347790D01*
X145350000Y49712210D01*
X145421094Y50069624D01*
X145560551Y50406302D01*
X145627732Y50506846D01*
X145763011Y50709306D01*
X146020694Y50966989D01*
X146323697Y51169448D01*
X146323698Y51169449D01*
X146660376Y51308906D01*
X147017790Y51380000D01*
X147382210Y51380000D01*
X147739624Y51308906D01*
G37*
G36*
X141550000Y47680000D02*
G01*
X137850000Y47680000D01*
X137850000Y51380000D01*
X141550000Y51380000D01*
X141550000Y47680000D01*
G37*
G36*
X86750690Y50209840D02*
G01*
X86842026Y50182133D01*
X86926203Y50137139D01*
X86999987Y50076587D01*
X87060539Y50002803D01*
X87105533Y49918626D01*
X87133240Y49827290D01*
X87143200Y49726160D01*
X87143200Y48513440D01*
X87133240Y48412310D01*
X87105533Y48320974D01*
X87060539Y48236797D01*
X86999987Y48163013D01*
X86926203Y48102461D01*
X86842026Y48057467D01*
X86750690Y48029760D01*
X86649560Y48019800D01*
X83936840Y48019800D01*
X83835710Y48029760D01*
X83744374Y48057467D01*
X83660197Y48102461D01*
X83586413Y48163013D01*
X83525861Y48236797D01*
X83480867Y48320974D01*
X83453160Y48412310D01*
X83443200Y48513440D01*
X83443200Y49726160D01*
X83453160Y49827290D01*
X83480867Y49918626D01*
X83525861Y50002803D01*
X83586413Y50076587D01*
X83660197Y50137139D01*
X83744374Y50182133D01*
X83835710Y50209840D01*
X83936840Y50219800D01*
X86649560Y50219800D01*
X86750690Y50209840D01*
G37*
G36*
X53654490Y50209840D02*
G01*
X53745826Y50182133D01*
X53830003Y50137139D01*
X53903787Y50076587D01*
X53964339Y50002803D01*
X54009333Y49918626D01*
X54037040Y49827290D01*
X54047000Y49726160D01*
X54047000Y48513440D01*
X54037040Y48412310D01*
X54009333Y48320974D01*
X53964339Y48236797D01*
X53903787Y48163013D01*
X53830003Y48102461D01*
X53745826Y48057467D01*
X53654490Y48029760D01*
X53553360Y48019800D01*
X50840640Y48019800D01*
X50739510Y48029760D01*
X50648174Y48057467D01*
X50563997Y48102461D01*
X50490213Y48163013D01*
X50429661Y48236797D01*
X50384667Y48320974D01*
X50356960Y48412310D01*
X50347000Y48513440D01*
X50347000Y49726160D01*
X50356960Y49827290D01*
X50384667Y49918626D01*
X50429661Y50002803D01*
X50490213Y50076587D01*
X50563997Y50137139D01*
X50648174Y50182133D01*
X50739510Y50209840D01*
X50840640Y50219800D01*
X53553360Y50219800D01*
X53654490Y50209840D01*
G37*
G36*
X38160490Y50213640D02*
G01*
X38251826Y50185933D01*
X38336003Y50140939D01*
X38409787Y50080387D01*
X38470339Y50006603D01*
X38515333Y49922426D01*
X38543040Y49831090D01*
X38553000Y49729960D01*
X38553000Y48517240D01*
X38543040Y48416110D01*
X38515333Y48324774D01*
X38470339Y48240597D01*
X38409787Y48166813D01*
X38336003Y48106261D01*
X38251826Y48061267D01*
X38160490Y48033560D01*
X38059360Y48023600D01*
X35346640Y48023600D01*
X35245510Y48033560D01*
X35154174Y48061267D01*
X35069997Y48106261D01*
X34996213Y48166813D01*
X34935661Y48240597D01*
X34890667Y48324774D01*
X34862960Y48416110D01*
X34853000Y48517240D01*
X34853000Y49729960D01*
X34862960Y49831090D01*
X34890667Y49922426D01*
X34935661Y50006603D01*
X34996213Y50080387D01*
X35069997Y50140939D01*
X35154174Y50185933D01*
X35245510Y50213640D01*
X35346640Y50223600D01*
X38059360Y50223600D01*
X38160490Y50213640D01*
G37*
G36*
X93051591Y53519884D02*
G01*
X93515586Y53327691D01*
X93524762Y53323890D01*
X93944916Y53043152D01*
X93950603Y53039352D01*
X94312752Y52677203D01*
X94597291Y52251360D01*
X94793284Y51778191D01*
X94893200Y51275879D01*
X94893200Y50763721D01*
X94793284Y50261409D01*
X94615040Y49831090D01*
X94597290Y49788238D01*
X94312752Y49362397D01*
X93950603Y49000248D01*
X93524762Y48715710D01*
X93524761Y48715709D01*
X93524760Y48715709D01*
X93051591Y48519716D01*
X92549279Y48419800D01*
X92037121Y48419800D01*
X91534809Y48519716D01*
X91061640Y48715709D01*
X91061639Y48715709D01*
X91061638Y48715710D01*
X90635797Y49000248D01*
X90273648Y49362397D01*
X89989110Y49788238D01*
X89971360Y49831090D01*
X89793116Y50261409D01*
X89693200Y50763721D01*
X89693200Y51275879D01*
X89793116Y51778191D01*
X89989109Y52251360D01*
X90273648Y52677203D01*
X90635797Y53039352D01*
X90641484Y53043152D01*
X91061638Y53323890D01*
X91070814Y53327691D01*
X91534809Y53519884D01*
X92037121Y53619800D01*
X92549279Y53619800D01*
X93051591Y53519884D01*
G37*
G36*
X59955391Y53519884D02*
G01*
X60419386Y53327691D01*
X60428562Y53323890D01*
X60848716Y53043152D01*
X60854403Y53039352D01*
X61216552Y52677203D01*
X61501091Y52251360D01*
X61697084Y51778191D01*
X61797000Y51275879D01*
X61797000Y50763721D01*
X61697084Y50261409D01*
X61518840Y49831090D01*
X61501090Y49788238D01*
X61216552Y49362397D01*
X60854403Y49000248D01*
X60428562Y48715710D01*
X60428561Y48715709D01*
X60428560Y48715709D01*
X59955391Y48519716D01*
X59453079Y48419800D01*
X58940921Y48419800D01*
X58438609Y48519716D01*
X57965440Y48715709D01*
X57965439Y48715709D01*
X57965438Y48715710D01*
X57539597Y49000248D01*
X57177448Y49362397D01*
X56892910Y49788238D01*
X56875160Y49831090D01*
X56696916Y50261409D01*
X56597000Y50763721D01*
X56597000Y51275879D01*
X56696916Y51778191D01*
X56892909Y52251360D01*
X57177448Y52677203D01*
X57539597Y53039352D01*
X57545284Y53043152D01*
X57965438Y53323890D01*
X57974614Y53327691D01*
X58438609Y53519884D01*
X58940921Y53619800D01*
X59453079Y53619800D01*
X59955391Y53519884D01*
G37*
G36*
X30461391Y53523684D02*
G01*
X30934560Y53327691D01*
X30934562Y53327690D01*
X30940249Y53323890D01*
X31360403Y53043152D01*
X31722552Y52681003D01*
X32007091Y52255160D01*
X32203084Y51781991D01*
X32303000Y51279679D01*
X32303000Y50767521D01*
X32203084Y50265209D01*
X32023266Y49831090D01*
X32007090Y49792038D01*
X31722552Y49366197D01*
X31360403Y49004048D01*
X30934562Y48719510D01*
X30934561Y48719509D01*
X30934560Y48719509D01*
X30461391Y48523516D01*
X29959079Y48423600D01*
X29446921Y48423600D01*
X28944609Y48523516D01*
X28471440Y48719509D01*
X28471439Y48719509D01*
X28471438Y48719510D01*
X28045597Y49004048D01*
X27683448Y49366197D01*
X27398910Y49792038D01*
X27382734Y49831090D01*
X27202916Y50265209D01*
X27103000Y50767521D01*
X27103000Y51279679D01*
X27202916Y51781991D01*
X27398909Y52255160D01*
X27683448Y52681003D01*
X28045597Y53043152D01*
X28465751Y53323890D01*
X28471438Y53327690D01*
X28471440Y53327691D01*
X28944609Y53523684D01*
X29446921Y53623600D01*
X29959079Y53623600D01*
X30461391Y53523684D01*
G37*
G36*
X6980000Y51440000D02*
G01*
X3180000Y51440000D01*
X3180000Y55240000D01*
X6980000Y55240000D01*
X6980000Y51440000D01*
G37*
G36*
X15197880Y63634255D02*
G01*
X15853038Y63362880D01*
X15853040Y63362879D01*
X16442666Y62968903D01*
X16944103Y62467466D01*
X17338080Y61877838D01*
X17609455Y61222680D01*
X17747800Y60527170D01*
X17747800Y59818030D01*
X17609455Y59122520D01*
X17491217Y58837069D01*
X17338079Y58467360D01*
X16944103Y57877734D01*
X16442666Y57376297D01*
X15853040Y56982321D01*
X15853039Y56982320D01*
X15853038Y56982320D01*
X15197880Y56710945D01*
X14502370Y56572600D01*
X13793230Y56572600D01*
X13097720Y56710945D01*
X12442562Y56982320D01*
X12442561Y56982320D01*
X12442560Y56982321D01*
X11852934Y57376297D01*
X11351497Y57877734D01*
X10957521Y58467360D01*
X10804383Y58837069D01*
X10686145Y59122520D01*
X10547800Y59818030D01*
X10547800Y60527170D01*
X10686145Y61222680D01*
X10957520Y61877838D01*
X11351497Y62467466D01*
X11852934Y62968903D01*
X12442560Y63362879D01*
X12442562Y63362880D01*
X13097720Y63634255D01*
X13793230Y63772600D01*
X14502370Y63772600D01*
X15197880Y63634255D01*
G37*
G36*
X103208880Y63634255D02*
G01*
X103864038Y63362880D01*
X103864040Y63362879D01*
X104453666Y62968903D01*
X104955103Y62467466D01*
X105349080Y61877838D01*
X105620455Y61222680D01*
X105758800Y60527170D01*
X105758800Y59818030D01*
X105620455Y59122520D01*
X105502217Y58837069D01*
X105349079Y58467360D01*
X104955103Y57877734D01*
X104453666Y57376297D01*
X103864040Y56982321D01*
X103864039Y56982320D01*
X103864038Y56982320D01*
X103208880Y56710945D01*
X102513370Y56572600D01*
X101804230Y56572600D01*
X101108720Y56710945D01*
X100453562Y56982320D01*
X100453561Y56982320D01*
X100453560Y56982321D01*
X99863934Y57376297D01*
X99362497Y57877734D01*
X98968521Y58467360D01*
X98815383Y58837069D01*
X98697145Y59122520D01*
X98558800Y59818030D01*
X98558800Y60527170D01*
X98697145Y61222680D01*
X98968520Y61877838D01*
X99362497Y62467466D01*
X99863934Y62968903D01*
X100453560Y63362879D01*
X100453562Y63362880D01*
X101108720Y63634255D01*
X101804230Y63772600D01*
X102513370Y63772600D01*
X103208880Y63634255D01*
G37*
G36*
X45128631Y61508131D02*
G01*
X45222884Y61479539D01*
X45317134Y61450949D01*
X45317136Y61450948D01*
X45490858Y61358093D01*
X45643128Y61233128D01*
X45768093Y61080858D01*
X45860948Y60907137D01*
X45918131Y60718632D01*
X45932600Y60571724D01*
X45932600Y59773477D01*
X45918131Y59626569D01*
X45860948Y59438063D01*
X45768093Y59264342D01*
X45643128Y59112072D01*
X45490858Y58987107D01*
X45317137Y58894252D01*
X45317135Y58894251D01*
X45222885Y58865661D01*
X45128632Y58837069D01*
X44932600Y58817762D01*
X44736569Y58837069D01*
X44642316Y58865661D01*
X44548066Y58894251D01*
X44548064Y58894252D01*
X44374343Y58987107D01*
X44222073Y59112072D01*
X44097108Y59264342D01*
X44004251Y59438066D01*
X43947069Y59626565D01*
X43932600Y59773476D01*
X43932600Y60571723D01*
X43947069Y60718631D01*
X44004252Y60907136D01*
X44097107Y61080858D01*
X44222072Y61233128D01*
X44374342Y61358093D01*
X44548063Y61450948D01*
X44548065Y61450949D01*
X44642315Y61479539D01*
X44736568Y61508131D01*
X44932600Y61527438D01*
X45128631Y61508131D01*
G37*
G36*
X42588631Y61508131D02*
G01*
X42682884Y61479539D01*
X42777134Y61450949D01*
X42777136Y61450948D01*
X42950858Y61358093D01*
X43103128Y61233128D01*
X43228093Y61080858D01*
X43320948Y60907137D01*
X43378131Y60718632D01*
X43392600Y60571724D01*
X43392600Y59773477D01*
X43378131Y59626569D01*
X43320948Y59438063D01*
X43228093Y59264342D01*
X43103128Y59112072D01*
X42950858Y58987107D01*
X42777137Y58894252D01*
X42777135Y58894251D01*
X42682885Y58865661D01*
X42588632Y58837069D01*
X42392600Y58817762D01*
X42196569Y58837069D01*
X42102316Y58865661D01*
X42008066Y58894251D01*
X42008064Y58894252D01*
X41834343Y58987107D01*
X41682073Y59112072D01*
X41557108Y59264342D01*
X41464251Y59438066D01*
X41407069Y59626565D01*
X41392600Y59773476D01*
X41392600Y60571723D01*
X41407069Y60718631D01*
X41464252Y60907136D01*
X41557107Y61080858D01*
X41682072Y61233128D01*
X41834342Y61358093D01*
X42008063Y61450948D01*
X42008065Y61450949D01*
X42102315Y61479539D01*
X42196568Y61508131D01*
X42392600Y61527438D01*
X42588631Y61508131D01*
G37*
G36*
X40048631Y61508131D02*
G01*
X40142884Y61479539D01*
X40237134Y61450949D01*
X40237136Y61450948D01*
X40410858Y61358093D01*
X40563128Y61233128D01*
X40688093Y61080858D01*
X40780948Y60907137D01*
X40838131Y60718632D01*
X40852600Y60571724D01*
X40852600Y59773477D01*
X40838131Y59626569D01*
X40780948Y59438063D01*
X40688093Y59264342D01*
X40563128Y59112072D01*
X40410858Y58987107D01*
X40237137Y58894252D01*
X40237135Y58894251D01*
X40142885Y58865661D01*
X40048632Y58837069D01*
X39852600Y58817762D01*
X39656569Y58837069D01*
X39562316Y58865661D01*
X39468066Y58894251D01*
X39468064Y58894252D01*
X39294343Y58987107D01*
X39142073Y59112072D01*
X39017108Y59264342D01*
X38924251Y59438066D01*
X38867069Y59626565D01*
X38852600Y59773476D01*
X38852600Y60571723D01*
X38867069Y60718631D01*
X38924252Y60907136D01*
X39017107Y61080858D01*
X39142072Y61233128D01*
X39294342Y61358093D01*
X39468063Y61450948D01*
X39468065Y61450949D01*
X39562315Y61479539D01*
X39656568Y61508131D01*
X39852600Y61527438D01*
X40048631Y61508131D01*
G37*
G36*
X37508631Y61508131D02*
G01*
X37602884Y61479539D01*
X37697134Y61450949D01*
X37697136Y61450948D01*
X37870858Y61358093D01*
X38023128Y61233128D01*
X38148093Y61080858D01*
X38240948Y60907137D01*
X38298131Y60718632D01*
X38312600Y60571724D01*
X38312600Y59773477D01*
X38298131Y59626569D01*
X38240948Y59438063D01*
X38148093Y59264342D01*
X38023128Y59112072D01*
X37870858Y58987107D01*
X37697137Y58894252D01*
X37697135Y58894251D01*
X37602885Y58865661D01*
X37508632Y58837069D01*
X37312600Y58817762D01*
X37116569Y58837069D01*
X37022316Y58865661D01*
X36928066Y58894251D01*
X36928064Y58894252D01*
X36754343Y58987107D01*
X36602073Y59112072D01*
X36477108Y59264342D01*
X36384251Y59438066D01*
X36327069Y59626565D01*
X36312600Y59773476D01*
X36312600Y60571723D01*
X36327069Y60718631D01*
X36384252Y60907136D01*
X36477107Y61080858D01*
X36602072Y61233128D01*
X36754342Y61358093D01*
X36928063Y61450948D01*
X36928065Y61450949D01*
X37022315Y61479539D01*
X37116568Y61508131D01*
X37312600Y61527438D01*
X37508631Y61508131D01*
G37*
G36*
X34968631Y61508131D02*
G01*
X35062884Y61479539D01*
X35157134Y61450949D01*
X35157136Y61450948D01*
X35330858Y61358093D01*
X35483128Y61233128D01*
X35608093Y61080858D01*
X35700948Y60907137D01*
X35758131Y60718632D01*
X35772600Y60571724D01*
X35772600Y59773477D01*
X35758131Y59626569D01*
X35700948Y59438063D01*
X35608093Y59264342D01*
X35483128Y59112072D01*
X35330858Y58987107D01*
X35157137Y58894252D01*
X35157135Y58894251D01*
X35062885Y58865661D01*
X34968632Y58837069D01*
X34772600Y58817762D01*
X34576569Y58837069D01*
X34482316Y58865661D01*
X34388066Y58894251D01*
X34388064Y58894252D01*
X34214343Y58987107D01*
X34062073Y59112072D01*
X33937108Y59264342D01*
X33844251Y59438066D01*
X33787069Y59626565D01*
X33772600Y59773476D01*
X33772600Y60571723D01*
X33787069Y60718631D01*
X33844252Y60907136D01*
X33937107Y61080858D01*
X34062072Y61233128D01*
X34214342Y61358093D01*
X34388063Y61450948D01*
X34388065Y61450949D01*
X34482315Y61479539D01*
X34576568Y61508131D01*
X34772600Y61527438D01*
X34968631Y61508131D01*
G37*
G36*
X29888631Y61508131D02*
G01*
X29982884Y61479539D01*
X30077134Y61450949D01*
X30077136Y61450948D01*
X30250858Y61358093D01*
X30403128Y61233128D01*
X30528093Y61080858D01*
X30620948Y60907137D01*
X30678131Y60718632D01*
X30692600Y60571724D01*
X30692600Y59773477D01*
X30678131Y59626569D01*
X30620948Y59438063D01*
X30528093Y59264342D01*
X30403128Y59112072D01*
X30250858Y58987107D01*
X30077137Y58894252D01*
X30077135Y58894251D01*
X29982885Y58865661D01*
X29888632Y58837069D01*
X29692600Y58817762D01*
X29496569Y58837069D01*
X29402316Y58865661D01*
X29308066Y58894251D01*
X29308064Y58894252D01*
X29134343Y58987107D01*
X28982073Y59112072D01*
X28857108Y59264342D01*
X28764251Y59438066D01*
X28707069Y59626565D01*
X28692600Y59773476D01*
X28692600Y60571723D01*
X28707069Y60718631D01*
X28764252Y60907136D01*
X28857107Y61080858D01*
X28982072Y61233128D01*
X29134342Y61358093D01*
X29308063Y61450948D01*
X29308065Y61450949D01*
X29402315Y61479539D01*
X29496568Y61508131D01*
X29692600Y61527438D01*
X29888631Y61508131D01*
G37*
G36*
X75608631Y61508131D02*
G01*
X75702884Y61479539D01*
X75797134Y61450949D01*
X75797136Y61450948D01*
X75970858Y61358093D01*
X76123128Y61233128D01*
X76248093Y61080858D01*
X76340948Y60907137D01*
X76398131Y60718632D01*
X76412600Y60571724D01*
X76412600Y59773477D01*
X76398131Y59626569D01*
X76340948Y59438063D01*
X76248093Y59264342D01*
X76123128Y59112072D01*
X75970858Y58987107D01*
X75797137Y58894252D01*
X75797135Y58894251D01*
X75702885Y58865661D01*
X75608632Y58837069D01*
X75412600Y58817762D01*
X75216569Y58837069D01*
X75122316Y58865661D01*
X75028066Y58894251D01*
X75028064Y58894252D01*
X74854343Y58987107D01*
X74702073Y59112072D01*
X74577108Y59264342D01*
X74484251Y59438066D01*
X74427069Y59626565D01*
X74412600Y59773476D01*
X74412600Y60571723D01*
X74427069Y60718631D01*
X74484252Y60907136D01*
X74577107Y61080858D01*
X74702072Y61233128D01*
X74854342Y61358093D01*
X75028063Y61450948D01*
X75028065Y61450949D01*
X75122315Y61479539D01*
X75216568Y61508131D01*
X75412600Y61527438D01*
X75608631Y61508131D01*
G37*
G36*
X73068631Y61508131D02*
G01*
X73162884Y61479539D01*
X73257134Y61450949D01*
X73257136Y61450948D01*
X73430858Y61358093D01*
X73583128Y61233128D01*
X73708093Y61080858D01*
X73800948Y60907137D01*
X73858131Y60718632D01*
X73872600Y60571724D01*
X73872600Y59773477D01*
X73858131Y59626569D01*
X73800948Y59438063D01*
X73708093Y59264342D01*
X73583128Y59112072D01*
X73430858Y58987107D01*
X73257137Y58894252D01*
X73257135Y58894251D01*
X73162885Y58865661D01*
X73068632Y58837069D01*
X72872600Y58817762D01*
X72676569Y58837069D01*
X72582316Y58865661D01*
X72488066Y58894251D01*
X72488064Y58894252D01*
X72314343Y58987107D01*
X72162073Y59112072D01*
X72037108Y59264342D01*
X71944251Y59438066D01*
X71887069Y59626565D01*
X71872600Y59773476D01*
X71872600Y60571723D01*
X71887069Y60718631D01*
X71944252Y60907136D01*
X72037107Y61080858D01*
X72162072Y61233128D01*
X72314342Y61358093D01*
X72488063Y61450948D01*
X72488065Y61450949D01*
X72582315Y61479539D01*
X72676568Y61508131D01*
X72872600Y61527438D01*
X73068631Y61508131D01*
G37*
G36*
X70528631Y61508131D02*
G01*
X70622884Y61479539D01*
X70717134Y61450949D01*
X70717136Y61450948D01*
X70890858Y61358093D01*
X71043128Y61233128D01*
X71168093Y61080858D01*
X71260948Y60907137D01*
X71318131Y60718632D01*
X71332600Y60571724D01*
X71332600Y59773477D01*
X71318131Y59626569D01*
X71260948Y59438063D01*
X71168093Y59264342D01*
X71043128Y59112072D01*
X70890858Y58987107D01*
X70717137Y58894252D01*
X70717135Y58894251D01*
X70622885Y58865661D01*
X70528632Y58837069D01*
X70332600Y58817762D01*
X70136569Y58837069D01*
X70042316Y58865661D01*
X69948066Y58894251D01*
X69948064Y58894252D01*
X69774343Y58987107D01*
X69622073Y59112072D01*
X69497108Y59264342D01*
X69404251Y59438066D01*
X69347069Y59626565D01*
X69332600Y59773476D01*
X69332600Y60571723D01*
X69347069Y60718631D01*
X69404252Y60907136D01*
X69497107Y61080858D01*
X69622072Y61233128D01*
X69774342Y61358093D01*
X69948063Y61450948D01*
X69948065Y61450949D01*
X70042315Y61479539D01*
X70136568Y61508131D01*
X70332600Y61527438D01*
X70528631Y61508131D01*
G37*
G36*
X50208631Y61508131D02*
G01*
X50302884Y61479539D01*
X50397134Y61450949D01*
X50397136Y61450948D01*
X50570858Y61358093D01*
X50723128Y61233128D01*
X50848093Y61080858D01*
X50940948Y60907137D01*
X50998131Y60718632D01*
X51012600Y60571724D01*
X51012600Y59773477D01*
X50998131Y59626569D01*
X50940948Y59438063D01*
X50848093Y59264342D01*
X50723128Y59112072D01*
X50570858Y58987107D01*
X50397137Y58894252D01*
X50397135Y58894251D01*
X50302885Y58865661D01*
X50208632Y58837069D01*
X50012600Y58817762D01*
X49816569Y58837069D01*
X49722316Y58865661D01*
X49628066Y58894251D01*
X49628064Y58894252D01*
X49454343Y58987107D01*
X49302073Y59112072D01*
X49177108Y59264342D01*
X49084251Y59438066D01*
X49027069Y59626565D01*
X49012600Y59773476D01*
X49012600Y60571723D01*
X49027069Y60718631D01*
X49084252Y60907136D01*
X49177107Y61080858D01*
X49302072Y61233128D01*
X49454342Y61358093D01*
X49628063Y61450948D01*
X49628065Y61450949D01*
X49722315Y61479539D01*
X49816568Y61508131D01*
X50012600Y61527438D01*
X50208631Y61508131D01*
G37*
G36*
X47668631Y61508131D02*
G01*
X47762884Y61479539D01*
X47857134Y61450949D01*
X47857136Y61450948D01*
X48030858Y61358093D01*
X48183128Y61233128D01*
X48308093Y61080858D01*
X48400948Y60907137D01*
X48458131Y60718632D01*
X48472600Y60571724D01*
X48472600Y59773477D01*
X48458131Y59626569D01*
X48400948Y59438063D01*
X48308093Y59264342D01*
X48183128Y59112072D01*
X48030858Y58987107D01*
X47857137Y58894252D01*
X47857135Y58894251D01*
X47762885Y58865661D01*
X47668632Y58837069D01*
X47472600Y58817762D01*
X47276569Y58837069D01*
X47182316Y58865661D01*
X47088066Y58894251D01*
X47088064Y58894252D01*
X46914343Y58987107D01*
X46762073Y59112072D01*
X46637108Y59264342D01*
X46544251Y59438066D01*
X46487069Y59626565D01*
X46472600Y59773476D01*
X46472600Y60571723D01*
X46487069Y60718631D01*
X46544252Y60907136D01*
X46637107Y61080858D01*
X46762072Y61233128D01*
X46914342Y61358093D01*
X47088063Y61450948D01*
X47088065Y61450949D01*
X47182315Y61479539D01*
X47276568Y61508131D01*
X47472600Y61527438D01*
X47668631Y61508131D01*
G37*
G36*
X52748631Y61508131D02*
G01*
X52842884Y61479539D01*
X52937134Y61450949D01*
X52937136Y61450948D01*
X53110858Y61358093D01*
X53263128Y61233128D01*
X53388093Y61080858D01*
X53480948Y60907137D01*
X53538131Y60718632D01*
X53552600Y60571724D01*
X53552600Y59773477D01*
X53538131Y59626569D01*
X53480948Y59438063D01*
X53388093Y59264342D01*
X53263128Y59112072D01*
X53110858Y58987107D01*
X52937137Y58894252D01*
X52937135Y58894251D01*
X52842885Y58865661D01*
X52748632Y58837069D01*
X52552600Y58817762D01*
X52356569Y58837069D01*
X52262316Y58865661D01*
X52168066Y58894251D01*
X52168064Y58894252D01*
X51994343Y58987107D01*
X51842073Y59112072D01*
X51717108Y59264342D01*
X51624251Y59438066D01*
X51567069Y59626565D01*
X51552600Y59773476D01*
X51552600Y60571723D01*
X51567069Y60718631D01*
X51624252Y60907136D01*
X51717107Y61080858D01*
X51842072Y61233128D01*
X51994342Y61358093D01*
X52168063Y61450948D01*
X52168065Y61450949D01*
X52262315Y61479539D01*
X52356568Y61508131D01*
X52552600Y61527438D01*
X52748631Y61508131D01*
G37*
G36*
X55288631Y61508131D02*
G01*
X55382884Y61479539D01*
X55477134Y61450949D01*
X55477136Y61450948D01*
X55650858Y61358093D01*
X55803128Y61233128D01*
X55928093Y61080858D01*
X56020948Y60907137D01*
X56078131Y60718632D01*
X56092600Y60571724D01*
X56092600Y59773477D01*
X56078131Y59626569D01*
X56020948Y59438063D01*
X55928093Y59264342D01*
X55803128Y59112072D01*
X55650858Y58987107D01*
X55477137Y58894252D01*
X55477135Y58894251D01*
X55382885Y58865661D01*
X55288632Y58837069D01*
X55092600Y58817762D01*
X54896569Y58837069D01*
X54802316Y58865661D01*
X54708066Y58894251D01*
X54708064Y58894252D01*
X54534343Y58987107D01*
X54382073Y59112072D01*
X54257108Y59264342D01*
X54164251Y59438066D01*
X54107069Y59626565D01*
X54092600Y59773476D01*
X54092600Y60571723D01*
X54107069Y60718631D01*
X54164252Y60907136D01*
X54257107Y61080858D01*
X54382072Y61233128D01*
X54534342Y61358093D01*
X54708063Y61450948D01*
X54708065Y61450949D01*
X54802315Y61479539D01*
X54896568Y61508131D01*
X55092600Y61527438D01*
X55288631Y61508131D01*
G37*
G36*
X67988631Y61508131D02*
G01*
X68082884Y61479539D01*
X68177134Y61450949D01*
X68177136Y61450948D01*
X68350858Y61358093D01*
X68503128Y61233128D01*
X68628093Y61080858D01*
X68720948Y60907137D01*
X68778131Y60718632D01*
X68792600Y60571724D01*
X68792600Y59773477D01*
X68778131Y59626569D01*
X68720948Y59438063D01*
X68628093Y59264342D01*
X68503128Y59112072D01*
X68350858Y58987107D01*
X68177137Y58894252D01*
X68177135Y58894251D01*
X68082885Y58865661D01*
X67988632Y58837069D01*
X67792600Y58817762D01*
X67596569Y58837069D01*
X67502316Y58865661D01*
X67408066Y58894251D01*
X67408064Y58894252D01*
X67234343Y58987107D01*
X67082073Y59112072D01*
X66957108Y59264342D01*
X66864251Y59438066D01*
X66807069Y59626565D01*
X66792600Y59773476D01*
X66792600Y60571723D01*
X66807069Y60718631D01*
X66864252Y60907136D01*
X66957107Y61080858D01*
X67082072Y61233128D01*
X67234342Y61358093D01*
X67408063Y61450948D01*
X67408065Y61450949D01*
X67502315Y61479539D01*
X67596568Y61508131D01*
X67792600Y61527438D01*
X67988631Y61508131D01*
G37*
G36*
X57828631Y61508131D02*
G01*
X57922884Y61479539D01*
X58017134Y61450949D01*
X58017136Y61450948D01*
X58190858Y61358093D01*
X58343128Y61233128D01*
X58468093Y61080858D01*
X58560948Y60907137D01*
X58618131Y60718632D01*
X58632600Y60571724D01*
X58632600Y59773477D01*
X58618131Y59626569D01*
X58560948Y59438063D01*
X58468093Y59264342D01*
X58343128Y59112072D01*
X58190858Y58987107D01*
X58017137Y58894252D01*
X58017135Y58894251D01*
X57922885Y58865661D01*
X57828632Y58837069D01*
X57632600Y58817762D01*
X57436569Y58837069D01*
X57342316Y58865661D01*
X57248066Y58894251D01*
X57248064Y58894252D01*
X57074343Y58987107D01*
X56922073Y59112072D01*
X56797108Y59264342D01*
X56704251Y59438066D01*
X56647069Y59626565D01*
X56632600Y59773476D01*
X56632600Y60571723D01*
X56647069Y60718631D01*
X56704252Y60907136D01*
X56797107Y61080858D01*
X56922072Y61233128D01*
X57074342Y61358093D01*
X57248063Y61450948D01*
X57248065Y61450949D01*
X57342315Y61479539D01*
X57436568Y61508131D01*
X57632600Y61527438D01*
X57828631Y61508131D01*
G37*
G36*
X62908631Y61508131D02*
G01*
X63002884Y61479539D01*
X63097134Y61450949D01*
X63097136Y61450948D01*
X63270858Y61358093D01*
X63423128Y61233128D01*
X63548093Y61080858D01*
X63640948Y60907137D01*
X63698131Y60718632D01*
X63712600Y60571724D01*
X63712600Y59773477D01*
X63698131Y59626569D01*
X63640948Y59438063D01*
X63548093Y59264342D01*
X63423128Y59112072D01*
X63270858Y58987107D01*
X63097137Y58894252D01*
X63097135Y58894251D01*
X63002885Y58865661D01*
X62908632Y58837069D01*
X62712600Y58817762D01*
X62516569Y58837069D01*
X62422316Y58865661D01*
X62328066Y58894251D01*
X62328064Y58894252D01*
X62154343Y58987107D01*
X62002073Y59112072D01*
X61877108Y59264342D01*
X61784251Y59438066D01*
X61727069Y59626565D01*
X61712600Y59773476D01*
X61712600Y60571723D01*
X61727069Y60718631D01*
X61784252Y60907136D01*
X61877107Y61080858D01*
X62002072Y61233128D01*
X62154342Y61358093D01*
X62328063Y61450948D01*
X62328065Y61450949D01*
X62422315Y61479539D01*
X62516568Y61508131D01*
X62712600Y61527438D01*
X62908631Y61508131D01*
G37*
G36*
X60368631Y61508131D02*
G01*
X60462884Y61479539D01*
X60557134Y61450949D01*
X60557136Y61450948D01*
X60730858Y61358093D01*
X60883128Y61233128D01*
X61008093Y61080858D01*
X61100948Y60907137D01*
X61158131Y60718632D01*
X61172600Y60571724D01*
X61172600Y59773477D01*
X61158131Y59626569D01*
X61100948Y59438063D01*
X61008093Y59264342D01*
X60883128Y59112072D01*
X60730858Y58987107D01*
X60557137Y58894252D01*
X60557135Y58894251D01*
X60462885Y58865661D01*
X60368632Y58837069D01*
X60172600Y58817762D01*
X59976569Y58837069D01*
X59882316Y58865661D01*
X59788066Y58894251D01*
X59788064Y58894252D01*
X59614343Y58987107D01*
X59462073Y59112072D01*
X59337108Y59264342D01*
X59244251Y59438066D01*
X59187069Y59626565D01*
X59172600Y59773476D01*
X59172600Y60571723D01*
X59187069Y60718631D01*
X59244252Y60907136D01*
X59337107Y61080858D01*
X59462072Y61233128D01*
X59614342Y61358093D01*
X59788063Y61450948D01*
X59788065Y61450949D01*
X59882315Y61479539D01*
X59976568Y61508131D01*
X60172600Y61527438D01*
X60368631Y61508131D01*
G37*
G36*
X32428631Y61508131D02*
G01*
X32522884Y61479539D01*
X32617134Y61450949D01*
X32617136Y61450948D01*
X32790858Y61358093D01*
X32943128Y61233128D01*
X33068093Y61080858D01*
X33160948Y60907137D01*
X33218131Y60718632D01*
X33232600Y60571724D01*
X33232600Y59773477D01*
X33218131Y59626569D01*
X33160948Y59438063D01*
X33068093Y59264342D01*
X32943128Y59112072D01*
X32790858Y58987107D01*
X32617137Y58894252D01*
X32617135Y58894251D01*
X32522885Y58865661D01*
X32428632Y58837069D01*
X32232600Y58817762D01*
X32036569Y58837069D01*
X31942316Y58865661D01*
X31848066Y58894251D01*
X31848064Y58894252D01*
X31674343Y58987107D01*
X31522073Y59112072D01*
X31397108Y59264342D01*
X31304251Y59438066D01*
X31247069Y59626565D01*
X31232600Y59773476D01*
X31232600Y60571723D01*
X31247069Y60718631D01*
X31304252Y60907136D01*
X31397107Y61080858D01*
X31522072Y61233128D01*
X31674342Y61358093D01*
X31848063Y61450948D01*
X31848065Y61450949D01*
X31942315Y61479539D01*
X32036568Y61508131D01*
X32232600Y61527438D01*
X32428631Y61508131D01*
G37*
G36*
X65448631Y61508131D02*
G01*
X65542884Y61479539D01*
X65637134Y61450949D01*
X65637136Y61450948D01*
X65810858Y61358093D01*
X65963128Y61233128D01*
X66088093Y61080858D01*
X66180948Y60907137D01*
X66238131Y60718632D01*
X66252600Y60571724D01*
X66252600Y59773477D01*
X66238131Y59626569D01*
X66180948Y59438063D01*
X66088093Y59264342D01*
X65963128Y59112072D01*
X65810858Y58987107D01*
X65637137Y58894252D01*
X65637135Y58894251D01*
X65542885Y58865661D01*
X65448632Y58837069D01*
X65252600Y58817762D01*
X65056569Y58837069D01*
X64962316Y58865661D01*
X64868066Y58894251D01*
X64868064Y58894252D01*
X64694343Y58987107D01*
X64542073Y59112072D01*
X64417108Y59264342D01*
X64324251Y59438066D01*
X64267069Y59626565D01*
X64252600Y59773476D01*
X64252600Y60571723D01*
X64267069Y60718631D01*
X64324252Y60907136D01*
X64417107Y61080858D01*
X64542072Y61233128D01*
X64694342Y61358093D01*
X64868063Y61450948D01*
X64868065Y61450949D01*
X64962315Y61479539D01*
X65056568Y61508131D01*
X65252600Y61527438D01*
X65448631Y61508131D01*
G37*
G36*
X28152600Y58822600D02*
G01*
X26152600Y58822600D01*
X26152600Y61522600D01*
X28152600Y61522600D01*
X28152600Y58822600D01*
G37*
G36*
X159169624Y69088906D02*
G01*
X159506302Y68949449D01*
X159506303Y68949448D01*
X159809306Y68746989D01*
X160066989Y68489306D01*
X160202268Y68286846D01*
X160269449Y68186302D01*
X160408906Y67849624D01*
X160480000Y67492210D01*
X160480000Y67127790D01*
X160408906Y66770376D01*
X160269449Y66433698D01*
X160269448Y66433697D01*
X160066989Y66130694D01*
X159809306Y65873011D01*
X159606846Y65737732D01*
X159506302Y65670551D01*
X159169624Y65531094D01*
X158812210Y65460000D01*
X158447790Y65460000D01*
X158090376Y65531094D01*
X157753698Y65670551D01*
X157653154Y65737732D01*
X157450694Y65873011D01*
X157193011Y66130694D01*
X156990552Y66433697D01*
X156990551Y66433698D01*
X156851094Y66770376D01*
X156780000Y67127790D01*
X156780000Y67492210D01*
X156851094Y67849624D01*
X156990551Y68186302D01*
X157057732Y68286846D01*
X157193011Y68489306D01*
X157450694Y68746989D01*
X157753697Y68949448D01*
X157753698Y68949449D01*
X158090376Y69088906D01*
X158447790Y69160000D01*
X158812210Y69160000D01*
X159169624Y69088906D01*
G37*
G36*
X152980000Y65460000D02*
G01*
X149280000Y65460000D01*
X149280000Y69160000D01*
X152980000Y69160000D01*
X152980000Y65460000D01*
G37*
G36*
X139821857Y68240728D02*
G01*
X140022043Y68157808D01*
X140022045Y68157807D01*
X140112738Y68097208D01*
X140202208Y68037426D01*
X140355426Y67884208D01*
X140475808Y67704043D01*
X140558728Y67503857D01*
X140601000Y67291342D01*
X140601000Y67074658D01*
X140558728Y66862143D01*
X140475808Y66661957D01*
X140375878Y66512400D01*
X140355425Y66481791D01*
X140202209Y66328575D01*
X140022045Y66208193D01*
X140022044Y66208192D01*
X140022043Y66208192D01*
X139821857Y66125272D01*
X139609342Y66083000D01*
X139392658Y66083000D01*
X139180143Y66125272D01*
X138979957Y66208192D01*
X138979956Y66208192D01*
X138979955Y66208193D01*
X138799791Y66328575D01*
X138646575Y66481791D01*
X138626123Y66512400D01*
X138526192Y66661957D01*
X138443272Y66862143D01*
X138401000Y67074658D01*
X138401000Y67291342D01*
X138443272Y67503857D01*
X138526192Y67704043D01*
X138646574Y67884208D01*
X138799792Y68037426D01*
X138889262Y68097208D01*
X138979955Y68157807D01*
X138979957Y68157808D01*
X139180143Y68240728D01*
X139392658Y68283000D01*
X139609342Y68283000D01*
X139821857Y68240728D01*
G37*
G36*
X135321857Y68240728D02*
G01*
X135522043Y68157808D01*
X135522045Y68157807D01*
X135612738Y68097208D01*
X135702208Y68037426D01*
X135855426Y67884208D01*
X135975808Y67704043D01*
X136058728Y67503857D01*
X136101000Y67291342D01*
X136101000Y67074658D01*
X136058728Y66862143D01*
X135975808Y66661957D01*
X135875878Y66512400D01*
X135855425Y66481791D01*
X135702209Y66328575D01*
X135522045Y66208193D01*
X135522044Y66208192D01*
X135522043Y66208192D01*
X135321857Y66125272D01*
X135109342Y66083000D01*
X134892658Y66083000D01*
X134680143Y66125272D01*
X134479957Y66208192D01*
X134479956Y66208192D01*
X134479955Y66208193D01*
X134299791Y66328575D01*
X134146575Y66481791D01*
X134126123Y66512400D01*
X134026192Y66661957D01*
X133943272Y66862143D01*
X133901000Y67074658D01*
X133901000Y67291342D01*
X133943272Y67503857D01*
X134026192Y67704043D01*
X134146574Y67884208D01*
X134299792Y68037426D01*
X134389262Y68097208D01*
X134479955Y68157807D01*
X134479957Y68157808D01*
X134680143Y68240728D01*
X134892658Y68283000D01*
X135109342Y68283000D01*
X135321857Y68240728D01*
G37*
G36*
X111160600Y66512400D02*
G01*
X109260600Y66512400D01*
X109260600Y68412400D01*
X111160600Y68412400D01*
X111160600Y66512400D01*
G37*
G36*
X17485400Y67401400D02*
G01*
X15585400Y67401400D01*
X15585400Y69301400D01*
X17485400Y69301400D01*
X17485400Y67401400D01*
G37*
G36*
X110395936Y70934146D02*
G01*
X110487705Y70915892D01*
X110660594Y70844279D01*
X110816190Y70740313D01*
X110948513Y70607990D01*
X111052479Y70452394D01*
X111124092Y70279505D01*
X111160600Y70095967D01*
X111160600Y69908833D01*
X111124092Y69725295D01*
X111052479Y69552406D01*
X110948513Y69396810D01*
X110816190Y69264487D01*
X110660594Y69160521D01*
X110487705Y69088908D01*
X110395936Y69070654D01*
X110304168Y69052400D01*
X110117032Y69052400D01*
X110025264Y69070654D01*
X109933495Y69088908D01*
X109760606Y69160521D01*
X109605010Y69264487D01*
X109472687Y69396810D01*
X109368721Y69552406D01*
X109297108Y69725295D01*
X109260600Y69908833D01*
X109260600Y70095967D01*
X109297108Y70279505D01*
X109368721Y70452394D01*
X109472687Y70607990D01*
X109605010Y70740313D01*
X109760606Y70844279D01*
X109933495Y70915892D01*
X110025264Y70934146D01*
X110117032Y70952400D01*
X110304168Y70952400D01*
X110395936Y70934146D01*
G37*
G36*
X16720736Y71823146D02*
G01*
X16812505Y71804892D01*
X16985394Y71733279D01*
X17140990Y71629313D01*
X17273313Y71496990D01*
X17377279Y71341394D01*
X17448892Y71168505D01*
X17485400Y70984967D01*
X17485400Y70797833D01*
X17448892Y70614295D01*
X17377279Y70441406D01*
X17273313Y70285810D01*
X17140990Y70153487D01*
X16985394Y70049521D01*
X16812505Y69977908D01*
X16720736Y69959654D01*
X16628968Y69941400D01*
X16441832Y69941400D01*
X16350064Y69959654D01*
X16258295Y69977908D01*
X16085406Y70049521D01*
X15929810Y70153487D01*
X15797487Y70285810D01*
X15693521Y70441406D01*
X15621908Y70614295D01*
X15585400Y70797833D01*
X15585400Y70984967D01*
X15621908Y71168505D01*
X15693521Y71341394D01*
X15797487Y71496990D01*
X15929810Y71629313D01*
X16085406Y71733279D01*
X16258295Y71804892D01*
X16350064Y71823146D01*
X16441832Y71841400D01*
X16628968Y71841400D01*
X16720736Y71823146D01*
G37*
G36*
X5351196Y74273279D02*
G01*
X5634209Y74216984D01*
X5777434Y74157658D01*
X5979986Y74073759D01*
X6291179Y73865826D01*
X6555826Y73601179D01*
X6763759Y73289986D01*
X6822575Y73147990D01*
X6891576Y72981408D01*
X6906984Y72944208D01*
X6980000Y72577135D01*
X6980000Y72202865D01*
X6906984Y71835792D01*
X6763759Y71490014D01*
X6555826Y71178821D01*
X6291179Y70914174D01*
X5979986Y70706241D01*
X5777434Y70622342D01*
X5634209Y70563016D01*
X5450671Y70526508D01*
X5267135Y70490000D01*
X4892865Y70490000D01*
X4709329Y70526508D01*
X4525791Y70563016D01*
X4382566Y70622342D01*
X4180014Y70706241D01*
X3868821Y70914174D01*
X3604174Y71178821D01*
X3396241Y71490014D01*
X3253016Y71835792D01*
X3180000Y72202865D01*
X3180000Y72577135D01*
X3253016Y72944208D01*
X3268425Y72981408D01*
X3337425Y73147990D01*
X3396241Y73289986D01*
X3604174Y73601179D01*
X3868821Y73865826D01*
X4180014Y74073759D01*
X4382566Y74157658D01*
X4525791Y74216984D01*
X4808804Y74273279D01*
X4892865Y74290000D01*
X5267135Y74290000D01*
X5351196Y74273279D01*
G37*
G36*
X110395936Y73474146D02*
G01*
X110487705Y73455892D01*
X110660594Y73384279D01*
X110816190Y73280313D01*
X110948513Y73147990D01*
X111052479Y72992394D01*
X111124092Y72819505D01*
X111160600Y72635967D01*
X111160600Y72448833D01*
X111124092Y72265295D01*
X111052479Y72092406D01*
X110948513Y71936810D01*
X110816190Y71804487D01*
X110660594Y71700521D01*
X110487705Y71628908D01*
X110395936Y71610654D01*
X110304168Y71592400D01*
X110117032Y71592400D01*
X110025264Y71610654D01*
X109933495Y71628908D01*
X109760606Y71700521D01*
X109605010Y71804487D01*
X109472687Y71936810D01*
X109368721Y72092406D01*
X109297108Y72265295D01*
X109260600Y72448833D01*
X109260600Y72635967D01*
X109297108Y72819505D01*
X109368721Y72992394D01*
X109472687Y73147990D01*
X109605010Y73280313D01*
X109760606Y73384279D01*
X109933495Y73455892D01*
X110025264Y73474146D01*
X110117032Y73492400D01*
X110304168Y73492400D01*
X110395936Y73474146D01*
G37*
G36*
X16720736Y74363146D02*
G01*
X16812505Y74344892D01*
X16985394Y74273279D01*
X17140990Y74169313D01*
X17273313Y74036990D01*
X17377279Y73881394D01*
X17414580Y73791341D01*
X17448892Y73708504D01*
X17470241Y73601179D01*
X17485400Y73524967D01*
X17485400Y73337833D01*
X17448892Y73154295D01*
X17377279Y72981406D01*
X17273313Y72825810D01*
X17140990Y72693487D01*
X16985394Y72589521D01*
X16812505Y72517908D01*
X16720736Y72499654D01*
X16628968Y72481400D01*
X16441832Y72481400D01*
X16350064Y72499654D01*
X16258295Y72517908D01*
X16085406Y72589521D01*
X15929810Y72693487D01*
X15797487Y72825810D01*
X15693521Y72981406D01*
X15621908Y73154295D01*
X15585400Y73337833D01*
X15585400Y73524967D01*
X15600560Y73601179D01*
X15621908Y73708504D01*
X15656220Y73791341D01*
X15693521Y73881394D01*
X15797487Y74036990D01*
X15929810Y74169313D01*
X16085406Y74273279D01*
X16258295Y74344892D01*
X16350064Y74363146D01*
X16441832Y74381400D01*
X16628968Y74381400D01*
X16720736Y74363146D01*
G37*
G36*
X135321857Y74740728D02*
G01*
X135522043Y74657808D01*
X135522045Y74657807D01*
X135560057Y74632408D01*
X135702208Y74537426D01*
X135855426Y74384208D01*
X135975808Y74204043D01*
X136058728Y74003857D01*
X136101000Y73791342D01*
X136101000Y73574658D01*
X136058728Y73362143D01*
X135975808Y73161957D01*
X135975807Y73161955D01*
X135966476Y73147990D01*
X135855426Y72981792D01*
X135702208Y72828574D01*
X135612738Y72768792D01*
X135522045Y72708193D01*
X135522044Y72708192D01*
X135522043Y72708192D01*
X135321857Y72625272D01*
X135109342Y72583000D01*
X134892658Y72583000D01*
X134680143Y72625272D01*
X134479957Y72708192D01*
X134479956Y72708192D01*
X134479955Y72708193D01*
X134389262Y72768792D01*
X134299792Y72828574D01*
X134146574Y72981792D01*
X134035524Y73147990D01*
X134026193Y73161955D01*
X134026192Y73161957D01*
X133943272Y73362143D01*
X133901000Y73574658D01*
X133901000Y73791342D01*
X133943272Y74003857D01*
X134026192Y74204043D01*
X134146574Y74384208D01*
X134299792Y74537426D01*
X134441943Y74632408D01*
X134479955Y74657807D01*
X134479957Y74657808D01*
X134680143Y74740728D01*
X134892658Y74783000D01*
X135109342Y74783000D01*
X135321857Y74740728D01*
G37*
G36*
X139821857Y74740728D02*
G01*
X140022043Y74657808D01*
X140022045Y74657807D01*
X140060057Y74632408D01*
X140202208Y74537426D01*
X140355426Y74384208D01*
X140475808Y74204043D01*
X140558728Y74003857D01*
X140601000Y73791342D01*
X140601000Y73574658D01*
X140558728Y73362143D01*
X140475808Y73161957D01*
X140475807Y73161955D01*
X140466476Y73147990D01*
X140355426Y72981792D01*
X140202208Y72828574D01*
X140112738Y72768792D01*
X140022045Y72708193D01*
X140022044Y72708192D01*
X140022043Y72708192D01*
X139821857Y72625272D01*
X139609342Y72583000D01*
X139392658Y72583000D01*
X139180143Y72625272D01*
X138979957Y72708192D01*
X138979956Y72708192D01*
X138979955Y72708193D01*
X138889262Y72768792D01*
X138799792Y72828574D01*
X138646574Y72981792D01*
X138535524Y73147990D01*
X138526193Y73161955D01*
X138526192Y73161957D01*
X138443272Y73362143D01*
X138401000Y73574658D01*
X138401000Y73791342D01*
X138443272Y74003857D01*
X138526192Y74204043D01*
X138646574Y74384208D01*
X138799792Y74537426D01*
X138941943Y74632408D01*
X138979955Y74657807D01*
X138979957Y74657808D01*
X139180143Y74740728D01*
X139392658Y74783000D01*
X139609342Y74783000D01*
X139821857Y74740728D01*
G37*
G36*
X110395936Y76014146D02*
G01*
X110487705Y75995892D01*
X110660594Y75924279D01*
X110816190Y75820313D01*
X110948513Y75687990D01*
X111052479Y75532394D01*
X111124092Y75359505D01*
X111160600Y75175967D01*
X111160600Y74988833D01*
X111124092Y74805295D01*
X111052479Y74632406D01*
X110948513Y74476810D01*
X110816190Y74344487D01*
X110660594Y74240521D01*
X110487705Y74168908D01*
X110395936Y74150654D01*
X110304168Y74132400D01*
X110117032Y74132400D01*
X110025264Y74150654D01*
X109933495Y74168908D01*
X109760606Y74240521D01*
X109605010Y74344487D01*
X109472687Y74476810D01*
X109368721Y74632406D01*
X109297108Y74805295D01*
X109260600Y74988833D01*
X109260600Y75175967D01*
X109297108Y75359505D01*
X109368721Y75532394D01*
X109472687Y75687990D01*
X109605010Y75820313D01*
X109760606Y75924279D01*
X109933495Y75995892D01*
X110025264Y76014146D01*
X110117032Y76032400D01*
X110304168Y76032400D01*
X110395936Y76014146D01*
G37*
G36*
X6980000Y75570000D02*
G01*
X3180000Y75570000D01*
X3180000Y79370000D01*
X6980000Y79370000D01*
X6980000Y75570000D01*
G37*
G36*
X110395936Y78554146D02*
G01*
X110487705Y78535892D01*
X110660594Y78464279D01*
X110816190Y78360313D01*
X110948513Y78227990D01*
X111052479Y78072394D01*
X111124092Y77899505D01*
X111160600Y77715967D01*
X111160600Y77528833D01*
X111124092Y77345295D01*
X111052479Y77172406D01*
X110948513Y77016810D01*
X110816190Y76884487D01*
X110660594Y76780521D01*
X110487705Y76708908D01*
X110395936Y76690654D01*
X110304168Y76672400D01*
X110117032Y76672400D01*
X110025264Y76690654D01*
X109933495Y76708908D01*
X109760606Y76780521D01*
X109605010Y76884487D01*
X109472687Y77016810D01*
X109368721Y77172406D01*
X109297108Y77345295D01*
X109260600Y77528833D01*
X109260600Y77715967D01*
X109297108Y77899505D01*
X109368721Y78072394D01*
X109472687Y78227990D01*
X109605010Y78360313D01*
X109760606Y78464279D01*
X109933495Y78535892D01*
X110025264Y78554146D01*
X110117032Y78572400D01*
X110304168Y78572400D01*
X110395936Y78554146D01*
G37*
G36*
X110395936Y81094146D02*
G01*
X110487705Y81075892D01*
X110660594Y81004279D01*
X110816190Y80900313D01*
X110948513Y80767990D01*
X111052479Y80612394D01*
X111124092Y80439505D01*
X111160600Y80255967D01*
X111160600Y80068833D01*
X111124092Y79885295D01*
X111052479Y79712406D01*
X110948513Y79556810D01*
X110816190Y79424487D01*
X110660594Y79320521D01*
X110487705Y79248908D01*
X110395936Y79230654D01*
X110304168Y79212400D01*
X110117032Y79212400D01*
X110025264Y79230654D01*
X109933495Y79248908D01*
X109760606Y79320521D01*
X109605010Y79424487D01*
X109472687Y79556810D01*
X109368721Y79712406D01*
X109297108Y79885295D01*
X109260600Y80068833D01*
X109260600Y80255967D01*
X109297108Y80439505D01*
X109368721Y80612394D01*
X109472687Y80767990D01*
X109605010Y80900313D01*
X109760606Y81004279D01*
X109933495Y81075892D01*
X110025264Y81094146D01*
X110117032Y81112400D01*
X110304168Y81112400D01*
X110395936Y81094146D01*
G37*
G36*
X5634209Y84503984D02*
G01*
X5777434Y84444658D01*
X5979986Y84360759D01*
X6291179Y84152826D01*
X6555826Y83888179D01*
X6763759Y83576986D01*
X6806593Y83473575D01*
X6890804Y83270272D01*
X6906984Y83231208D01*
X6980000Y82864135D01*
X6980000Y82489865D01*
X6906984Y82122792D01*
X6763759Y81777014D01*
X6555826Y81465821D01*
X6291179Y81201174D01*
X5979986Y80993241D01*
X5777434Y80909342D01*
X5634209Y80850016D01*
X5450671Y80813508D01*
X5267135Y80777000D01*
X4892865Y80777000D01*
X4709329Y80813508D01*
X4525791Y80850016D01*
X4382566Y80909342D01*
X4180014Y80993241D01*
X3868821Y81201174D01*
X3604174Y81465821D01*
X3396241Y81777014D01*
X3253016Y82122792D01*
X3180000Y82489865D01*
X3180000Y82864135D01*
X3253016Y83231208D01*
X3269197Y83270272D01*
X3353407Y83473575D01*
X3396241Y83576986D01*
X3604174Y83888179D01*
X3868821Y84152826D01*
X4180014Y84360759D01*
X4382566Y84444658D01*
X4525791Y84503984D01*
X4892865Y84577000D01*
X5267135Y84577000D01*
X5634209Y84503984D01*
G37*
G36*
X156657857Y85362728D02*
G01*
X156858043Y85279808D01*
X156858045Y85279807D01*
X156886799Y85260594D01*
X157038208Y85159426D01*
X157191426Y85006208D01*
X157311808Y84826043D01*
X157394728Y84625857D01*
X157437000Y84413342D01*
X157437000Y84196658D01*
X157394728Y83984143D01*
X157321335Y83806957D01*
X157311807Y83783955D01*
X157191425Y83603791D01*
X157038209Y83450575D01*
X156858045Y83330193D01*
X156858044Y83330192D01*
X156858043Y83330192D01*
X156657857Y83247272D01*
X156445342Y83205000D01*
X156228658Y83205000D01*
X156016143Y83247272D01*
X155815957Y83330192D01*
X155815956Y83330192D01*
X155815955Y83330193D01*
X155635791Y83450575D01*
X155482575Y83603791D01*
X155362193Y83783955D01*
X155352665Y83806957D01*
X155279272Y83984143D01*
X155237000Y84196658D01*
X155237000Y84413342D01*
X155279272Y84625857D01*
X155362192Y84826043D01*
X155482574Y85006208D01*
X155635792Y85159426D01*
X155787201Y85260594D01*
X155815955Y85279807D01*
X155815957Y85279808D01*
X156016143Y85362728D01*
X156228658Y85405000D01*
X156445342Y85405000D01*
X156657857Y85362728D01*
G37*
G36*
X152157857Y85362728D02*
G01*
X152358043Y85279808D01*
X152358045Y85279807D01*
X152386799Y85260594D01*
X152538208Y85159426D01*
X152691426Y85006208D01*
X152811808Y84826043D01*
X152894728Y84625857D01*
X152937000Y84413342D01*
X152937000Y84196658D01*
X152894728Y83984143D01*
X152821335Y83806957D01*
X152811807Y83783955D01*
X152691425Y83603791D01*
X152538209Y83450575D01*
X152358045Y83330193D01*
X152358044Y83330192D01*
X152358043Y83330192D01*
X152157857Y83247272D01*
X151945342Y83205000D01*
X151728658Y83205000D01*
X151516143Y83247272D01*
X151315957Y83330192D01*
X151315956Y83330192D01*
X151315955Y83330193D01*
X151135791Y83450575D01*
X150982575Y83603791D01*
X150862193Y83783955D01*
X150852665Y83806957D01*
X150779272Y83984143D01*
X150737000Y84196658D01*
X150737000Y84413342D01*
X150779272Y84625857D01*
X150862192Y84826043D01*
X150982574Y85006208D01*
X151135792Y85159426D01*
X151287201Y85260594D01*
X151315955Y85279807D01*
X151315957Y85279808D01*
X151516143Y85362728D01*
X151728658Y85405000D01*
X151945342Y85405000D01*
X152157857Y85362728D01*
G37*
G36*
X121406857Y85385728D02*
G01*
X121558778Y85322800D01*
X121607045Y85302807D01*
X121787209Y85182425D01*
X121940425Y85029209D01*
X122023976Y84904167D01*
X122060808Y84849043D01*
X122143728Y84648857D01*
X122186000Y84436342D01*
X122186000Y84219658D01*
X122143728Y84007143D01*
X122060808Y83806957D01*
X122060807Y83806955D01*
X121940425Y83626791D01*
X121787209Y83473575D01*
X121607045Y83353193D01*
X121607044Y83353192D01*
X121607043Y83353192D01*
X121406857Y83270272D01*
X121194342Y83228000D01*
X120977658Y83228000D01*
X120765143Y83270272D01*
X120564957Y83353192D01*
X120564956Y83353192D01*
X120564955Y83353193D01*
X120384791Y83473575D01*
X120231575Y83626791D01*
X120111193Y83806955D01*
X120111192Y83806957D01*
X120028272Y84007143D01*
X119986000Y84219658D01*
X119986000Y84436342D01*
X120028272Y84648857D01*
X120111192Y84849043D01*
X120148025Y84904167D01*
X120231575Y85029209D01*
X120384791Y85182425D01*
X120564955Y85302807D01*
X120613222Y85322800D01*
X120765143Y85385728D01*
X120977658Y85428000D01*
X121194342Y85428000D01*
X121406857Y85385728D01*
G37*
G36*
X116906857Y85385728D02*
G01*
X117058778Y85322800D01*
X117107045Y85302807D01*
X117287209Y85182425D01*
X117440425Y85029209D01*
X117523976Y84904167D01*
X117560808Y84849043D01*
X117643728Y84648857D01*
X117686000Y84436342D01*
X117686000Y84219658D01*
X117643728Y84007143D01*
X117560808Y83806957D01*
X117560807Y83806955D01*
X117440425Y83626791D01*
X117287209Y83473575D01*
X117107045Y83353193D01*
X117107044Y83353192D01*
X117107043Y83353192D01*
X116906857Y83270272D01*
X116694342Y83228000D01*
X116477658Y83228000D01*
X116265143Y83270272D01*
X116064957Y83353192D01*
X116064956Y83353192D01*
X116064955Y83353193D01*
X115884791Y83473575D01*
X115731575Y83626791D01*
X115611193Y83806955D01*
X115611192Y83806957D01*
X115528272Y84007143D01*
X115486000Y84219658D01*
X115486000Y84436342D01*
X115528272Y84648857D01*
X115611192Y84849043D01*
X115648025Y84904167D01*
X115731575Y85029209D01*
X115884791Y85182425D01*
X116064955Y85302807D01*
X116113222Y85322800D01*
X116265143Y85385728D01*
X116477658Y85428000D01*
X116694342Y85428000D01*
X116906857Y85385728D01*
G37*
G36*
X33789536Y85742346D02*
G01*
X33881305Y85724092D01*
X34054194Y85652479D01*
X34209790Y85548513D01*
X34342113Y85416190D01*
X34446079Y85260594D01*
X34517692Y85087705D01*
X34554200Y84904167D01*
X34554200Y84717033D01*
X34517692Y84533495D01*
X34446079Y84360606D01*
X34342113Y84205010D01*
X34209790Y84072687D01*
X34054194Y83968721D01*
X33881305Y83897108D01*
X33789536Y83878854D01*
X33697768Y83860600D01*
X33510632Y83860600D01*
X33418864Y83878854D01*
X33327095Y83897108D01*
X33154206Y83968721D01*
X32998610Y84072687D01*
X32866287Y84205010D01*
X32762321Y84360606D01*
X32690708Y84533495D01*
X32654200Y84717033D01*
X32654200Y84904167D01*
X32690708Y85087705D01*
X32762321Y85260594D01*
X32866287Y85416190D01*
X32998610Y85548513D01*
X33154206Y85652479D01*
X33327095Y85724092D01*
X33418864Y85742346D01*
X33510632Y85760600D01*
X33697768Y85760600D01*
X33789536Y85742346D01*
G37*
G36*
X28709536Y85742346D02*
G01*
X28801305Y85724092D01*
X28974194Y85652479D01*
X29129790Y85548513D01*
X29262113Y85416190D01*
X29366079Y85260594D01*
X29437692Y85087705D01*
X29474200Y84904167D01*
X29474200Y84717033D01*
X29437692Y84533495D01*
X29366079Y84360606D01*
X29262113Y84205010D01*
X29129790Y84072687D01*
X28974194Y83968721D01*
X28801305Y83897108D01*
X28709536Y83878854D01*
X28617768Y83860600D01*
X28430632Y83860600D01*
X28338864Y83878854D01*
X28247095Y83897108D01*
X28074206Y83968721D01*
X27918610Y84072687D01*
X27786287Y84205010D01*
X27682321Y84360606D01*
X27610708Y84533495D01*
X27574200Y84717033D01*
X27574200Y84904167D01*
X27610708Y85087705D01*
X27682321Y85260594D01*
X27786287Y85416190D01*
X27918610Y85548513D01*
X28074206Y85652479D01*
X28247095Y85724092D01*
X28338864Y85742346D01*
X28430632Y85760600D01*
X28617768Y85760600D01*
X28709536Y85742346D01*
G37*
G36*
X31249536Y85742346D02*
G01*
X31341305Y85724092D01*
X31514194Y85652479D01*
X31669790Y85548513D01*
X31802113Y85416190D01*
X31906079Y85260594D01*
X31977692Y85087705D01*
X32014200Y84904167D01*
X32014200Y84717033D01*
X31977692Y84533495D01*
X31906079Y84360606D01*
X31802113Y84205010D01*
X31669790Y84072687D01*
X31514194Y83968721D01*
X31341305Y83897108D01*
X31249536Y83878854D01*
X31157768Y83860600D01*
X30970632Y83860600D01*
X30878864Y83878854D01*
X30787095Y83897108D01*
X30614206Y83968721D01*
X30458610Y84072687D01*
X30326287Y84205010D01*
X30222321Y84360606D01*
X30150708Y84533495D01*
X30114200Y84717033D01*
X30114200Y84904167D01*
X30150708Y85087705D01*
X30222321Y85260594D01*
X30326287Y85416190D01*
X30458610Y85548513D01*
X30614206Y85652479D01*
X30787095Y85724092D01*
X30878864Y85742346D01*
X30970632Y85760600D01*
X31157768Y85760600D01*
X31249536Y85742346D01*
G37*
G36*
X131578224Y88951706D02*
G01*
X131914902Y88812249D01*
X131914903Y88812248D01*
X132217906Y88609789D01*
X132475589Y88352106D01*
X132582248Y88192479D01*
X132678049Y88049102D01*
X132817506Y87712424D01*
X132888600Y87355010D01*
X132888600Y86990590D01*
X132817506Y86633176D01*
X132678049Y86296498D01*
X132678048Y86296497D01*
X132475589Y85993494D01*
X132217906Y85735811D01*
X132093190Y85652479D01*
X131914902Y85533351D01*
X131578224Y85393894D01*
X131220810Y85322800D01*
X130856390Y85322800D01*
X130498976Y85393894D01*
X130162298Y85533351D01*
X129984010Y85652479D01*
X129859294Y85735811D01*
X129601611Y85993494D01*
X129399152Y86296497D01*
X129399151Y86296498D01*
X129259694Y86633176D01*
X129188600Y86990590D01*
X129188600Y87355010D01*
X129259694Y87712424D01*
X129399151Y88049102D01*
X129494952Y88192479D01*
X129601611Y88352106D01*
X129859294Y88609789D01*
X130162297Y88812248D01*
X130162298Y88812249D01*
X130498976Y88951706D01*
X130856390Y89022800D01*
X131220810Y89022800D01*
X131578224Y88951706D01*
G37*
G36*
X6980000Y85857000D02*
G01*
X3180000Y85857000D01*
X3180000Y89657000D01*
X6980000Y89657000D01*
X6980000Y85857000D01*
G37*
G36*
X29474200Y86400600D02*
G01*
X27574200Y86400600D01*
X27574200Y88300600D01*
X29474200Y88300600D01*
X29474200Y86400600D01*
G37*
G36*
X33789536Y88282346D02*
G01*
X33881305Y88264092D01*
X34054194Y88192479D01*
X34209790Y88088513D01*
X34342113Y87956190D01*
X34446079Y87800594D01*
X34517692Y87627705D01*
X34554200Y87444167D01*
X34554200Y87257033D01*
X34517692Y87073495D01*
X34446079Y86900606D01*
X34342113Y86745010D01*
X34209790Y86612687D01*
X34054194Y86508721D01*
X33881305Y86437108D01*
X33789536Y86418854D01*
X33697768Y86400600D01*
X33510632Y86400600D01*
X33418864Y86418854D01*
X33327095Y86437108D01*
X33154206Y86508721D01*
X32998610Y86612687D01*
X32866287Y86745010D01*
X32762321Y86900606D01*
X32690708Y87073495D01*
X32654200Y87257033D01*
X32654200Y87444167D01*
X32690708Y87627705D01*
X32762321Y87800594D01*
X32866287Y87956190D01*
X32998610Y88088513D01*
X33154206Y88192479D01*
X33327095Y88264092D01*
X33418864Y88282346D01*
X33510632Y88300600D01*
X33697768Y88300600D01*
X33789536Y88282346D01*
G37*
G36*
X31249536Y88282346D02*
G01*
X31341305Y88264092D01*
X31514194Y88192479D01*
X31669790Y88088513D01*
X31802113Y87956190D01*
X31906079Y87800594D01*
X31977692Y87627705D01*
X32014200Y87444167D01*
X32014200Y87257033D01*
X31977692Y87073495D01*
X31906079Y86900606D01*
X31802113Y86745010D01*
X31669790Y86612687D01*
X31514194Y86508721D01*
X31341305Y86437108D01*
X31249536Y86418854D01*
X31157768Y86400600D01*
X30970632Y86400600D01*
X30878864Y86418854D01*
X30787095Y86437108D01*
X30614206Y86508721D01*
X30458610Y86612687D01*
X30326287Y86745010D01*
X30222321Y86900606D01*
X30150708Y87073495D01*
X30114200Y87257033D01*
X30114200Y87444167D01*
X30150708Y87627705D01*
X30222321Y87800594D01*
X30326287Y87956190D01*
X30458610Y88088513D01*
X30614206Y88192479D01*
X30787095Y88264092D01*
X30878864Y88282346D01*
X30970632Y88300600D01*
X31157768Y88300600D01*
X31249536Y88282346D01*
G37*
G36*
X152157857Y91862728D02*
G01*
X152358043Y91779808D01*
X152358045Y91779807D01*
X152448738Y91719208D01*
X152538208Y91659426D01*
X152691426Y91506208D01*
X152811808Y91326043D01*
X152894728Y91125857D01*
X152937000Y90913342D01*
X152937000Y90696658D01*
X152894728Y90484143D01*
X152821335Y90306957D01*
X152811807Y90283955D01*
X152691425Y90103791D01*
X152538209Y89950575D01*
X152358045Y89830193D01*
X152358044Y89830192D01*
X152358043Y89830192D01*
X152157857Y89747272D01*
X151945342Y89705000D01*
X151728658Y89705000D01*
X151516143Y89747272D01*
X151315957Y89830192D01*
X151315956Y89830192D01*
X151315955Y89830193D01*
X151135791Y89950575D01*
X150982575Y90103791D01*
X150862193Y90283955D01*
X150852665Y90306957D01*
X150779272Y90484143D01*
X150737000Y90696658D01*
X150737000Y90913342D01*
X150779272Y91125857D01*
X150862192Y91326043D01*
X150982574Y91506208D01*
X151135792Y91659426D01*
X151225262Y91719208D01*
X151315955Y91779807D01*
X151315957Y91779808D01*
X151516143Y91862728D01*
X151728658Y91905000D01*
X151945342Y91905000D01*
X152157857Y91862728D01*
G37*
G36*
X156657857Y91862728D02*
G01*
X156858043Y91779808D01*
X156858045Y91779807D01*
X156948738Y91719208D01*
X157038208Y91659426D01*
X157191426Y91506208D01*
X157311808Y91326043D01*
X157394728Y91125857D01*
X157437000Y90913342D01*
X157437000Y90696658D01*
X157394728Y90484143D01*
X157321335Y90306957D01*
X157311807Y90283955D01*
X157191425Y90103791D01*
X157038209Y89950575D01*
X156858045Y89830193D01*
X156858044Y89830192D01*
X156858043Y89830192D01*
X156657857Y89747272D01*
X156445342Y89705000D01*
X156228658Y89705000D01*
X156016143Y89747272D01*
X155815957Y89830192D01*
X155815956Y89830192D01*
X155815955Y89830193D01*
X155635791Y89950575D01*
X155482575Y90103791D01*
X155362193Y90283955D01*
X155352665Y90306957D01*
X155279272Y90484143D01*
X155237000Y90696658D01*
X155237000Y90913342D01*
X155279272Y91125857D01*
X155362192Y91326043D01*
X155482574Y91506208D01*
X155635792Y91659426D01*
X155725262Y91719208D01*
X155815955Y91779807D01*
X155815957Y91779808D01*
X156016143Y91862728D01*
X156228658Y91905000D01*
X156445342Y91905000D01*
X156657857Y91862728D01*
G37*
G36*
X116906857Y91885728D02*
G01*
X117107043Y91802808D01*
X117107045Y91802807D01*
X117141465Y91779808D01*
X117287208Y91682426D01*
X117440426Y91529208D01*
X117560808Y91349043D01*
X117643728Y91148857D01*
X117686000Y90936342D01*
X117686000Y90719658D01*
X117643728Y90507143D01*
X117560808Y90306957D01*
X117560807Y90306955D01*
X117440425Y90126791D01*
X117287209Y89973575D01*
X117107045Y89853193D01*
X117107044Y89853192D01*
X117107043Y89853192D01*
X116906857Y89770272D01*
X116694342Y89728000D01*
X116477658Y89728000D01*
X116265143Y89770272D01*
X116064957Y89853192D01*
X116064956Y89853192D01*
X116064955Y89853193D01*
X115884791Y89973575D01*
X115731575Y90126791D01*
X115611193Y90306955D01*
X115611192Y90306957D01*
X115528272Y90507143D01*
X115486000Y90719658D01*
X115486000Y90936342D01*
X115528272Y91148857D01*
X115611192Y91349043D01*
X115731574Y91529208D01*
X115884792Y91682426D01*
X116030535Y91779808D01*
X116064955Y91802807D01*
X116064957Y91802808D01*
X116265143Y91885728D01*
X116477658Y91928000D01*
X116694342Y91928000D01*
X116906857Y91885728D01*
G37*
G36*
X121406857Y91885728D02*
G01*
X121607043Y91802808D01*
X121607045Y91802807D01*
X121641465Y91779808D01*
X121787208Y91682426D01*
X121940426Y91529208D01*
X122060808Y91349043D01*
X122143728Y91148857D01*
X122186000Y90936342D01*
X122186000Y90719658D01*
X122143728Y90507143D01*
X122060808Y90306957D01*
X122060807Y90306955D01*
X121940425Y90126791D01*
X121787209Y89973575D01*
X121607045Y89853193D01*
X121607044Y89853192D01*
X121607043Y89853192D01*
X121406857Y89770272D01*
X121194342Y89728000D01*
X120977658Y89728000D01*
X120765143Y89770272D01*
X120564957Y89853192D01*
X120564956Y89853192D01*
X120564955Y89853193D01*
X120384791Y89973575D01*
X120231575Y90126791D01*
X120111193Y90306955D01*
X120111192Y90306957D01*
X120028272Y90507143D01*
X119986000Y90719658D01*
X119986000Y90936342D01*
X120028272Y91148857D01*
X120111192Y91349043D01*
X120231574Y91529208D01*
X120384792Y91682426D01*
X120530535Y91779808D01*
X120564955Y91802807D01*
X120564957Y91802808D01*
X120765143Y91885728D01*
X120977658Y91928000D01*
X121194342Y91928000D01*
X121406857Y91885728D01*
G37*
G36*
X109281000Y91887000D02*
G01*
X107381000Y91887000D01*
X107381000Y93787000D01*
X109281000Y93787000D01*
X109281000Y91887000D01*
G37*
G36*
X161793000Y94366000D02*
G01*
X157993000Y94366000D01*
X157993000Y98166000D01*
X161793000Y98166000D01*
X161793000Y94366000D01*
G37*
G36*
X108516336Y96308746D02*
G01*
X108608105Y96290492D01*
X108780994Y96218879D01*
X108936590Y96114913D01*
X109068913Y95982590D01*
X109172879Y95826994D01*
X109244492Y95654105D01*
X109244492Y95654104D01*
X109277969Y95485808D01*
X109281000Y95470567D01*
X109281000Y95283433D01*
X109244492Y95099895D01*
X109172879Y94927006D01*
X109068913Y94771410D01*
X108936590Y94639087D01*
X108780994Y94535121D01*
X108608105Y94463508D01*
X108516336Y94445254D01*
X108424568Y94427000D01*
X108237432Y94427000D01*
X108145664Y94445254D01*
X108053895Y94463508D01*
X107881006Y94535121D01*
X107725410Y94639087D01*
X107593087Y94771410D01*
X107489121Y94927006D01*
X107417508Y95099895D01*
X107381000Y95283433D01*
X107381000Y95470567D01*
X107384032Y95485808D01*
X107417508Y95654104D01*
X107417508Y95654105D01*
X107489121Y95826994D01*
X107593087Y95982590D01*
X107725410Y96114913D01*
X107881006Y96218879D01*
X108053895Y96290492D01*
X108145664Y96308746D01*
X108237432Y96327000D01*
X108424568Y96327000D01*
X108516336Y96308746D01*
G37*
G36*
X32087736Y96867546D02*
G01*
X32179505Y96849292D01*
X32352394Y96777679D01*
X32507990Y96673713D01*
X32640313Y96541390D01*
X32744279Y96385794D01*
X32768632Y96327000D01*
X32815892Y96212904D01*
X32852400Y96029368D01*
X32852400Y95842232D01*
X32834146Y95750464D01*
X32815892Y95658695D01*
X32744279Y95485806D01*
X32640313Y95330210D01*
X32507990Y95197887D01*
X32352394Y95093921D01*
X32179505Y95022308D01*
X32087736Y95004054D01*
X31995968Y94985800D01*
X31808832Y94985800D01*
X31717064Y95004054D01*
X31625295Y95022308D01*
X31452406Y95093921D01*
X31296810Y95197887D01*
X31164487Y95330210D01*
X31060521Y95485806D01*
X30988908Y95658695D01*
X30970654Y95750464D01*
X30952400Y95842232D01*
X30952400Y96029368D01*
X30988908Y96212904D01*
X31036168Y96327000D01*
X31060521Y96385794D01*
X31164487Y96541390D01*
X31296810Y96673713D01*
X31452406Y96777679D01*
X31625295Y96849292D01*
X31717064Y96867546D01*
X31808832Y96885800D01*
X31995968Y96885800D01*
X32087736Y96867546D01*
G37*
G36*
X35392400Y94985800D02*
G01*
X33492400Y94985800D01*
X33492400Y96885800D01*
X35392400Y96885800D01*
X35392400Y94985800D01*
G37*
G36*
X108516336Y98848746D02*
G01*
X108608105Y98830492D01*
X108780994Y98758879D01*
X108936590Y98654913D01*
X109068913Y98522590D01*
X109172879Y98366994D01*
X109244492Y98194105D01*
X109281000Y98010567D01*
X109281000Y97823433D01*
X109244492Y97639895D01*
X109172879Y97467006D01*
X109068913Y97311410D01*
X108936590Y97179087D01*
X108780994Y97075121D01*
X108608105Y97003508D01*
X108516336Y96985254D01*
X108424568Y96967000D01*
X108237432Y96967000D01*
X108145664Y96985254D01*
X108053895Y97003508D01*
X107881006Y97075121D01*
X107725410Y97179087D01*
X107593087Y97311410D01*
X107489121Y97467006D01*
X107417508Y97639895D01*
X107381000Y97823433D01*
X107381000Y98010567D01*
X107417508Y98194105D01*
X107489121Y98366994D01*
X107593087Y98522590D01*
X107725410Y98654913D01*
X107881006Y98758879D01*
X108053895Y98830492D01*
X108145664Y98848746D01*
X108237432Y98867000D01*
X108424568Y98867000D01*
X108516336Y98848746D01*
G37*
G36*
X160263671Y103209492D02*
G01*
X160447209Y103172984D01*
X160590434Y103113658D01*
X160792986Y103029759D01*
X161104179Y102821826D01*
X161368826Y102557179D01*
X161576759Y102245986D01*
X161719984Y101900208D01*
X161793000Y101533135D01*
X161793000Y101158865D01*
X161771399Y101050272D01*
X161719984Y100791791D01*
X161696089Y100734104D01*
X161576759Y100446014D01*
X161368826Y100134821D01*
X161104179Y99870174D01*
X160792986Y99662241D01*
X160590434Y99578342D01*
X160447209Y99519016D01*
X160263671Y99482508D01*
X160080135Y99446000D01*
X159705865Y99446000D01*
X159522329Y99482508D01*
X159338791Y99519016D01*
X159195566Y99578342D01*
X158993014Y99662241D01*
X158681821Y99870174D01*
X158417174Y100134821D01*
X158209241Y100446014D01*
X158089911Y100734104D01*
X158066016Y100791791D01*
X158014601Y101050272D01*
X157993000Y101158865D01*
X157993000Y101533135D01*
X158066016Y101900208D01*
X158209241Y102245986D01*
X158417174Y102557179D01*
X158681821Y102821826D01*
X158993014Y103029759D01*
X159195566Y103113658D01*
X159338791Y103172984D01*
X159522329Y103209492D01*
X159705865Y103246000D01*
X160080135Y103246000D01*
X160263671Y103209492D01*
G37*
G36*
X108516336Y101388746D02*
G01*
X108608105Y101370492D01*
X108780994Y101298879D01*
X108936590Y101194913D01*
X109068913Y101062590D01*
X109172879Y100906994D01*
X109244492Y100734105D01*
X109281000Y100550567D01*
X109281000Y100363433D01*
X109244492Y100179895D01*
X109172879Y100007006D01*
X109068913Y99851410D01*
X108936590Y99719087D01*
X108780994Y99615121D01*
X108608105Y99543508D01*
X108516336Y99525254D01*
X108424568Y99507000D01*
X108237432Y99507000D01*
X108145664Y99525254D01*
X108053895Y99543508D01*
X107881006Y99615121D01*
X107725410Y99719087D01*
X107593087Y99851410D01*
X107489121Y100007006D01*
X107417508Y100179895D01*
X107381000Y100363433D01*
X107381000Y100550567D01*
X107417508Y100734105D01*
X107489121Y100906994D01*
X107593087Y101062590D01*
X107725410Y101194913D01*
X107881006Y101298879D01*
X108053895Y101370492D01*
X108145664Y101388746D01*
X108237432Y101407000D01*
X108424568Y101407000D01*
X108516336Y101388746D01*
G37*
G36*
X139821857Y103165728D02*
G01*
X140003311Y103090567D01*
X140022045Y103082807D01*
X140098719Y103031575D01*
X140202208Y102962426D01*
X140355426Y102809208D01*
X140475808Y102629043D01*
X140558728Y102428857D01*
X140601000Y102216342D01*
X140601000Y101999658D01*
X140558728Y101787143D01*
X140475808Y101586957D01*
X140475807Y101586955D01*
X140355425Y101406791D01*
X140202209Y101253575D01*
X140022045Y101133193D01*
X140022044Y101133192D01*
X140022043Y101133192D01*
X139821857Y101050272D01*
X139609342Y101008000D01*
X139392658Y101008000D01*
X139180143Y101050272D01*
X138979957Y101133192D01*
X138979956Y101133192D01*
X138979955Y101133193D01*
X138799791Y101253575D01*
X138646575Y101406791D01*
X138526193Y101586955D01*
X138526192Y101586957D01*
X138443272Y101787143D01*
X138401000Y101999658D01*
X138401000Y102216342D01*
X138443272Y102428857D01*
X138526192Y102629043D01*
X138646574Y102809208D01*
X138799792Y102962426D01*
X138903281Y103031575D01*
X138979955Y103082807D01*
X138998689Y103090567D01*
X139180143Y103165728D01*
X139392658Y103208000D01*
X139609342Y103208000D01*
X139821857Y103165728D01*
G37*
G36*
X135321857Y103165728D02*
G01*
X135503311Y103090567D01*
X135522045Y103082807D01*
X135598719Y103031575D01*
X135702208Y102962426D01*
X135855426Y102809208D01*
X135975808Y102629043D01*
X136058728Y102428857D01*
X136101000Y102216342D01*
X136101000Y101999658D01*
X136058728Y101787143D01*
X135975808Y101586957D01*
X135975807Y101586955D01*
X135855425Y101406791D01*
X135702209Y101253575D01*
X135522045Y101133193D01*
X135522044Y101133192D01*
X135522043Y101133192D01*
X135321857Y101050272D01*
X135109342Y101008000D01*
X134892658Y101008000D01*
X134680143Y101050272D01*
X134479957Y101133192D01*
X134479956Y101133192D01*
X134479955Y101133193D01*
X134299791Y101253575D01*
X134146575Y101406791D01*
X134026193Y101586955D01*
X134026192Y101586957D01*
X133943272Y101787143D01*
X133901000Y101999658D01*
X133901000Y102216342D01*
X133943272Y102428857D01*
X134026192Y102629043D01*
X134146574Y102809208D01*
X134299792Y102962426D01*
X134403281Y103031575D01*
X134479955Y103082807D01*
X134498689Y103090567D01*
X134680143Y103165728D01*
X134892658Y103208000D01*
X135109342Y103208000D01*
X135321857Y103165728D01*
G37*
G36*
X108516336Y103928746D02*
G01*
X108608105Y103910492D01*
X108780994Y103838879D01*
X108936590Y103734913D01*
X109068913Y103602590D01*
X109172879Y103446994D01*
X109244492Y103274105D01*
X109281000Y103090567D01*
X109281000Y102903433D01*
X109244492Y102719895D01*
X109172879Y102547006D01*
X109068913Y102391410D01*
X108936590Y102259087D01*
X108780994Y102155121D01*
X108608105Y102083508D01*
X108516336Y102065254D01*
X108424568Y102047000D01*
X108237432Y102047000D01*
X108145664Y102065254D01*
X108053895Y102083508D01*
X107881006Y102155121D01*
X107725410Y102259087D01*
X107593087Y102391410D01*
X107489121Y102547006D01*
X107417508Y102719895D01*
X107381000Y102903433D01*
X107381000Y103090567D01*
X107417508Y103274105D01*
X107489121Y103446994D01*
X107593087Y103602590D01*
X107725410Y103734913D01*
X107881006Y103838879D01*
X108053895Y103910492D01*
X108145664Y103928746D01*
X108237432Y103947000D01*
X108424568Y103947000D01*
X108516336Y103928746D01*
G37*
G36*
X126322000Y102786000D02*
G01*
X124122000Y102786000D01*
X124122000Y104986000D01*
X126322000Y104986000D01*
X126322000Y102786000D01*
G37*
G36*
X117942857Y104943728D02*
G01*
X118143043Y104860808D01*
X118143045Y104860807D01*
X118233738Y104800208D01*
X118323208Y104740426D01*
X118476426Y104587208D01*
X118596808Y104407043D01*
X118679728Y104206857D01*
X118722000Y103994342D01*
X118722000Y103777658D01*
X118679728Y103565143D01*
X118596808Y103364957D01*
X118476426Y103184792D01*
X118323208Y103031574D01*
X118320490Y103029758D01*
X118143045Y102911193D01*
X118143044Y102911192D01*
X118143043Y102911192D01*
X117942857Y102828272D01*
X117730342Y102786000D01*
X117513658Y102786000D01*
X117301143Y102828272D01*
X117100957Y102911192D01*
X117100956Y102911192D01*
X117100955Y102911193D01*
X116923510Y103029758D01*
X116920792Y103031574D01*
X116767574Y103184792D01*
X116647192Y103364957D01*
X116564272Y103565143D01*
X116522000Y103777658D01*
X116522000Y103994342D01*
X116564272Y104206857D01*
X116647192Y104407043D01*
X116767574Y104587208D01*
X116920792Y104740426D01*
X117010262Y104800208D01*
X117100955Y104860807D01*
X117100957Y104860808D01*
X117301143Y104943728D01*
X117513658Y104986000D01*
X117730342Y104986000D01*
X117942857Y104943728D01*
G37*
G36*
X161793000Y104526000D02*
G01*
X157993000Y104526000D01*
X157993000Y108326000D01*
X161793000Y108326000D01*
X161793000Y104526000D01*
G37*
G36*
X108516336Y106468746D02*
G01*
X108608105Y106450492D01*
X108780994Y106378879D01*
X108936590Y106274913D01*
X109068913Y106142590D01*
X109172879Y105986994D01*
X109244492Y105814105D01*
X109281000Y105630567D01*
X109281000Y105443433D01*
X109244492Y105259895D01*
X109172879Y105087006D01*
X109068913Y104931410D01*
X108936590Y104799087D01*
X108780994Y104695121D01*
X108608105Y104623508D01*
X108516336Y104605254D01*
X108424568Y104587000D01*
X108237432Y104587000D01*
X108145664Y104605254D01*
X108053895Y104623508D01*
X107881006Y104695121D01*
X107725410Y104799087D01*
X107593087Y104931410D01*
X107489121Y105087006D01*
X107417508Y105259895D01*
X107381000Y105443433D01*
X107381000Y105630567D01*
X107417508Y105814105D01*
X107489121Y105986994D01*
X107593087Y106142590D01*
X107725410Y106274913D01*
X107881006Y106378879D01*
X108053895Y106450492D01*
X108145664Y106468746D01*
X108237432Y106487000D01*
X108424568Y106487000D01*
X108516336Y106468746D01*
G37*
G36*
X139821857Y109665728D02*
G01*
X140022043Y109582808D01*
X140022045Y109582807D01*
X140112738Y109522208D01*
X140202208Y109462426D01*
X140355426Y109309208D01*
X140475808Y109129043D01*
X140558728Y108928857D01*
X140601000Y108716342D01*
X140601000Y108499658D01*
X140558728Y108287143D01*
X140475808Y108086957D01*
X140475807Y108086955D01*
X140355425Y107906791D01*
X140202209Y107753575D01*
X140022045Y107633193D01*
X140022044Y107633192D01*
X140022043Y107633192D01*
X139821857Y107550272D01*
X139609342Y107508000D01*
X139392658Y107508000D01*
X139180143Y107550272D01*
X138979957Y107633192D01*
X138979956Y107633192D01*
X138979955Y107633193D01*
X138799791Y107753575D01*
X138646575Y107906791D01*
X138526193Y108086955D01*
X138526192Y108086957D01*
X138443272Y108287143D01*
X138401000Y108499658D01*
X138401000Y108716342D01*
X138443272Y108928857D01*
X138526192Y109129043D01*
X138646574Y109309208D01*
X138799792Y109462426D01*
X138889262Y109522208D01*
X138979955Y109582807D01*
X138979957Y109582808D01*
X139180143Y109665728D01*
X139392658Y109708000D01*
X139609342Y109708000D01*
X139821857Y109665728D01*
G37*
G36*
X135321857Y109665728D02*
G01*
X135522043Y109582808D01*
X135522045Y109582807D01*
X135612738Y109522208D01*
X135702208Y109462426D01*
X135855426Y109309208D01*
X135975808Y109129043D01*
X136058728Y108928857D01*
X136101000Y108716342D01*
X136101000Y108499658D01*
X136058728Y108287143D01*
X135975808Y108086957D01*
X135975807Y108086955D01*
X135855425Y107906791D01*
X135702209Y107753575D01*
X135522045Y107633193D01*
X135522044Y107633192D01*
X135522043Y107633192D01*
X135321857Y107550272D01*
X135109342Y107508000D01*
X134892658Y107508000D01*
X134680143Y107550272D01*
X134479957Y107633192D01*
X134479956Y107633192D01*
X134479955Y107633193D01*
X134299791Y107753575D01*
X134146575Y107906791D01*
X134026193Y108086955D01*
X134026192Y108086957D01*
X133943272Y108287143D01*
X133901000Y108499658D01*
X133901000Y108716342D01*
X133943272Y108928857D01*
X134026192Y109129043D01*
X134146574Y109309208D01*
X134299792Y109462426D01*
X134389262Y109522208D01*
X134479955Y109582807D01*
X134479957Y109582808D01*
X134680143Y109665728D01*
X134892658Y109708000D01*
X135109342Y109708000D01*
X135321857Y109665728D01*
G37*
G36*
X160263671Y113369492D02*
G01*
X160447209Y113332984D01*
X160590434Y113273658D01*
X160792986Y113189759D01*
X161104179Y112981826D01*
X161368826Y112717179D01*
X161576759Y112405986D01*
X161719984Y112060208D01*
X161793000Y111693135D01*
X161793000Y111318865D01*
X161719984Y110951792D01*
X161576759Y110606014D01*
X161368826Y110294821D01*
X161104179Y110030174D01*
X160792986Y109822241D01*
X160590434Y109738342D01*
X160447209Y109679016D01*
X160263671Y109642508D01*
X160080135Y109606000D01*
X159705865Y109606000D01*
X159522329Y109642508D01*
X159338791Y109679016D01*
X159195566Y109738342D01*
X158993014Y109822241D01*
X158681821Y110030174D01*
X158417174Y110294821D01*
X158209241Y110606014D01*
X158066016Y110951792D01*
X157993000Y111318865D01*
X157993000Y111693135D01*
X158066016Y112060208D01*
X158209241Y112405986D01*
X158417174Y112717179D01*
X158681821Y112981826D01*
X158993014Y113189759D01*
X159195566Y113273658D01*
X159338791Y113332984D01*
X159522329Y113369492D01*
X159705865Y113406000D01*
X160080135Y113406000D01*
X160263671Y113369492D01*
G37*
G36*
X10915443Y116380986D02*
G01*
X10915446Y116380985D01*
X10915445Y116380985D01*
X11006439Y116343294D01*
X11047663Y116315749D01*
X11088330Y116288576D01*
X11157976Y116218930D01*
X11212695Y116137037D01*
X11250386Y116046043D01*
X11269600Y115949447D01*
X11269600Y115850953D01*
X11250386Y115754357D01*
X11250385Y115754355D01*
X11212694Y115663361D01*
X11157975Y115581469D01*
X11088331Y115511825D01*
X11006439Y115457106D01*
X11006438Y115457105D01*
X11006437Y115457105D01*
X10915443Y115419414D01*
X10818847Y115400200D01*
X10720353Y115400200D01*
X10623757Y115419414D01*
X10532763Y115457105D01*
X10532762Y115457105D01*
X10532761Y115457106D01*
X10450869Y115511825D01*
X10381225Y115581469D01*
X10326506Y115663361D01*
X10288815Y115754355D01*
X10288814Y115754357D01*
X10269600Y115850953D01*
X10269600Y115949447D01*
X10288814Y116046043D01*
X10326505Y116137037D01*
X10381224Y116218930D01*
X10450870Y116288576D01*
X10491537Y116315749D01*
X10532761Y116343294D01*
X10623755Y116380985D01*
X10623754Y116380985D01*
X10623757Y116380986D01*
X10720353Y116400200D01*
X10818847Y116400200D01*
X10915443Y116380986D01*
G37*
G36*
X152892000Y117364000D02*
G01*
X150892000Y117364000D01*
X150892000Y119364000D01*
X152892000Y119364000D01*
X152892000Y117364000D01*
G37*
G36*
X122285000Y117364000D02*
G01*
X120285000Y117364000D01*
X120285000Y119364000D01*
X122285000Y119364000D01*
X122285000Y117364000D01*
G37*
G36*
X149579290Y119338381D02*
G01*
X149643689Y119325571D01*
X149825678Y119250189D01*
X149989463Y119140751D01*
X150128751Y119001463D01*
X150238189Y118837678D01*
X150313571Y118655689D01*
X150352000Y118462491D01*
X150352000Y118265509D01*
X150313571Y118072311D01*
X150238189Y117890322D01*
X150128751Y117726537D01*
X149989463Y117587249D01*
X149825678Y117477811D01*
X149643689Y117402429D01*
X149579290Y117389619D01*
X149450493Y117364000D01*
X149253507Y117364000D01*
X149124710Y117389619D01*
X149060311Y117402429D01*
X148878322Y117477811D01*
X148714537Y117587249D01*
X148575249Y117726537D01*
X148465811Y117890322D01*
X148390429Y118072311D01*
X148352000Y118265509D01*
X148352000Y118462491D01*
X148390429Y118655689D01*
X148465811Y118837678D01*
X148575249Y119001463D01*
X148714537Y119140751D01*
X148878322Y119250189D01*
X149060311Y119325571D01*
X149124710Y119338381D01*
X149253507Y119364000D01*
X149450493Y119364000D01*
X149579290Y119338381D01*
G37*
G36*
X124052290Y119338381D02*
G01*
X124116689Y119325571D01*
X124298678Y119250189D01*
X124462463Y119140751D01*
X124601751Y119001463D01*
X124711189Y118837678D01*
X124786571Y118655689D01*
X124825000Y118462491D01*
X124825000Y118265509D01*
X124786571Y118072311D01*
X124711189Y117890322D01*
X124601751Y117726537D01*
X124462463Y117587249D01*
X124298678Y117477811D01*
X124116689Y117402429D01*
X124052290Y117389619D01*
X123923493Y117364000D01*
X123726507Y117364000D01*
X123597710Y117389619D01*
X123533311Y117402429D01*
X123351322Y117477811D01*
X123187537Y117587249D01*
X123048249Y117726537D01*
X122938811Y117890322D01*
X122863429Y118072311D01*
X122825000Y118265509D01*
X122825000Y118462491D01*
X122863429Y118655689D01*
X122938811Y118837678D01*
X123048249Y119001463D01*
X123187537Y119140751D01*
X123351322Y119250189D01*
X123533311Y119325571D01*
X123597710Y119338381D01*
X123726507Y119364000D01*
X123923493Y119364000D01*
X124052290Y119338381D01*
G37*
G36*
X136313500Y117364000D02*
G01*
X134313500Y117364000D01*
X134313500Y119364000D01*
X136313500Y119364000D01*
X136313500Y117364000D01*
G37*
G36*
X138080790Y119338381D02*
G01*
X138145189Y119325571D01*
X138327178Y119250189D01*
X138490963Y119140751D01*
X138630251Y119001463D01*
X138739689Y118837678D01*
X138815071Y118655689D01*
X138853500Y118462491D01*
X138853500Y118265509D01*
X138815071Y118072311D01*
X138739689Y117890322D01*
X138630251Y117726537D01*
X138490963Y117587249D01*
X138327178Y117477811D01*
X138145189Y117402429D01*
X138080790Y117389619D01*
X137951993Y117364000D01*
X137755007Y117364000D01*
X137626210Y117389619D01*
X137561811Y117402429D01*
X137379822Y117477811D01*
X137216037Y117587249D01*
X137076749Y117726537D01*
X136967311Y117890322D01*
X136891929Y118072311D01*
X136853500Y118265509D01*
X136853500Y118462491D01*
X136891929Y118655689D01*
X136967311Y118837678D01*
X137076749Y119001463D01*
X137216037Y119140751D01*
X137379822Y119250189D01*
X137561811Y119325571D01*
X137626210Y119338381D01*
X137755007Y119364000D01*
X137951993Y119364000D01*
X138080790Y119338381D01*
G37*
G36*
X32200257Y120183728D02*
G01*
X32400443Y120100808D01*
X32400445Y120100807D01*
X32491138Y120040208D01*
X32580608Y119980426D01*
X32733826Y119827208D01*
X32854208Y119647043D01*
X32937128Y119446857D01*
X32979400Y119234342D01*
X32979400Y119017658D01*
X32937128Y118805143D01*
X32854208Y118604957D01*
X32759016Y118462491D01*
X32733825Y118424791D01*
X32580609Y118271575D01*
X32400445Y118151193D01*
X32400444Y118151192D01*
X32400443Y118151192D01*
X32200257Y118068272D01*
X31987742Y118026000D01*
X31771058Y118026000D01*
X31558543Y118068272D01*
X31358357Y118151192D01*
X31358356Y118151192D01*
X31358355Y118151193D01*
X31178191Y118271575D01*
X31024975Y118424791D01*
X30999785Y118462491D01*
X30904592Y118604957D01*
X30821672Y118805143D01*
X30779400Y119017658D01*
X30779400Y119234342D01*
X30821672Y119446857D01*
X30904592Y119647043D01*
X31024974Y119827208D01*
X31178192Y119980426D01*
X31267662Y120040208D01*
X31358355Y120100807D01*
X31358357Y120100808D01*
X31558543Y120183728D01*
X31771058Y120226000D01*
X31987742Y120226000D01*
X32200257Y120183728D01*
G37*
G36*
X69381057Y120183728D02*
G01*
X69581243Y120100808D01*
X69581245Y120100807D01*
X69671938Y120040208D01*
X69761408Y119980426D01*
X69914626Y119827208D01*
X70035008Y119647043D01*
X70117928Y119446857D01*
X70160200Y119234342D01*
X70160200Y119017658D01*
X70117928Y118805143D01*
X70035008Y118604957D01*
X69939816Y118462491D01*
X69914625Y118424791D01*
X69761409Y118271575D01*
X69581245Y118151193D01*
X69581244Y118151192D01*
X69581243Y118151192D01*
X69381057Y118068272D01*
X69168542Y118026000D01*
X68951858Y118026000D01*
X68739343Y118068272D01*
X68539157Y118151192D01*
X68539156Y118151192D01*
X68539155Y118151193D01*
X68358991Y118271575D01*
X68205775Y118424791D01*
X68180585Y118462491D01*
X68085392Y118604957D01*
X68002472Y118805143D01*
X67960200Y119017658D01*
X67960200Y119234342D01*
X68002472Y119446857D01*
X68085392Y119647043D01*
X68205774Y119827208D01*
X68358992Y119980426D01*
X68448462Y120040208D01*
X68539155Y120100807D01*
X68539157Y120100808D01*
X68739343Y120183728D01*
X68951858Y120226000D01*
X69168542Y120226000D01*
X69381057Y120183728D01*
G37*
G36*
X62881057Y120183728D02*
G01*
X63081243Y120100808D01*
X63081245Y120100807D01*
X63171938Y120040208D01*
X63261408Y119980426D01*
X63414626Y119827208D01*
X63535008Y119647043D01*
X63617928Y119446857D01*
X63660200Y119234342D01*
X63660200Y119017658D01*
X63617928Y118805143D01*
X63535008Y118604957D01*
X63439816Y118462491D01*
X63414625Y118424791D01*
X63261409Y118271575D01*
X63081245Y118151193D01*
X63081244Y118151192D01*
X63081243Y118151192D01*
X62881057Y118068272D01*
X62668542Y118026000D01*
X62451858Y118026000D01*
X62239343Y118068272D01*
X62039157Y118151192D01*
X62039156Y118151192D01*
X62039155Y118151193D01*
X61858991Y118271575D01*
X61705775Y118424791D01*
X61680585Y118462491D01*
X61585392Y118604957D01*
X61502472Y118805143D01*
X61460200Y119017658D01*
X61460200Y119234342D01*
X61502472Y119446857D01*
X61585392Y119647043D01*
X61705774Y119827208D01*
X61858992Y119980426D01*
X61948462Y120040208D01*
X62039155Y120100807D01*
X62039157Y120100808D01*
X62239343Y120183728D01*
X62451858Y120226000D01*
X62668542Y120226000D01*
X62881057Y120183728D01*
G37*
G36*
X38700257Y120183728D02*
G01*
X38900443Y120100808D01*
X38900445Y120100807D01*
X38991138Y120040208D01*
X39080608Y119980426D01*
X39233826Y119827208D01*
X39354208Y119647043D01*
X39437128Y119446857D01*
X39479400Y119234342D01*
X39479400Y119017658D01*
X39437128Y118805143D01*
X39354208Y118604957D01*
X39259016Y118462491D01*
X39233825Y118424791D01*
X39080609Y118271575D01*
X38900445Y118151193D01*
X38900444Y118151192D01*
X38900443Y118151192D01*
X38700257Y118068272D01*
X38487742Y118026000D01*
X38271058Y118026000D01*
X38058543Y118068272D01*
X37858357Y118151192D01*
X37858356Y118151192D01*
X37858355Y118151193D01*
X37678191Y118271575D01*
X37524975Y118424791D01*
X37499785Y118462491D01*
X37404592Y118604957D01*
X37321672Y118805143D01*
X37279400Y119017658D01*
X37279400Y119234342D01*
X37321672Y119446857D01*
X37404592Y119647043D01*
X37524974Y119827208D01*
X37678192Y119980426D01*
X37767662Y120040208D01*
X37858355Y120100807D01*
X37858357Y120100808D01*
X38058543Y120183728D01*
X38271058Y120226000D01*
X38487742Y120226000D01*
X38700257Y120183728D01*
G37*
G36*
X26709057Y120183728D02*
G01*
X26909243Y120100808D01*
X26909245Y120100807D01*
X26999938Y120040208D01*
X27089408Y119980426D01*
X27242626Y119827208D01*
X27363008Y119647043D01*
X27445928Y119446857D01*
X27488200Y119234342D01*
X27488200Y119017658D01*
X27445928Y118805143D01*
X27363008Y118604957D01*
X27267816Y118462491D01*
X27242625Y118424791D01*
X27089409Y118271575D01*
X26909245Y118151193D01*
X26909244Y118151192D01*
X26909243Y118151192D01*
X26709057Y118068272D01*
X26496542Y118026000D01*
X26279858Y118026000D01*
X26067343Y118068272D01*
X25867157Y118151192D01*
X25867156Y118151192D01*
X25867155Y118151193D01*
X25686991Y118271575D01*
X25533775Y118424791D01*
X25508585Y118462491D01*
X25413392Y118604957D01*
X25330472Y118805143D01*
X25288200Y119017658D01*
X25288200Y119234342D01*
X25330472Y119446857D01*
X25413392Y119647043D01*
X25533774Y119827208D01*
X25686992Y119980426D01*
X25776462Y120040208D01*
X25867155Y120100807D01*
X25867157Y120100808D01*
X26067343Y120183728D01*
X26279858Y120226000D01*
X26496542Y120226000D01*
X26709057Y120183728D01*
G37*
G36*
X20209057Y120183728D02*
G01*
X20409243Y120100808D01*
X20409245Y120100807D01*
X20499938Y120040208D01*
X20589408Y119980426D01*
X20742626Y119827208D01*
X20863008Y119647043D01*
X20945928Y119446857D01*
X20988200Y119234342D01*
X20988200Y119017658D01*
X20945928Y118805143D01*
X20863008Y118604957D01*
X20767816Y118462491D01*
X20742625Y118424791D01*
X20589409Y118271575D01*
X20409245Y118151193D01*
X20409244Y118151192D01*
X20409243Y118151192D01*
X20209057Y118068272D01*
X19996542Y118026000D01*
X19779858Y118026000D01*
X19567343Y118068272D01*
X19367157Y118151192D01*
X19367156Y118151192D01*
X19367155Y118151193D01*
X19186991Y118271575D01*
X19033775Y118424791D01*
X19008585Y118462491D01*
X18913392Y118604957D01*
X18830472Y118805143D01*
X18788200Y119017658D01*
X18788200Y119234342D01*
X18830472Y119446857D01*
X18913392Y119647043D01*
X19033774Y119827208D01*
X19186992Y119980426D01*
X19276462Y120040208D01*
X19367155Y120100807D01*
X19367157Y120100808D01*
X19567343Y120183728D01*
X19779858Y120226000D01*
X19996542Y120226000D01*
X20209057Y120183728D01*
G37*
G36*
X103208880Y128632855D02*
G01*
X103864038Y128361480D01*
X103864040Y128361479D01*
X104453666Y127967503D01*
X104955103Y127466066D01*
X105349080Y126876438D01*
X105620455Y126221280D01*
X105758800Y125525770D01*
X105758800Y124816630D01*
X105620455Y124121120D01*
X105370493Y123517658D01*
X105349079Y123465960D01*
X104955103Y122876334D01*
X104453666Y122374897D01*
X103864040Y121980921D01*
X103864039Y121980920D01*
X103864038Y121980920D01*
X103208880Y121709545D01*
X102513370Y121571200D01*
X101804230Y121571200D01*
X101108720Y121709545D01*
X100453562Y121980920D01*
X100453561Y121980920D01*
X100453560Y121980921D01*
X99863934Y122374897D01*
X99362497Y122876334D01*
X98968521Y123465960D01*
X98947107Y123517658D01*
X98697145Y124121120D01*
X98558800Y124816630D01*
X98558800Y125525770D01*
X98697145Y126221280D01*
X98968520Y126876438D01*
X99362497Y127466066D01*
X99863934Y127967503D01*
X100453560Y128361479D01*
X100453562Y128361480D01*
X101108720Y128632855D01*
X101804230Y128771200D01*
X102513370Y128771200D01*
X103208880Y128632855D01*
G37*
G36*
X15197880Y128632855D02*
G01*
X15853038Y128361480D01*
X15853040Y128361479D01*
X16442666Y127967503D01*
X16944103Y127466066D01*
X17338080Y126876438D01*
X17609455Y126221280D01*
X17747800Y125525770D01*
X17747800Y124816630D01*
X17609455Y124121120D01*
X17359493Y123517658D01*
X17338079Y123465960D01*
X16944103Y122876334D01*
X16442666Y122374897D01*
X15853040Y121980921D01*
X15853039Y121980920D01*
X15853038Y121980920D01*
X15197880Y121709545D01*
X14502370Y121571200D01*
X13793230Y121571200D01*
X13097720Y121709545D01*
X12442562Y121980920D01*
X12442561Y121980920D01*
X12442560Y121980921D01*
X11852934Y122374897D01*
X11351497Y122876334D01*
X10957521Y123465960D01*
X10936107Y123517658D01*
X10686145Y124121120D01*
X10547800Y124816630D01*
X10547800Y125525770D01*
X10686145Y126221280D01*
X10957520Y126876438D01*
X11351497Y127466066D01*
X11852934Y127967503D01*
X12442560Y128361479D01*
X12442562Y128361480D01*
X13097720Y128632855D01*
X13793230Y128771200D01*
X14502370Y128771200D01*
X15197880Y128632855D01*
G37*
G36*
X62881057Y124683728D02*
G01*
X63042613Y124616809D01*
X63081245Y124600807D01*
X63171938Y124540208D01*
X63261408Y124480426D01*
X63414626Y124327208D01*
X63535008Y124147043D01*
X63617928Y123946857D01*
X63660200Y123734342D01*
X63660200Y123517658D01*
X63617928Y123305143D01*
X63535008Y123104957D01*
X63535007Y123104955D01*
X63414625Y122924791D01*
X63261409Y122771575D01*
X63081245Y122651193D01*
X63081244Y122651192D01*
X63081243Y122651192D01*
X62881057Y122568272D01*
X62668542Y122526000D01*
X62451858Y122526000D01*
X62239343Y122568272D01*
X62039157Y122651192D01*
X62039156Y122651192D01*
X62039155Y122651193D01*
X61858991Y122771575D01*
X61705775Y122924791D01*
X61585393Y123104955D01*
X61585392Y123104957D01*
X61502472Y123305143D01*
X61460200Y123517658D01*
X61460200Y123734342D01*
X61502472Y123946857D01*
X61585392Y124147043D01*
X61705774Y124327208D01*
X61858992Y124480426D01*
X61948462Y124540208D01*
X62039155Y124600807D01*
X62077787Y124616809D01*
X62239343Y124683728D01*
X62451858Y124726000D01*
X62668542Y124726000D01*
X62881057Y124683728D01*
G37*
G36*
X69381057Y124683728D02*
G01*
X69542613Y124616809D01*
X69581245Y124600807D01*
X69671938Y124540208D01*
X69761408Y124480426D01*
X69914626Y124327208D01*
X70035008Y124147043D01*
X70117928Y123946857D01*
X70160200Y123734342D01*
X70160200Y123517658D01*
X70117928Y123305143D01*
X70035008Y123104957D01*
X70035007Y123104955D01*
X69914625Y122924791D01*
X69761409Y122771575D01*
X69581245Y122651193D01*
X69581244Y122651192D01*
X69581243Y122651192D01*
X69381057Y122568272D01*
X69168542Y122526000D01*
X68951858Y122526000D01*
X68739343Y122568272D01*
X68539157Y122651192D01*
X68539156Y122651192D01*
X68539155Y122651193D01*
X68358991Y122771575D01*
X68205775Y122924791D01*
X68085393Y123104955D01*
X68085392Y123104957D01*
X68002472Y123305143D01*
X67960200Y123517658D01*
X67960200Y123734342D01*
X68002472Y123946857D01*
X68085392Y124147043D01*
X68205774Y124327208D01*
X68358992Y124480426D01*
X68448462Y124540208D01*
X68539155Y124600807D01*
X68577787Y124616809D01*
X68739343Y124683728D01*
X68951858Y124726000D01*
X69168542Y124726000D01*
X69381057Y124683728D01*
G37*
G36*
X26709057Y124683728D02*
G01*
X26870613Y124616809D01*
X26909245Y124600807D01*
X26999938Y124540208D01*
X27089408Y124480426D01*
X27242626Y124327208D01*
X27363008Y124147043D01*
X27445928Y123946857D01*
X27488200Y123734342D01*
X27488200Y123517658D01*
X27445928Y123305143D01*
X27363008Y123104957D01*
X27363007Y123104955D01*
X27242625Y122924791D01*
X27089409Y122771575D01*
X26909245Y122651193D01*
X26909244Y122651192D01*
X26909243Y122651192D01*
X26709057Y122568272D01*
X26496542Y122526000D01*
X26279858Y122526000D01*
X26067343Y122568272D01*
X25867157Y122651192D01*
X25867156Y122651192D01*
X25867155Y122651193D01*
X25686991Y122771575D01*
X25533775Y122924791D01*
X25413393Y123104955D01*
X25413392Y123104957D01*
X25330472Y123305143D01*
X25288200Y123517658D01*
X25288200Y123734342D01*
X25330472Y123946857D01*
X25413392Y124147043D01*
X25533774Y124327208D01*
X25686992Y124480426D01*
X25776462Y124540208D01*
X25867155Y124600807D01*
X25905787Y124616809D01*
X26067343Y124683728D01*
X26279858Y124726000D01*
X26496542Y124726000D01*
X26709057Y124683728D01*
G37*
G36*
X20209057Y124683728D02*
G01*
X20370613Y124616809D01*
X20409245Y124600807D01*
X20499938Y124540208D01*
X20589408Y124480426D01*
X20742626Y124327208D01*
X20863008Y124147043D01*
X20945928Y123946857D01*
X20988200Y123734342D01*
X20988200Y123517658D01*
X20945928Y123305143D01*
X20863008Y123104957D01*
X20863007Y123104955D01*
X20742625Y122924791D01*
X20589409Y122771575D01*
X20409245Y122651193D01*
X20409244Y122651192D01*
X20409243Y122651192D01*
X20209057Y122568272D01*
X19996542Y122526000D01*
X19779858Y122526000D01*
X19567343Y122568272D01*
X19367157Y122651192D01*
X19367156Y122651192D01*
X19367155Y122651193D01*
X19186991Y122771575D01*
X19033775Y122924791D01*
X18913393Y123104955D01*
X18913392Y123104957D01*
X18830472Y123305143D01*
X18788200Y123517658D01*
X18788200Y123734342D01*
X18830472Y123946857D01*
X18913392Y124147043D01*
X19033774Y124327208D01*
X19186992Y124480426D01*
X19276462Y124540208D01*
X19367155Y124600807D01*
X19405787Y124616809D01*
X19567343Y124683728D01*
X19779858Y124726000D01*
X19996542Y124726000D01*
X20209057Y124683728D01*
G37*
G36*
X38700257Y124683728D02*
G01*
X38861813Y124616809D01*
X38900445Y124600807D01*
X38991138Y124540208D01*
X39080608Y124480426D01*
X39233826Y124327208D01*
X39354208Y124147043D01*
X39437128Y123946857D01*
X39479400Y123734342D01*
X39479400Y123517658D01*
X39437128Y123305143D01*
X39354208Y123104957D01*
X39354207Y123104955D01*
X39233825Y122924791D01*
X39080609Y122771575D01*
X38900445Y122651193D01*
X38900444Y122651192D01*
X38900443Y122651192D01*
X38700257Y122568272D01*
X38487742Y122526000D01*
X38271058Y122526000D01*
X38058543Y122568272D01*
X37858357Y122651192D01*
X37858356Y122651192D01*
X37858355Y122651193D01*
X37678191Y122771575D01*
X37524975Y122924791D01*
X37404593Y123104955D01*
X37404592Y123104957D01*
X37321672Y123305143D01*
X37279400Y123517658D01*
X37279400Y123734342D01*
X37321672Y123946857D01*
X37404592Y124147043D01*
X37524974Y124327208D01*
X37678192Y124480426D01*
X37767662Y124540208D01*
X37858355Y124600807D01*
X37896987Y124616809D01*
X38058543Y124683728D01*
X38271058Y124726000D01*
X38487742Y124726000D01*
X38700257Y124683728D01*
G37*
G36*
X32200257Y124683728D02*
G01*
X32361813Y124616809D01*
X32400445Y124600807D01*
X32491138Y124540208D01*
X32580608Y124480426D01*
X32733826Y124327208D01*
X32854208Y124147043D01*
X32937128Y123946857D01*
X32979400Y123734342D01*
X32979400Y123517658D01*
X32937128Y123305143D01*
X32854208Y123104957D01*
X32854207Y123104955D01*
X32733825Y122924791D01*
X32580609Y122771575D01*
X32400445Y122651193D01*
X32400444Y122651192D01*
X32400443Y122651192D01*
X32200257Y122568272D01*
X31987742Y122526000D01*
X31771058Y122526000D01*
X31558543Y122568272D01*
X31358357Y122651192D01*
X31358356Y122651192D01*
X31358355Y122651193D01*
X31178191Y122771575D01*
X31024975Y122924791D01*
X30904593Y123104955D01*
X30904592Y123104957D01*
X30821672Y123305143D01*
X30779400Y123517658D01*
X30779400Y123734342D01*
X30821672Y123946857D01*
X30904592Y124147043D01*
X31024974Y124327208D01*
X31178192Y124480426D01*
X31267662Y124540208D01*
X31358355Y124600807D01*
X31396987Y124616809D01*
X31558543Y124683728D01*
X31771058Y124726000D01*
X31987742Y124726000D01*
X32200257Y124683728D01*
G37*
G36*
X111766224Y126213506D02*
G01*
X112102902Y126074049D01*
X112102903Y126074048D01*
X112405906Y125871589D01*
X112663589Y125613906D01*
X112722479Y125525770D01*
X112866049Y125310902D01*
X113005506Y124974224D01*
X113076600Y124616810D01*
X113076600Y124252390D01*
X113005506Y123894976D01*
X112866049Y123558298D01*
X112866048Y123558297D01*
X112663589Y123255294D01*
X112405906Y122997611D01*
X112224401Y122876334D01*
X112102902Y122795151D01*
X111766224Y122655694D01*
X111408810Y122584600D01*
X111044390Y122584600D01*
X110686976Y122655694D01*
X110350298Y122795151D01*
X110228799Y122876334D01*
X110047294Y122997611D01*
X109789611Y123255294D01*
X109587152Y123558297D01*
X109587151Y123558298D01*
X109447694Y123894976D01*
X109376600Y124252390D01*
X109376600Y124616810D01*
X109447694Y124974224D01*
X109587151Y125310902D01*
X109730721Y125525770D01*
X109789611Y125613906D01*
X110047294Y125871589D01*
X110350297Y126074048D01*
X110350298Y126074049D01*
X110686976Y126213506D01*
X111044390Y126284600D01*
X111408810Y126284600D01*
X111766224Y126213506D01*
G37*
G36*
X160559624Y126238906D02*
G01*
X160896302Y126099449D01*
X160896303Y126099448D01*
X161199306Y125896989D01*
X161456989Y125639306D01*
X161592268Y125436846D01*
X161659449Y125336302D01*
X161798906Y124999624D01*
X161870000Y124642210D01*
X161870000Y124277790D01*
X161798906Y123920376D01*
X161659449Y123583698D01*
X161592268Y123483154D01*
X161456989Y123280694D01*
X161199306Y123023011D01*
X160996846Y122887732D01*
X160896302Y122820551D01*
X160559624Y122681094D01*
X160202210Y122610000D01*
X159837790Y122610000D01*
X159480376Y122681094D01*
X159143698Y122820551D01*
X159043154Y122887732D01*
X158840694Y123023011D01*
X158583011Y123280694D01*
X158447732Y123483154D01*
X158380551Y123583698D01*
X158241094Y123920376D01*
X158170000Y124277790D01*
X158170000Y124642210D01*
X158241094Y124999624D01*
X158380551Y125336302D01*
X158447732Y125436846D01*
X158583011Y125639306D01*
X158840694Y125896989D01*
X159143697Y126099448D01*
X159143698Y126099449D01*
X159480376Y126238906D01*
X159837790Y126310000D01*
X160202210Y126310000D01*
X160559624Y126238906D01*
G37*
G36*
X5619624Y126238906D02*
G01*
X5956302Y126099449D01*
X5956303Y126099448D01*
X6259306Y125896989D01*
X6516989Y125639306D01*
X6652268Y125436846D01*
X6719449Y125336302D01*
X6858906Y124999624D01*
X6930000Y124642210D01*
X6930000Y124277790D01*
X6858906Y123920376D01*
X6719449Y123583698D01*
X6652268Y123483154D01*
X6516989Y123280694D01*
X6259306Y123023011D01*
X6056846Y122887732D01*
X5956302Y122820551D01*
X5619624Y122681094D01*
X5262210Y122610000D01*
X4897790Y122610000D01*
X4540376Y122681094D01*
X4203698Y122820551D01*
X4103154Y122887732D01*
X3900694Y123023011D01*
X3643011Y123280694D01*
X3507732Y123483154D01*
X3440551Y123583698D01*
X3301094Y123920376D01*
X3230000Y124277790D01*
X3230000Y124642210D01*
X3301094Y124999624D01*
X3440551Y125336302D01*
X3507732Y125436846D01*
X3643011Y125639306D01*
X3900694Y125896989D01*
X4203697Y126099448D01*
X4203698Y126099449D01*
X4540376Y126238906D01*
X4897790Y126310000D01*
X5262210Y126310000D01*
X5619624Y126238906D01*
G37*
M02*
