M48
; DRILL file {KiCad (5.1.5)-3} date 4/2/2020 9:01:45 AM
; FORMAT={-:-/ absolute / inch / decimal}
; #@! TF.CreationDate,2020-04-02T09:01:45+03:00
; #@! TF.GenerationSoftware,Kicad,Pcbnew,(5.1.5)-3
FMAT,2
INCH
T1C0.0118
T2C0.0157
T3C0.0236
T4C0.0354
T5C0.0394
T6C0.0433
T7C0.0472
T8C0.0591
T9C0.1260
T10C0.1378
T11C0.0984
T12C0.1378
%
G90
G05
T1
X3.5338Y1.0352
X3.5338Y0.9651
X3.5338Y0.895
X3.5338Y0.825
X3.5338Y0.7549
X3.5338Y0.6848
X3.585Y1.0352
X3.585Y0.9651
X3.585Y0.895
X3.585Y0.825
X3.585Y0.7549
X3.585Y0.6848
X3.6362Y1.0352
X3.6362Y0.9651
X3.6362Y0.895
X3.6362Y0.825
X3.6362Y0.7549
X3.6362Y0.6848
X4.7238Y1.0352
X4.7238Y0.9651
X4.7238Y0.895
X4.7238Y0.825
X4.7238Y0.7549
X4.7238Y0.6848
X4.775Y1.0352
X4.775Y0.9651
X4.775Y0.895
X4.775Y0.825
X4.775Y0.7549
X4.775Y0.6848
X4.8262Y1.0352
X4.8262Y0.9651
X4.8262Y0.895
X4.8262Y0.825
X4.8262Y0.7549
X4.8262Y0.6848
T2
X0.065Y3.611
X0.075Y4.675
X0.075Y4.5
X0.075Y4.175
X0.075Y3.975
X0.075Y3.475
X0.075Y3.175
X0.075Y2.675
X0.075Y2.475
X0.075Y2.275
X0.075Y0.875
X0.075Y0.675
X0.075Y0.475
X0.141Y3.804
X0.375Y5.025
X0.375Y4.775
X0.375Y2.675
X0.375Y2.275
X0.375Y0.875
X0.375Y0.375
X0.3772Y3.8028
X0.455Y3.788
X0.475Y0.075
X0.4825Y1.47
X0.55Y4.15
X0.55Y3.85
X0.621Y3.545
X0.637Y3.255
X0.67Y2.08
X0.675Y0.075
X0.725Y5.025
X0.74Y1.615
X0.913Y3.121
X0.925Y5.025
X0.96Y3.196
X0.9635Y3.2615
X0.978Y3.396
X0.979Y4.0
X0.979Y3.818
X0.984Y3.054
X1.013Y3.236
X1.018Y2.999
X1.021Y3.145
X1.125Y5.025
X1.17Y3.6
X1.175Y0.375
X1.179Y4.321
X1.18Y3.865
X1.195Y3.0
X1.242Y3.631
X1.285Y3.662
X1.325Y5.025
X1.359Y4.197
X1.36Y4.079
X1.375Y0.175
X1.525Y5.025
X1.575Y3.29
X1.575Y0.175
X1.699Y3.9
X1.71Y3.195
X1.72Y2.552
X1.725Y5.025
X1.725Y3.5
X1.725Y3.3
X1.745Y3.716
X1.749Y3.896
X1.765Y3.772
X1.772Y3.685
X1.773Y4.668
X1.773Y4.552
X1.775Y0.375
X1.862Y3.542
X1.892Y3.933
X1.893Y3.573
X1.916Y3.999
X1.925Y5.025
X1.975Y3.575
X2.018Y2.478
X2.018Y2.301
X2.025Y3.425
X2.05Y3.909
X2.075Y3.675
X2.083Y3.108
X2.125Y5.025
X2.1275Y3.5725
X2.128Y3.261
X2.148Y3.223
X2.162Y3.84
X2.174Y3.935
X2.175Y3.775
X2.175Y3.325
X2.175Y0.075
X2.185Y3.188
X2.201Y3.105
X2.211Y4.321
X2.242Y3.774
X2.275Y3.675
X2.275Y3.425
X2.275Y0.375
X2.278Y2.483
X2.31Y4.375
X2.314Y4.253
X2.325Y5.025
X2.336Y3.647
X2.354Y4.22
X2.375Y3.525
X2.375Y0.075
X2.383Y3.65
X2.414Y2.586
X2.418Y2.286
X2.453Y2.521
X2.4975Y3.8125
X2.51Y4.0575
X2.517Y4.158
X2.525Y5.025
X2.525Y3.9825
X2.554Y4.321
X2.575Y0.375
X2.575Y0.075
X2.619Y2.552
X2.625Y3.35
X2.653Y4.053
X2.7075Y3.9825
X2.725Y5.025
X2.725Y3.73
X2.745Y3.015
X2.7475Y3.525
X2.7575Y3.78
X2.82Y4.05
X2.853Y3.772
X2.875Y0.475
X2.895Y3.9
X2.903Y3.668
X2.903Y3.618
X2.914Y2.763
X2.925Y5.025
X2.985Y3.555
X3.055Y3.69
X3.074Y2.543
X3.085Y3.455
X3.113Y3.156
X3.125Y5.025
X3.1625Y1.155
X3.175Y0.075
X3.225Y3.555
X3.225Y0.317
X3.325Y5.025
X3.395Y4.819
X3.47Y4.62
X3.47Y4.55
X3.474Y2.756
X3.4775Y0.285
X3.501Y2.957
X3.513Y2.655
X3.525Y5.025
X3.53Y4.62
X3.53Y4.55
X3.58Y1.1
X3.58Y0.595
X3.581Y3.564
X3.581Y2.526
X3.582Y3.352
X3.595Y4.62
X3.595Y4.55
X3.725Y5.025
X3.774Y4.707
X3.795Y2.205
X3.823Y0.967
X3.85Y2.07
X3.865Y3.065
X3.865Y2.91
X3.865Y2.81
X3.865Y2.715
X3.865Y1.45
X3.866Y0.979
X3.875Y5.025
X3.905Y1.305
X3.965Y0.816
X4.005Y0.847
X4.05Y0.485
X4.075Y2.12
X4.1475Y0.67
X4.1475Y0.625
X4.1475Y0.5725
X4.175Y5.025
X4.175Y4.825
X4.215Y1.195
X4.24Y4.325
X4.25Y1.13
X4.31Y0.697
X4.317Y1.51
X4.319Y2.193
X4.32Y1.113
X4.345Y2.11
X4.385Y1.65
X4.385Y1.565
X4.385Y1.485
X4.395Y2.16
X4.455Y2.14
X4.465Y2.98
X4.465Y1.65
X4.465Y1.485
X4.53Y2.765
X4.53Y2.435
X4.55Y1.65
X4.55Y1.485
X4.575Y5.025
X4.575Y4.825
X4.62Y1.65
X4.62Y1.565
X4.62Y1.485
X4.63Y1.23
X4.645Y0.3125
X4.775Y5.025
X4.775Y1.14
X4.775Y0.58
X4.787Y1.665
X4.816Y3.77
X4.817Y2.631
X4.952Y2.853
X4.959Y1.845
X4.965Y1.63
X4.975Y5.025
X4.999Y3.261
X5.005Y1.405
X5.005Y1.005
X5.023Y0.949
X5.034Y2.466
X5.035Y1.63
X5.044Y3.876
X5.155Y2.163
X5.155Y1.954
X5.155Y1.386
X5.167Y0.798
X5.175Y5.025
X5.207Y2.108
X5.244Y1.316
X5.244Y0.798
X5.375Y5.025
X5.375Y3.665
X5.375Y3.615
X5.375Y3.545
X5.375Y3.495
X5.445Y3.665
X5.445Y3.615
X5.445Y3.545
X5.445Y3.495
X5.515Y3.665
X5.515Y3.615
X5.515Y3.545
X5.515Y3.495
X5.575Y5.025
X5.575Y3.665
X5.575Y3.615
X5.575Y3.545
X5.575Y3.495
X5.625Y4.105
X5.625Y4.045
X5.625Y3.975
X5.625Y3.915
X5.625Y0.125
X5.669Y4.342
X5.675Y4.105
X5.675Y4.045
X5.675Y3.975
X5.675Y3.915
X5.745Y4.105
X5.745Y4.045
X5.745Y3.975
X5.745Y3.915
X5.773Y3.766
X5.775Y5.025
X5.795Y4.105
X5.795Y4.045
X5.795Y3.975
X5.795Y3.915
X5.858Y3.522
X5.892Y4.043
X5.975Y5.025
X6.025Y0.125
X6.075Y5.025
X6.075Y4.875
X6.075Y0.375
X6.125Y4.775
X6.375Y0.475
X6.425Y4.725
X6.425Y3.625
X6.425Y3.425
X6.425Y3.225
X6.425Y2.975
X6.425Y2.725
X6.425Y2.425
X6.425Y2.125
T3
X3.401Y0.966
X3.758Y0.958
X3.775Y0.765
X4.59Y0.967
X4.96Y0.95
X4.965Y0.765
T4
X1.485Y0.722
X1.585Y0.722
X1.486Y1.337
X1.586Y1.337
X2.668Y1.337
X2.768Y1.337
X4.775Y4.66
X4.875Y4.66
X5.3273Y4.66
X5.4273Y4.66
X5.88Y4.66
X5.98Y4.66
T5
X4.265Y4.155
X4.265Y4.055
X4.265Y3.955
X4.265Y3.855
X4.265Y3.755
X4.265Y3.655
X4.339Y3.156
X4.339Y3.056
X4.339Y2.956
X4.339Y2.856
X4.339Y2.756
X4.339Y2.656
X3.358Y1.737
X4.6308Y4.09
X4.93Y4.09
X1.256Y3.777
X1.356Y3.777
X2.055Y1.737
X1.445Y1.934
X0.651Y2.891
X0.651Y2.791
X0.651Y2.691
X1.123Y3.439
X1.123Y3.339
X1.223Y3.439
X1.223Y3.339
X1.323Y3.439
X1.323Y3.339
T6
X1.2551Y4.8672
X1.2551Y4.69
X1.511Y4.8672
X1.511Y4.69
X0.783Y4.8672
X0.783Y4.69
X1.0389Y4.8672
X1.0389Y4.69
X5.315Y4.2759
X5.315Y4.02
X5.4922Y4.2759
X5.4922Y4.02
X2.463Y4.8672
X2.463Y4.69
X2.7189Y4.8672
X2.7189Y4.69
X5.315Y2.9009
X5.315Y2.645
X5.4922Y2.9009
X5.4922Y2.645
X5.9778Y3.575
X5.9778Y3.3191
X6.155Y3.575
X6.155Y3.3191
X4.59Y3.5759
X4.59Y3.32
X4.7672Y3.5759
X4.7672Y3.32
T7
X1.069Y2.369
X1.169Y2.369
X1.269Y2.369
X1.369Y2.369
X1.469Y2.369
X1.569Y2.369
X1.669Y2.369
X1.769Y2.369
X1.869Y2.369
X1.969Y2.369
X2.069Y2.369
X2.169Y2.369
X2.269Y2.369
X2.369Y2.369
X2.469Y2.369
X2.569Y2.369
X2.669Y2.369
X2.769Y2.369
X2.869Y2.369
X2.969Y2.369
X0.6Y0.2
X0.7Y0.2
X0.8Y0.2
X0.9Y0.2
X1.0Y0.2
X1.1Y0.2
X5.95Y2.65
X6.2453Y2.65
X3.358Y1.9339
X3.358Y1.8354
X1.85Y0.2
X1.95Y0.2
X2.05Y0.2
X2.15Y0.2
X2.25Y0.2
X2.35Y0.2
X5.5Y1.1
X5.7953Y1.1
X5.5Y1.95
X5.7953Y1.95
X2.055Y1.9339
X2.055Y1.8354
X1.445Y1.8356
X1.445Y1.7371
T8
X6.25Y1.95
X6.25Y1.36
X3.372Y0.208
X3.572Y0.208
X3.772Y0.208
X3.972Y0.208
X4.554Y0.208
X4.754Y0.208
X4.954Y0.208
X5.154Y0.208
X1.155Y1.219
X1.155Y1.034
X1.155Y0.849
X6.295Y3.99
X6.295Y3.79
X0.2Y3.05
X0.2Y2.85
X0.2Y3.455
X0.2Y3.255
X0.2Y2.1
X0.2Y1.9
X0.2Y1.7
X0.2Y1.45
X0.2Y1.25
X0.2Y1.05
X6.265Y0.895
X6.265Y0.695
X2.36Y1.219
X2.36Y1.034
X2.36Y0.849
X6.295Y4.39
X6.295Y4.19
T9
X0.557Y4.928
X0.557Y2.369
X4.022Y4.928
T10
X4.022Y2.369
T11
X3.6336Y2.0087
X3.6336Y1.6622
X2.3306Y2.0087
X2.3306Y1.6622
X1.1694Y2.0088
X1.1694Y1.6623
T12
X2.872Y1.853
X5.159Y3.432
X4.379Y4.899
X0.2Y4.9
X6.3Y4.9
X2.875Y0.2
X6.3Y0.2
X0.2Y0.2
T0
M30
